<?xml version="1.0" encoding="UTF-8" standalone="no"?>
<svg
   xmlns:xhtml="http://www.w3.org/1999/xhtml"
   xmlns:dc="http://purl.org/dc/elements/1.1/"
   xmlns:cc="http://creativecommons.org/ns#"
   xmlns:rdf="http://www.w3.org/1999/02/22-rdf-syntax-ns#"
   xmlns:svg="http://www.w3.org/2000/svg"
   xmlns="http://www.w3.org/2000/svg"
   xmlns:sodipodi="http://sodipodi.sourceforge.net/DTD/sodipodi-0.dtd"
   xmlns:inkscape="http://www.inkscape.org/namespaces/inkscape"
   height="960"
   width="960"
   version="1.1"
   id="svg2"
   inkscape:version="0.91 r13725"
   sodipodi:docname="chord.svg">
  <metadata
     id="metadata124">
    <rdf:RDF>
      <cc:Work
         rdf:about="">
        <dc:format>image/svg+xml</dc:format>
        <dc:type
           rdf:resource="http://purl.org/dc/dcmitype/StillImage" />
        <dc:title></dc:title>
      </cc:Work>
    </rdf:RDF>
  </metadata>
  <defs
     id="defs122" />
  <sodipodi:namedview
     pagecolor="#ffffff"
     bordercolor="#666666"
     borderopacity="1"
     objecttolerance="10"
     gridtolerance="10"
     guidetolerance="10"
     inkscape:pageopacity="0"
     inkscape:pageshadow="2"
     inkscape:window-width="640"
     inkscape:window-height="480"
     id="namedview120"
     showgrid="false"
     inkscape:zoom="0.24583333"
     inkscape:cx="480"
     inkscape:cy="480"
     inkscape:window-x="986"
     inkscape:window-y="888"
     inkscape:window-maximized="0"
     inkscape:current-layer="svg2" />
  <xhtml:defs>
    <xhtml:style
       type="text/css"><![CDATA[
body { font: 10px sans-serif; }
svg text { text-anchor: middle; font-size: 18px; }
svg .values text { pointer-events: none; stroke-width: 0.5px; }
.groups:hover { cursor: pointer; font-weight: bold; }]]></xhtml:style>
  </xhtml:defs>
  <g
     transform="translate(480,480)"
     id="g4">
    <g
       class="groups"
       id="g6">
      <text
         class="label"
         id="text8" />
      <path
         d="M -7.531577814756222e-14,-410 A 410 410 0 0 1 -7.531577814756222e-14,-410 L -8.082668874372531e-14,-440 A 440 440 0 0 0 -8.082668874372531e-14,-440 z"
         style="fill: rgb(0, 0, 0); stroke: rgb(0, 0, 0);"
         id="path10" />
    </g>
    <g
       class="groups"
       id="g12">
      <text
         class="label"
         x="351.8982964110547"
         y="-278.5480730197169"
         style="text-anchor: start;"
         id="text14" />
      <path
         d="M -7.531577814756222e-14,-410 A 410 410 0 0 1 399.0483125265152,94.12993291052886 L 428.24696954065047,101.01748897715294 A 440 440 0 0 0 -8.082668874372531e-14,-440 z"
         style="fill: rgb(0, 0, 0); stroke: rgb(0, 0, 0);"
         id="path16" />
    </g>
    <g
       class="groups"
       id="g18">
      <text
         class="label"
         id="text20" />
      <path
         d="M 393.845070195656,113.95639816429258 A 410 410 0 0 1 393.845070195656,113.95639816429258 L 422.6630021611918,122.29467120070424 A 440 440 0 0 0 422.6630021611918,122.29467120070424 z"
         style="fill: rgb(255, 221, 137); stroke: rgb(255, 221, 137);"
         id="path22" />
    </g>
    <g
       class="groups"
       id="g24">
      <text
         class="label"
         x="280.0440068881988"
         y="350.7089879173365"
         style="text-anchor: start;"
         id="text26" />
      <path
         d="M 393.845070195656,113.95639816429258 A 410 410 0 0 1 23.97805871539756,409.29824419393856 L 25.73255081652421,439.24689620812916 A 440 440 0 0 0 422.6630021611918,122.29467120070424 z"
         style="fill: rgb(255, 221, 137); stroke: rgb(255, 221, 137);"
         id="path28" />
    </g>
    <g
       class="groups"
       id="g30">
      <text
         class="label"
         id="text32" />
      <path
         d="M 3.491706157008887,409.98513142321775 A 410 410 0 0 1 3.491706157008887,409.98513142321775 L 3.7471968514241714,439.98404347857513 A 440 440 0 0 0 3.7471968514241714,439.98404347857513 z"
         style="fill: rgb(149, 114, 68); stroke: rgb(149, 114, 68);"
         id="path34" />
    </g>
    <g
       class="groups"
       id="g36">
      <text
         class="label"
         x="-420.99407014034705"
         y="155.51666440180796"
         style="text-anchor: end;"
         id="text38" />
      <path
         d="M 3.491706157008887,409.98513142321775 A 410 410 0 0 1 -263.8763386673505,-313.7981483239086 L -283.18436344788836,-336.7589884451702 A 440 440 0 0 0 3.7471968514241714,439.98404347857513 z"
         style="fill: rgb(149, 114, 68); stroke: rgb(149, 114, 68);"
         id="path40" />
    </g>
    <g
       class="groups"
       id="g42">
      <text
         class="label"
         id="text44" />
      <path
         d="M -247.8631911841809,-326.594302546744 A 410 410 0 0 1 -247.8631911841809,-326.594302546744 L -265.99952224643806,-350.49144663553017 A 440 440 0 0 0 -265.99952224643806,-350.49144663553017 z"
         style="fill: rgb(242, 98, 35); stroke: rgb(242, 98, 35);"
         id="path46" />
    </g>
    <g
       class="groups"
       id="g48">
      <text
         class="label"
         x="-153.72257040773846"
         y="-421.6524769845873"
         style="text-anchor: end;"
         id="text50" />
      <path
         d="M -247.8631911841809,-326.594302546744 A 410 410 0 0 1 -20.49145940097858,-409.48760676193615 L -21.990834479098964,-439.45011457378513 A 440 440 0 0 0 -265.99952224643806,-350.49144663553017 z"
         style="fill: rgb(242, 98, 35); stroke: rgb(242, 98, 35);"
         id="path52" />
    </g>
    <g
       class="chords"
       id="g54">
      <g
         class="chord"
         id="g56">
        <path
           d="M2.888373739294891e-13,-410A410,410 0 0,1 272.94616392266323,-305.9418108070596Q39.05443729805123,-102.44036463959931 2.888373739294891e-13,-410A410,410 0 0,1 2.888373739294891e-13,-410Q2.888373739294891e-13,-410 2.888373739294891e-13,-410Z"
           style="fill: rgb(0, 0, 0); opacity: 0.7; stroke: rgb(0, 0, 0); display: inline;"
           id="path58" />
      </g>
      <g
         class="chord"
         id="g60">
        <path
           d="M272.94616392266323,-305.9418108070596A410,410 0 0,1 321.9086811496596,-253.91888665573256Q22.482198076401897,-53.826668865816444 -45.67031636482558,-407.44842888780016A410,410 0 0,1 -45.67031636482558,-407.44842888780016Q26.262251750467623,-82.43389815728257 272.94616392266323,-305.9418108070596Z"
           style="fill: rgb(242, 98, 35); opacity: 0.7; stroke: rgb(242, 98, 35); display: inline;"
           id="path62" />
      </g>
      <g
         class="chord"
         id="g64">
        <path
           d="M321.9086811496596,-253.91888665573256A410,410 0 0,1 406.77582802465844,-51.31691470512916Q-5.497305741215966e-10,-4.747820556853256e-9 -407.7396801308491,42.99247895612526A410,410 0 0,1 -407.7396801308491,42.99247895612526Q-0.028517319104443755,-0.0700802244797589 321.9086811496596,-253.91888665573256Z"
           style="fill: rgb(149, 114, 68); opacity: 0.7; stroke: rgb(149, 114, 68); display: inline;"
           id="path66" />
      </g>
      <g
         class="chord"
         id="g68">
        <path
           d="M406.77582802465844,-51.31691470512916A410,410 0 0,1 399.0483125265152,94.12993291052886Q106.41365762826922,67.05308639679677 257.1371215531529,319.3438596863247A410,410 0 0,1 257.1371215531529,319.3438596863247Q53.60601159792102,21.64117378694597 406.77582802465844,-51.31691470512916Z"
           style="fill: rgb(255, 221, 137); opacity: 0.7; stroke: rgb(255, 221, 137); display: inline;"
           id="path70" />
      </g>
      <g
         class="chord"
         id="g72">
        <path
           d="M393.845070195656,113.95639816429258A410,410 0 0,1 257.1371215531532,319.3438596863245Q115.69175105385804,77.00558663234399 393.845070195656,113.95639816429258A410,410 0 0,1 393.845070195656,113.95639816429258Q393.845070195656,113.95639816429258 393.845070195656,113.95639816429258Z"
           style="fill: rgb(255, 221, 137); opacity: 0.7; stroke: rgb(255, 221, 137); display: inline;"
           id="path74" />
      </g>
      <g
         class="chord"
         id="g76">
        <path
           d="M257.1371215531529,319.3438596863247A410,410 0 0,1 217.51651900858667,347.54361446930244Q39.1741741289856,18.588144438039215 406.77582802465844,-51.31691470512916A410,410 0 0,1 406.77582802465844,-51.31691470512916Q53.60601159792109,21.64117378694605 257.1371215531529,319.3438596863247Z"
           style="fill: rgb(0, 0, 0); opacity: 0.7; stroke: rgb(0, 0, 0); display: inline;"
           id="path78" />
      </g>
      <g
         class="chord"
         id="g80">
        <path
           d="M217.516519008587,347.54361446930227A410,410 0 0,1 74.94654365525022,403.09182030169217Q3.2592431475562245e-10,-5.85806447322601e-11 -70.1106756728842,-403.96100450005275A410,410 0 0,1 -70.1106756728842,-403.96100450005275Q0.01091492084578352,-0.00417752330963522 217.516519008587,347.54361446930227Z"
           style="fill: rgb(242, 98, 35); opacity: 0.7; stroke: rgb(242, 98, 35); display: inline;"
           id="path82" />
      </g>
      <g
         class="chord"
         id="g84">
        <path
           d="M74.94654365525022,403.09182030169217A410,410 0 0,1 23.97805871539792,409.29824419393856Q-33.54559730029809,155.44182090634027 -190.64223975510242,362.9814546518293A410,410 0 0,1 -190.64223975510242,362.9814546518293Q-18.548714147286354,122.81938457524537 74.94654365525022,403.09182030169217Z"
           style="fill: rgb(149, 114, 68); opacity: 0.7; stroke: rgb(149, 114, 68); display: inline;"
           id="path86" />
      </g>
      <g
         class="chord"
         id="g88">
        <path
           d="M3.491706157008887,409.98513142321775A410,410 0 0,1 -190.64223975510242,362.9814546518293Q-41.16078479223644,170.00171300259024 3.491706157008887,409.98513142321775A410,410 0 0,1 3.491706157008887,409.98513142321775Q3.491706157008887,409.98513142321775 3.491706157008887,409.98513142321775Z"
           style="fill: rgb(149, 114, 68); opacity: 0.7; stroke: rgb(149, 114, 68); display: inline;"
           id="path90" />
      </g>
      <g
         class="chord"
         id="g92">
        <path
           d="M-190.64223975510242,362.9814546518293A410,410 0 0,1 -407.7396801308491,42.99247895612526Q-5.923526740136827,7.940044386109571 74.94654365525022,403.09182030169217A410,410 0 0,1 74.94654365525022,403.09182030169217Q-18.548714147286354,122.81938457524537 -190.64223975510242,362.9814546518293Z"
           style="fill: rgb(255, 221, 137); opacity: 0.7; stroke: rgb(255, 221, 137); display: inline;"
           id="path94" />
      </g>
      <g
         class="chord"
         id="g96">
        <path
           d="M-407.7396801308491,42.99247895612526A410,410 0 0,1 -380.4154316726065,-152.91860366006642Q-0.24349233657854724,-1.6931689119513154 321.9086811496596,-253.91888665573256A410,410 0 0,1 321.9086811496596,-253.91888665573256Q-0.028517319104444043,-0.07008022447975956 -407.7396801308491,42.99247895612526Z"
           style="fill: rgb(0, 0, 0); opacity: 0.7; stroke: rgb(0, 0, 0); display: inline;"
           id="path98" />
      </g>
      <g
         class="chord"
         id="g100">
        <path
           d="M-380.41543167260676,-152.91860366006574A410,410 0 0,1 -263.87633866734996,-313.79814832390906Q-81.5958931938536,-163.00292851635496 -93.08277235866917,-399.2938735944043A410,410 0 0,1 -93.08277235866917,-399.2938735944043Q-43.13961087171586,-50.311133568081196 -380.41543167260676,-152.91860366006574Z"
           style="fill: rgb(242, 98, 35); opacity: 0.7; stroke: rgb(242, 98, 35); display: inline;"
           id="path102" />
      </g>
      <g
         class="chord"
         id="g104">
        <path
           d="M-247.8631911841809,-326.594302546744A410,410 0 0,1 -93.08277235866917,-399.2938735944043Q-85.02463171174742,-181.02098701795134 -247.8631911841809,-326.594302546744A410,410 0 0,1 -247.8631911841809,-326.594302546744Q-247.8631911841809,-326.594302546744 -247.8631911841809,-326.594302546744Z"
           style="fill: rgb(242, 98, 35); opacity: 0.7; stroke: rgb(242, 98, 35); display: inline;"
           id="path106" />
      </g>
      <g
         class="chord"
         id="g108">
        <path
           d="M-93.08277235866917,-399.2938735944043A410,410 0 0,1 -70.11067567288492,-403.9610045000526Q-36.50081286527687,-45.11738173333762 -380.41543167260676,-152.91860366006574A410,410 0 0,1 -380.41543167260676,-152.91860366006574Q-43.13961087171586,-50.311133568081196 -93.08277235866917,-399.2938735944043Z"
           style="fill: rgb(149, 114, 68); opacity: 0.7; stroke: rgb(149, 114, 68); display: inline;"
           id="path110" />
      </g>
      <g
         class="chord"
         id="g112">
        <path
           d="M-70.1106756728842,-403.96100450005275A410,410 0 0,1 -45.67031636482558,-407.44842888780016Q0.02272926317831833,-0.007923319058664061 217.516519008587,347.54361446930227A410,410 0 0,1 217.516519008587,347.54361446930227Q0.01091492084578352,-0.004177523309635223 -70.1106756728842,-403.96100450005275Z"
           style="fill: rgb(255, 221, 137); opacity: 0.7; stroke: rgb(255, 221, 137); display: inline;"
           id="path114" />
      </g>
      <g
         class="chord"
         id="g116">
        <path
           d="M-45.67031636482558,-407.44842888780016A410,410 0 0,1 -20.49145940097858,-409.48760676193615Q32.85542410005016,-93.10873002908174 272.94616392266323,-305.9418108070596A410,410 0 0,1 272.94616392266323,-305.9418108070596Q26.262251750467694,-82.43389815728237 -45.67031636482558,-407.44842888780016Z"
           style="fill: rgb(0, 0, 0); opacity: 0.7; stroke: rgb(0, 0, 0); display: inline;"
           id="path118" />
      </g>
    </g>
  </g>
</svg>
