<svg width="500" height="500" xmlns="http://www.w3.org/2000/svg" version="1.1"><g>
<path d="M363.1646952897027,405.6156965L367.07866312014005,437.753721L369.1901457983578,451.623816L371.2089288640737,454.3301755L376.9345882676678,454.3301755L425.04718488193106,407.85277964211195L421.7097232259421,405.61569649999996Z"
style="fill: rgb(191, 105, 105); stroke: rgb(0, 0, 0);"></path>
<path d="M0,35.323998140469854L152.7757367978362,174.48090088870978L211.6612218556014,194.80886986207742L352.9945134354405,190.67160301535532L442.38419022738015,177.07922226780065L500,163.00963666105164L500,0L0,0Z"
style="fill: rgb(191, 105, 105); stroke: rgb(0, 0, 0);"></path>
<path d="M376.9345882676678,454.3301755L408.0177528843489,464.539268229609L456.7866365965768,436.9222529801576L460.1365922260836,426.1587001075784L452.22519597144236,419.4959970965309L425.04718488193106,407.85277964211195Z"
style="fill: rgb(191, 105, 105); stroke: rgb(0, 0, 0);"></path>
<path d="M389.684480589948,500L365.18080032009146,476.3291252598988L339.3781349613845,492.626706907833L338.39037308738716,500Z" style="fill: rgb(191, 105, 105); stroke: rgb(0, 0, 0);"></path>
<path d="M322.34933777835545,459.186223067339L333.6899285028043,485.79161L339.3781349613845,492.626706907833L365.18080032009146,476.3291252598988L371.2089288640737,454.3301755L369.1901457983578,451.623816L324.07620683234484,451.623816Z"
style="fill: rgb(191, 105, 105); stroke: rgb(0, 0, 0);"></path>
<path d="M211.6612218556014,194.80886986207742L267.7057124873452,326.29102355841616L281.22405601191036,342.2911129443795L363.1646952897027,405.6156965L421.7097232259421,405.61569649999996L352.9945134354405,190.67160301535532Z"
style="fill: rgb(191, 105, 105); stroke: rgb(0, 0, 0);"></path></g></svg>
