<?xml version="1.0" encoding="UTF-8" standalone="no"?>
<svg
   xmlns:dc="http://purl.org/dc/elements/1.1/"
   xmlns:cc="http://creativecommons.org/ns#"
   xmlns:rdf="http://www.w3.org/1999/02/22-rdf-syntax-ns#"
   xmlns:svg="http://www.w3.org/2000/svg"
   xmlns="http://www.w3.org/2000/svg"
   xmlns:sodipodi="http://sodipodi.sourceforge.net/DTD/sodipodi-0.dtd"
   xmlns:inkscape="http://www.inkscape.org/namespaces/inkscape"
   width="500"
   height="500"
   version="1.1"
   id="svg2"
   inkscape:version="0.91 r13725"
   sodipodi:docname="sunburst.svg">
  <metadata
     id="metadata194">
    <rdf:RDF>
      <cc:Work
         rdf:about="">
        <dc:format>image/svg+xml</dc:format>
        <dc:type
           rdf:resource="http://purl.org/dc/dcmitype/StillImage" />
      </cc:Work>
    </rdf:RDF>
  </metadata>
  <defs
     id="defs192" />
  <sodipodi:namedview
     pagecolor="#ffffff"
     bordercolor="#666666"
     borderopacity="1"
     objecttolerance="10"
     gridtolerance="10"
     guidetolerance="10"
     inkscape:pageopacity="0"
     inkscape:pageshadow="2"
     inkscape:window-width="1521"
     inkscape:window-height="1198"
     id="namedview190"
     showgrid="false"
     inkscape:zoom="1.8847266"
     inkscape:cx="285.36174"
     inkscape:cy="249.85647"
     inkscape:window-x="1040"
     inkscape:window-y="683"
     inkscape:window-maximized="0"
     inkscape:current-layer="g182" />
  <g
     transform="translate(250, 250)"
     id="g4">
    <g
       display="none"
       id="g6">
      <path
         d="M8.838126989374223e-15,-144.33756729740642A144.33756729740642,144.33756729740642,0,1,1,-8.838126989374223e-15,144.33756729740642A144.33756729740642,144.33756729740642,0,1,1,8.838126989374223e-15,-144.33756729740642Z"
         style="stroke: rgb(255, 255, 255); fill: rgb(191, 105, 105); fill-rule: evenodd;"
         id="path8" />
      <text
         transform="translate(4.4190634946871116e-15,72.16878364870321)rotate(90)"
         text-anchor="middle"
         dx="6"
         dy=".35em"
         style="font-size: 11px; font-family: Arial, Helvetica;"
         id="text10" />
      <title
         id="title12">undefined: none</title>
    </g>
    <g
       id="g14">
      <path
         d="M1.249899905434872e-14,-204.12414523193152A204.12414523193152,204.12414523193152,0,0,1,117.36514823796621,-167.00924718633664L82.98969219403027,-118.09337120631893A144.33756729740642,144.33756729740642,0,0,0,8.838126989374223e-15,-144.33756729740642Z"
         style="stroke: rgb(255, 255, 255); fill: rgb(191, 105, 105); fill-rule: evenodd;"
         id="path16" />
      <title
         id="title20">Classical orchestra: none</title>
    </g>
    <g
       id="g22">
      <path
         d="M117.36514823796621,-167.00924718633664A204.12414523193152,204.12414523193152,0,0,1,177.95548921870136,99.99255234065856L125.83353317591325,70.70541182823044A144.33756729740642,144.33756729740642,0,0,0,82.98969219403027,-118.09337120631893Z"
         style="stroke: rgb(255, 255, 255); fill: rgb(191, 105, 105); fill-rule: evenodd;"
         id="path24" />
      <title
         id="title28">Early Romantic orchestra: none</title>
    </g>
    <g
       id="g30">
      <path
         d="M177.95548921870136,99.99255234065856A204.12414523193152,204.12414523193152,0,0,1,-160.06687161094135,126.66989886848846L-113.18437035941307,89.56914446212237A144.33756729740642,144.33756729740642,0,0,0,125.83353317591325,70.70541182823044Z"
         style="stroke: rgb(255, 255, 255); fill: rgb(191, 105, 105); fill-rule: evenodd;"
         id="path32" />
      <title
         id="title36">Late Romantic orchestra: none</title>
    </g>
    <g
       id="g38">
      <path
         d="M-160.06687161094135,126.66989886848846A204.12414523193152,204.12414523193152,0,0,1,-3.749699716304616e-14,-204.12414523193152L-2.6514380968122666e-14,-144.33756729740642A144.33756729740642,144.33756729740642,0,0,0,-113.18437035941307,89.56914446212237Z"
         style="stroke: rgb(255, 255, 255); fill: rgb(191, 105, 105); fill-rule: evenodd;"
         id="path40" />
      <title
         id="title44">Modern orchestra: none</title>
    </g>
    <g
       id="g46">
      <path
         d="M1.5308084989341916e-14,-250A250,250,0,0,1,34.88955917025864,-247.55346626719856L28.48720577259177,-202.1265588039748A204.12414523193152,204.12414523193152,0,0,0,1.249899905434872e-14,-204.12414523193152Z"
         style="stroke: rgb(255, 255, 255); fill: rgb(191, 105, 105); fill-rule: evenodd;"
         id="path48" />
      <title
         id="title52">Woodwinds: 8</title>
    </g>
    <g
       id="g54">
      <path
         d="M34.88955917025864,-247.55346626719856A250,250,0,0,1,113.7899204780141,-222.60245730361385L92.90908101433635,-181.75414529451083A204.12414523193152,204.12414523193152,0,0,0,28.48720577259177,-202.1265588039748Z"
         style="stroke: rgb(255, 255, 255); fill: rgb(191, 105, 105); fill-rule: evenodd;"
         id="path56" />
      <title
         id="title60">Strings: 19</title>
    </g>
    <g
       id="g62">
      <path
         d="M113.7899204780141,-222.60245730361385A250,250,0,0,1,136.49596190903307,-209.448925474751L111.44848620916663,-171.01433152912028A204.12414523193152,204.12414523193152,0,0,0,92.90908101433635,-181.75414529451083Z"
         style="stroke: rgb(255, 255, 255); fill: rgb(191, 105, 105); fill-rule: evenodd;"
         id="path64" />
      <title
         id="title68">Brass: 6</title>
    </g>
    <g
       id="g70">
      <path
         d="M136.49596190903307,-209.448925474751A250,250,0,0,1,143.7423633845627,-204.54371896643593L117.36514823796621,-167.00924718633664A204.12414523193152,204.12414523193152,0,0,0,111.44848620916663,-171.01433152912028Z"
         style="stroke: rgb(255, 255, 255); fill: rgb(191, 105, 105); fill-rule: evenodd;"
         id="path72" />
      <title
         id="title76">Percussion: 2</title>
    </g>
    <g
       id="g78">
      <path
         d="M143.7423633845627,-204.54371896643593A250,250,0,0,1,183.22753445205927,-170.0813647011907L149.60465541192355,-138.87085275804384A204.12414523193152,204.12414523193152,0,0,0,117.36514823796621,-167.00924718633664Z"
         style="stroke: rgb(255, 255, 255); fill: rgb(191, 105, 105); fill-rule: evenodd;"
         id="path80" />
      <title
         id="title84">Woodwinds: 12</title>
    </g>
    <g
       id="g86">
      <path
         d="M183.22753445205927,-170.0813647011907A250,250,0,0,1,207.639227903783,-139.23344079466276L169.53671964991173,-113.68362835964513A204.12414523193152,204.12414523193152,0,0,0,149.60465541192355,-138.87085275804384Z"
         style="stroke: rgb(255, 255, 255); fill: rgb(191, 105, 105); fill-rule: evenodd;"
         id="path88" />
      <title
         id="title92">Percussion: 9</title>
    </g>
    <g
       id="g94">
      <path
         d="M207.639227903783,-139.23344079466276A250,250,0,0,1,238.69272976496336,74.3355954933447L194.89179774539826,60.69475956154243A204.12414523193152,204.12414523193152,0,0,0,169.53671964991173,-113.68362835964513Z"
         style="stroke: rgb(255, 255, 255); fill: rgb(191, 105, 105); fill-rule: evenodd;"
         id="path96" />
      <title
         id="title100">Strings: 51</title>
    </g>
    <g
       id="g102">
      <path
         d="M238.69272976496336,74.3355954933447A250,250,0,0,1,217.95007275658568,122.46536565657661L177.95548921870136,99.99255234065856A204.12414523193152,204.12414523193152,0,0,0,194.89179774539826,60.69475956154243Z"
         style="stroke: rgb(255, 255, 255); fill: rgb(191, 105, 105); fill-rule: evenodd;"
         id="path104" />
      <title
         id="title108">Brass: 12</title>
    </g>
    <g
       id="g110">
      <path
         d="M217.95007275658568,122.46536565657661A250,250,0,0,1,175.61267263238915,177.93310319024204L143.38714677192579,145.28177038869288A204.12414523193152,204.12414523193152,0,0,0,177.95548921870136,99.99255234065856Z"
         style="stroke: rgb(255, 255, 255); fill: rgb(191, 105, 105); fill-rule: evenodd;"
         id="path112" />
      <title
         id="title116">Woodwinds: 16</title>
    </g>
    <g
       id="g118">
      <path
         d="M175.61267263238915,177.93310319024204A250,250,0,0,1,130.95092479587709,212.9597504109745L106.92098236515743,173.88090808578258A204.12414523193152,204.12414523193152,0,0,0,143.38714677192579,145.28177038869288Z"
         style="stroke: rgb(255, 255, 255); fill: rgb(191, 105, 105); fill-rule: evenodd;"
         id="path120" />
      <title
         id="title124">Percussion: 13</title>
    </g>
    <g
       id="g126">
      <path
         d="M130.95092479587709,212.9597504109745A250,250,0,0,1,123.41782590942746,217.41214374498554L100.77023288058085,177.51627201994802A204.12414523193152,204.12414523193152,0,0,0,106.92098236515743,173.88090808578258Z"
         style="stroke: rgb(255, 255, 255); fill: rgb(191, 105, 105); fill-rule: evenodd;"
         id="path128" />
      <title
         id="title132">Keyboards: 2</title>
    </g>
    <g
       id="g134">
      <path
         d="M123.41782590942746,217.41214374498554A250,250,0,0,1,-134.65788094966965,210.63536051229525L-109.94769939037805,171.98305168076806A204.12414523193152,204.12414523193152,0,0,0,100.77023288058085,177.51627201994802Z"
         style="stroke: rgb(255, 255, 255); fill: rgb(191, 105, 105); fill-rule: evenodd;"
         id="path136" />
      <title
         id="title140">Strings: 62</title>
    </g>
    <g
       id="g142">
      <path
         d="M-134.65788094966965,210.63536051229525A250,250,0,0,1,-196.04108008519634,155.13830899887247L-160.06687161094135,126.66989886848846A204.12414523193152,204.12414523193152,0,0,0,-109.94769939037805,171.98305168076806Z"
         style="stroke: rgb(255, 255, 255); fill: rgb(191, 105, 105); fill-rule: evenodd;"
         id="path144" />
      <title
         id="title148">Brass: 19</title>
    </g>
    <g
       id="g150">
      <path
         d="M-196.04108008519634,155.13830899887247A250,250,0,0,1,-241.14801181589024,65.93660893042092L-196.89652714519326,53.83701574965725A204.12414523193152,204.12414523193152,0,0,0,-160.06687161094135,126.66989886848846Z"
         style="stroke: rgb(255, 255, 255); fill: rgb(191, 105, 105); fill-rule: evenodd;"
         id="path152" />
      <title
         id="title156">Brass: 23</title>
    </g>
    <g
       id="g158">
      <path
         d="M-241.14801181589024,65.93660893042092A250,250,0,0,1,-249.9401748829942,5.468910262408666L-204.07529822844268,4.465346530657229A204.12414523193152,204.12414523193152,0,0,0,-196.89652714519326,53.83701574965725Z"
         style="stroke: rgb(255, 255, 255); fill: rgb(191, 105, 105); fill-rule: evenodd;"
         id="path160" />
      <title
         id="title164">Percussion: 14</title>
    </g>
    <g
       id="g166">
      <path
         d="M-249.9401748829942,5.468910262408666A250,250,0,0,1,-241.71577931141192,-63.823835922614435L-197.36010736404862,-52.11194381250687A204.12414523193152,204.12414523193152,0,0,0,-204.07529822844268,4.465346530657229Z"
         style="stroke: rgb(255, 255, 255); fill: rgb(191, 105, 105); fill-rule: evenodd;"
         id="path168" />
      <title
         id="title172">Woodwinds: 16</title>
    </g>
    <g
       id="g174">
      <path
         d="M-241.71577931141192,-63.823835922614435A250,250,0,0,1,-238.03309126475327,-76.421511781341L-194.35320516532843,-62.39790307879286A204.12414523193152,204.12414523193152,0,0,0,-197.36010736404862,-52.11194381250687Z"
         style="stroke: rgb(255, 255, 255); fill: rgb(191, 105, 105); fill-rule: evenodd;"
         id="path176" />
      <title
         id="title180">Keyboards: 3</title>
    </g>
    <g
       id="g182">
      <path
         d="M-238.03309126475327,-76.421511781341A250,250,0,0,1,-4.5924254968025744e-14,-250L-3.749699716304616e-14,-204.12414523193152A204.12414523193152,204.12414523193152,0,0,0,-194.35320516532843,-62.39790307879286Z"
         style="stroke: rgb(255, 255, 255); fill: rgb(191, 105, 105); fill-rule: evenodd;"
         id="path184" />
      <title
         id="title188">Strings: 72</title>
    </g>
  </g>
</svg>
