<?xml version="1.0" standalone="no"?><!DOCTYPE svg PUBLIC "-//W3C//DTD SVG 1.1//EN" "http://www.w3.org/Graphics/SVG/1.1/DTD/svg11.dtd"><svg width="1280" height="800" version="1.1" xmlns="http://www.w3.org/2000/svg" xmlns:xlink="http://www.w3.org/1999/xlink"><defs xmlns="http://www.w3.org/1999/xhtml"><style type="text/css"><![CDATA[
body { background: url("texture-noise.png"); overflow: hidden; margin: 0px; font-size: 14px; font-family: "Helvetica Neue", Helvetica; }
#chart, #header, #footer { position: absolute; top: 0px; }
#header, #footer { z-index: 1; display: block; font-size: 36px; font-weight: 300; text-shadow: rgb(255, 255, 255) 0px 1px 0px; }
#header.inverted, #footer.inverted { color: rgb(255, 255, 255); text-shadow: rgb(0, 0, 0) 0px 1px 4px; }
#header { top: 80px; left: 140px; width: 1000px; }
#footer { top: 680px; right: 140px; text-align: right; }
rect { fill: none; pointer-events: all; }
pre { font-size: 18px; }
line { stroke: rgb(0, 0, 0); stroke-width: 1.5px; }
.string, .regexp { color: rgb(255, 51, 153); }
.keyword { color: rgb(0, 0, 204); }
.comment { color: rgb(119, 119, 119); font-style: oblique; }
.number { color: rgb(51, 102, 153); }
.class, .special { color: rgb(17, 129, 184); }
a:link, a:visited { color: rgb(0, 0, 0); text-decoration: none; }
a:hover { color: rgb(102, 102, 102); }
.hint { position: absolute; right: 0px; width: 1280px; font-size: 12px; color: rgb(153, 153, 153); }
circle { stroke: rgb(0, 0, 0); stroke-opacity: 0.5; }]]></style></defs><circle r="11.045679800197718" style="fill: rgb(31, 119, 180);" cx="541.0999976968703" cy="316.48781689088895"/><circle r="9.868139662218065" style="fill: rgb(255, 127, 14);" cx="685.8469132165706" cy="547.2951560041399"/><circle r="6.553059134676495" style="fill: rgb(44, 160, 44);" cx="572.2412456088289" cy="472.78284294779024"/><circle r="3.3115742635388026" style="fill: rgb(31, 119, 180);" cx="570.2592429470855" cy="374.387531350797"/><circle r="7.110469474666923" style="fill: rgb(255, 127, 14);" cx="561.9892402844454" cy="362.5899654404029"/><circle r="12.050910416505277" style="fill: rgb(44, 160, 44);" cx="548.2257781727496" cy="509.75207850141817"/><circle r="3.0520262855475" style="fill: rgb(31, 119, 180);" cx="600.3370378394056" cy="441.2946899771981"/><circle r="11.497544824299382" style="fill: rgb(255, 127, 14);" cx="669.7819548465379" cy="296.1724228542414"/><circle r="12.097937648194069" style="fill: rgb(44, 160, 44);" cx="678.2207715268581" cy="502.6813516904512"/><circle r="6.267988601646287" style="fill: rgb(31, 119, 180);" cx="559.395645575798" cy="490.62019223311046"/><circle r="7.771913479609109" style="fill: rgb(255, 127, 14);" cx="683.4471905597127" cy="525.7661493723966"/><circle r="4.986108479669609" style="fill: rgb(44, 160, 44);" cx="663.2097781357686" cy="420.7204616281735"/><circle r="2.0242089260656053" style="fill: rgb(31, 119, 180);" cx="624.144902107433" cy="519.9924634647973"/><circle r="2.1295775060635815" style="fill: rgb(255, 127, 14);" cx="601.9843629467141" cy="318.2453676554451"/><circle r="7.945638399000117" style="fill: rgb(44, 160, 44);" cx="710.6751048770053" cy="497.777495352525"/><circle r="3.5123930368968805" style="fill: rgb(31, 119, 180);" cx="695.7485264499671" cy="493.76174717185404"/><circle r="11.647609103099693" style="fill: rgb(255, 127, 14);" cx="510.65491324055245" cy="495.58709931325325"/><circle r="4.430567553002178" style="fill: rgb(44, 160, 44);" cx="671.1953451680332" cy="410.0244173831193"/><circle r="2.2888645686403812" style="fill: rgb(31, 119, 180);" cx="579.827469701802" cy="443.41437201483643"/><circle r="13.832413846381524" style="fill: rgb(255, 127, 14);" cx="746.0593882341074" cy="409.9289756666587"/><circle r="3.537494926930047" style="fill: rgb(44, 160, 44);" cx="564.4011919083651" cy="520.4663686344252"/><circle r="8.547196874657528" style="fill: rgb(31, 119, 180);" cx="688.6186196408989" cy="319.3647716129025"/><circle r="3.286997825349821" style="fill: rgb(255, 127, 14);" cx="651.5883646327019" cy="519.4827086591318"/><circle r="12.319527102612245" style="fill: rgb(44, 160, 44);" cx="598.5722830790212" cy="285.7375447832007"/><circle r="6.840318143720861" style="fill: rgb(31, 119, 180);" cx="627.6469307332256" cy="472.91983142848267"/><circle r="10.259284082817292" style="fill: rgb(255, 127, 14);" cx="628.1314680916319" cy="374.2736959611868"/><circle r="2.1156065446939527" style="fill: rgb(44, 160, 44);" cx="675.6778950345077" cy="369.51155957849346"/><circle r="7.872598374557725" style="fill: rgb(31, 119, 180);" cx="590.1290405216861" cy="585.3691966723017"/><circle r="7.4956217371413025" style="fill: rgb(255, 127, 14);" cx="702.9145039567097" cy="363.81116118166284"/><circle r="13.26142688259759" style="fill: rgb(44, 160, 44);" cx="541.9259733807947" cy="399.7065201049627"/><circle r="8.723691521862346" style="fill: rgb(31, 119, 180);" cx="684.8182027693906" cy="354.7148523561587"/><circle r="13.397213290051365" style="fill: rgb(255, 127, 14);" cx="727.8653996231129" cy="435.2116828373692"/><circle r="7.824816704163631" style="fill: rgb(44, 160, 44);" cx="702.4121077300894" cy="412.4537157501005"/><circle r="6.0676191094331955" style="fill: rgb(31, 119, 180);" cx="514.07560717989" cy="337.72334351346007"/><circle r="3.979335789018382" style="fill: rgb(255, 127, 14);" cx="546.5290861666786" cy="441.23950976753383"/><circle r="8.745882915833771" style="fill: rgb(44, 160, 44);" cx="627.5091196928918" cy="407.5539866185381"/><circle r="13.728745519560297" style="fill: rgb(31, 119, 180);" cx="754.7834665396578" cy="484.90328985065224"/><circle r="3.320781822943901" style="fill: rgb(255, 127, 14);" cx="645.2424741931096" cy="375.7895193685547"/><circle r="5.269922695224192" style="fill: rgb(44, 160, 44);" cx="612.3868443340128" cy="480.030676174137"/><circle r="4.9192081522038835" style="fill: rgb(31, 119, 180);" cx="557.1985503474964" cy="475.5838679591432"/><circle r="7.632071038524735" style="fill: rgb(255, 127, 14);" cx="532.753342841276" cy="448.7778897810937"/><circle r="7.184429874504504" style="fill: rgb(44, 160, 44);" cx="525.2769952169555" cy="512.9897117407046"/><circle r="5.994640727688724" style="fill: rgb(31, 119, 180);" cx="644.2033310064636" cy="362.42311268676457"/><circle r="11.165402845393618" style="fill: rgb(255, 127, 14);" cx="574.8542394337791" cy="505.26288648961906"/><circle r="4.722411643763728" style="fill: rgb(44, 160, 44);" cx="619.8930352165288" cy="391.58719631245117"/><circle r="5.981074348874289" style="fill: rgb(31, 119, 180);" cx="641.7546018941682" cy="530.7811406874436"/><circle r="5.2638623753860445" style="fill: rgb(255, 127, 14);" cx="682.329793266808" cy="336.9336488178379"/><circle r="2.311030521604115" style="fill: rgb(44, 160, 44);" cx="560.8365732345202" cy="375.67269320572007"/><circle r="8.425263580307139" style="fill: rgb(31, 119, 180);" cx="565.1181506170753" cy="389.51947509012666"/><circle r="7.790335589348302" style="fill: rgb(255, 127, 14);" cx="580.6941600872651" cy="456.63763739100773"/><circle r="10.215073156169714" style="fill: rgb(44, 160, 44);" cx="492.4175840498588" cy="477.5416876835802"/><circle r="4.278963411327778" style="fill: rgb(31, 119, 180);" cx="554.7802180774521" cy="302.87023086034566"/><circle r="10.944516366694087" style="fill: rgb(255, 127, 14);" cx="556.7969129126507" cy="547.9107245089801"/><circle r="5.087847439019222" style="fill: rgb(44, 160, 44);" cx="625.1317978739853" cy="500.702177557155"/><circle r="6.180779432409594" style="fill: rgb(31, 119, 180);" cx="660.2434026395412" cy="458.21833489224315"/><circle r="2.5762115678564266" style="fill: rgb(255, 127, 14);" cx="698.497329174981" cy="398.727436668478"/><circle r="4.556597791263507" style="fill: rgb(44, 160, 44);" cx="720.3557191287246" cy="456.75951622886055"/><circle r="10.846276557849354" style="fill: rgb(31, 119, 180);" cx="515.2423786147438" cy="548.2165589998347"/><circle r="13.244241329786307" style="fill: rgb(255, 127, 14);" cx="487.18270695342176" cy="548.3947655649969"/><circle r="13.422600691929608" style="fill: rgb(44, 160, 44);" cx="576.0320249228604" cy="342.41510047581403"/><circle r="6.740864478575364" style="fill: rgb(31, 119, 180);" cx="666.3181457047609" cy="360.81861549781996"/><circle r="5.03015494809096" style="fill: rgb(255, 127, 14);" cx="547.0225126011763" cy="356.831210522075"/><circle r="9.535405903732268" style="fill: rgb(44, 160, 44);" cx="451.2467849354819" cy="437.10239523698715"/><circle r="13.758710480511308" style="fill: rgb(31, 119, 180);" cx="484.590874103176" cy="315.6864329459797"/><circle r="4.139604187819144" style="fill: rgb(255, 127, 14);" cx="655.4282206189854" cy="370.66381227427814"/><circle r="7.400145971960164" style="fill: rgb(44, 160, 44);" cx="685.5542953962025" cy="403.3706692302475"/><circle r="2.4594378584564325" style="fill: rgb(31, 119, 180);" cx="513.0110083946083" cy="421.845868211065"/><circle r="6.134607509476055" style="fill: rgb(255, 127, 14);" cx="706.8696767915018" cy="480.2733621973208"/><circle r="7.047077981697592" style="fill: rgb(44, 160, 44);" cx="721.2361352526381" cy="411.6746924624363"/><circle r="7.355384716535131" style="fill: rgb(31, 119, 180);" cx="651.7464015293282" cy="544.396591572894"/><circle r="2.064526220524902" style="fill: rgb(255, 127, 14);" cx="530.1241159119929" cy="433.66350788510204"/><circle r="8.300629078658028" style="fill: rgb(44, 160, 44);" cx="606.4857012358186" cy="379.37846094022683"/><circle r="5.467093193882068" style="fill: rgb(31, 119, 180);" cx="486.68786925485495" cy="361.7261797476578"/><circle r="12.534737373534194" style="fill: rgb(255, 127, 14);" cx="609.1983008000439" cy="458.42937821797165"/><circle r="10.047350899687444" style="fill: rgb(44, 160, 44);" cx="644.651662880768" cy="300.58370263415225"/><circle r="8.051432307988684" style="fill: rgb(31, 119, 180);" cx="587.8464968659051" cy="319.99019039154473"/><circle r="8.996132015953398" style="fill: rgb(255, 127, 14);" cx="513.7082759900875" cy="469.0982963742333"/><circle r="9.066235320114448" style="fill: rgb(44, 160, 44);" cx="585.0126918031657" cy="381.0941439212432"/><circle r="13.686184376616465" style="fill: rgb(31, 119, 180);" cx="623.2407240292896" cy="575.0208705231177"/><circle r="10.874257787835111" style="fill: rgb(255, 127, 14);" cx="588.0124929371261" cy="428.6438013417656"/><circle r="7.993854856610142" style="fill: rgb(44, 160, 44);" cx="699.2657331702012" cy="513.9928872511578"/><circle r="9.185709989269771" style="fill: rgb(31, 119, 180);" cx="631.5817831570962" cy="281.4052679330416"/><circle r="6.0078120748464805" style="fill: rgb(255, 127, 14);" cx="664.7075623970449" cy="519.8411021409364"/><circle r="5.740333341043212" style="fill: rgb(44, 160, 44);" cx="700.9167659584967" cy="465.6316935674258"/><circle r="12.533688511770109" style="fill: rgb(31, 119, 180);" cx="726.7199209070483" cy="360.37078784566825"/><circle r="3.2879906223694286" style="fill: rgb(255, 127, 14);" cx="556.5222733680773" cy="349.25683681597116"/><circle r="13.431177184353665" style="fill: rgb(44, 160, 44);" cx="509.2957521720625" cy="360.51095973317064"/><circle r="10.401088272877384" style="fill: rgb(31, 119, 180);" cx="468.20593763806784" cy="392.11463744202035"/><circle r="4.108128198130668" style="fill: rgb(255, 127, 14);" cx="612.7441189783134" cy="364.4037434402501"/><circle r="2.8545282668170495" style="fill: rgb(44, 160, 44);" cx="566.1630318993301" cy="455.2113067325156"/><circle r="4.447211803671339" style="fill: rgb(31, 119, 180);" cx="623.4923966259626" cy="487.3322044633152"/><circle r="2.6342046309226514" style="fill: rgb(255, 127, 14);" cx="511.5239205827129" cy="380.30315486204387"/><circle r="10.797026884377225" style="fill: rgb(44, 160, 44);" cx="739.1443529851547" cy="461.0023748226985"/><circle r="12.826275800442385" style="fill: rgb(31, 119, 180);" cx="503.5687902992637" cy="523.1710626585221"/><circle r="6.94058352087319" style="fill: rgb(255, 127, 14);" cx="668.1460146076643" cy="536.4120944288591"/><circle r="5.337564635789067" style="fill: rgb(44, 160, 44);" cx="530.7859348945935" cy="490.4094316852596"/><circle r="4.742447969493262" style="fill: rgb(31, 119, 180);" cx="544.6731113182514" cy="489.49986973713015"/><circle r="12.323065229940894" style="fill: rgb(255, 127, 14);" cx="681.9821278813522" cy="454.51952580252015"/><circle r="8.62213290476218" style="fill: rgb(44, 160, 44);" cx="636.9161194491904" cy="512.9467402064623"/><circle r="5.796998026706691" style="fill: rgb(31, 119, 180);" cx="669.4788058043254" cy="344.6317183995896"/><circle r="10.888002942400885" style="fill: rgb(255, 127, 14);" cx="627.6964513305946" cy="546.0692640176186"/><circle r="12.956673650825337" style="fill: rgb(44, 160, 44);" cx="453.99580031041194" cy="463.4077302165932"/><circle r="13.440932692161507" style="fill: rgb(31, 119, 180);" cx="637.8806366505582" cy="451.04452081486676"/><circle r="8.925561745122256" style="fill: rgb(255, 127, 14);" cx="661.7235928212028" cy="439.21251987816356"/><circle r="4.983476653902735" style="fill: rgb(44, 160, 44);" cx="692.7006742447992" cy="388.81291295960193"/><circle r="5.728572209750417" style="fill: rgb(31, 119, 180);" cx="600.2170255688463" cy="571.0040546778571"/><circle r="8.20958989304841" style="fill: rgb(255, 127, 14);" cx="546.3656896149157" cy="374.80898724173136"/><circle r="8.296418146948675" style="fill: rgb(44, 160, 44);" cx="526.3891658831739" cy="379.59603944347987"/><circle r="6.296196961117198" style="fill: rgb(31, 119, 180);" cx="532.7006003202963" cy="362.38735071708265"/><circle r="8.469718947679588" style="fill: rgb(255, 127, 14);" cx="546.3660160847559" cy="425.00687852374955"/><circle r="10.298019949235723" style="fill: rgb(44, 160, 44);" cx="603.1188534718394" cy="551.247847541935"/><circle r="9.130080657618052" style="fill: rgb(31, 119, 180);" cx="515.4887930707998" cy="437.2305430314085"/><circle r="13.173630397366704" style="fill: rgb(255, 127, 14);" cx="605.9956979190177" cy="336.9301563341106"/><circle r="2.3120910279031808" style="fill: rgb(44, 160, 44);" cx="589.3576997931042" cy="514.832933748915"/><circle r="13.50185601597046" style="fill: rgb(31, 119, 180);" cx="705.7048384818895" cy="338.9283507737116"/><circle r="7.816630690632337" style="fill: rgb(255, 127, 14);" cx="527.1731261533467" cy="420.2122400855579"/><circle r="11.38665903431221" style="fill: rgb(44, 160, 44);" cx="516.6954629302508" cy="288.7279769287524"/><circle r="6.375097625815592" style="fill: rgb(31, 119, 180);" cx="656.7846723621025" cy="406.79492593078925"/><circle r="5.033468011002385" style="fill: rgb(255, 127, 14);" cx="473.10572610637377" cy="478.37846721398955"/><circle r="4.227010531614408" style="fill: rgb(44, 160, 44);" cx="591.1362425944446" cy="468.4178935645305"/><circle r="13.233475449871833" style="fill: rgb(31, 119, 180);" cx="714.8488181788152" cy="387.71448243212933"/><circle r="3.2760374869480104" style="fill: rgb(255, 127, 14);" cx="561.6512638808625" cy="464.2498354746471"/><circle r="7.17516651923135" style="fill: rgb(44, 160, 44);" cx="643.7928353520224" cy="561.0788293682639"/><circle r="13.511917357080437" style="fill: rgb(31, 119, 180);" cx="634.6895329464314" cy="326.3101778632481"/><circle r="9.295873166971996" style="fill: rgb(255, 127, 14);" cx="687.6780495324406" cy="479.087363437784"/><circle r="13.91249784865304" style="fill: rgb(44, 160, 44);" cx="728.4594384328063" cy="516.5499761046916"/><circle r="9.48988482157877" style="fill: rgb(31, 119, 180);" cx="448.1033073346859" cy="405.0720283533497"/><circle r="10.56569026698902" style="fill: rgb(255, 127, 14);" cx="490.58395919320293" cy="381.2337469511544"/><circle r="7.48142369319844" style="fill: rgb(44, 160, 44);" cx="581.049109056627" cy="301.7178828964422"/><circle r="2.9824993683943966" style="fill: rgb(31, 119, 180);" cx="620.2851512965188" cy="511.9434783135977"/><circle r="2.1119023103644814" style="fill: rgb(255, 127, 14);" cx="537.8535846769596" cy="436.1812931610268"/><circle r="12.52053208035333" style="fill: rgb(44, 160, 44);" cx="579.2717199401108" cy="563.5502823254345"/><circle r="6.114342275105978" style="fill: rgb(31, 119, 180);" cx="704.979465793561" cy="430.07585970765155"/><circle r="11.883514494211866" style="fill: rgb(255, 127, 14);" cx="514.2126791620192" cy="315.7876477796118"/><circle r="10.17298293456599" style="fill: rgb(44, 160, 44);" cx="726.9593997172329" cy="482.82296386921473"/><circle r="9.25170740965864" style="fill: rgb(31, 119, 180);" cx="640.5229832055289" cy="491.4366960155469"/><circle r="4.6125502772454" style="fill: rgb(255, 127, 14);" cx="577.4366566828458" cy="364.9126106806"/><circle r="5.431251847576891" style="fill: rgb(44, 160, 44);" cx="580.4369160737042" cy="398.11783805538784"/><circle r="10.227217411897573" style="fill: rgb(31, 119, 180);" cx="609.8068359695403" cy="527.6768705643534"/><circle r="10.527615536170604" style="fill: rgb(255, 127, 14);" cx="706.9828875387308" cy="535.1534958652862"/><circle r="13.851332523299886" style="fill: rgb(44, 160, 44);" cx="581.4843522116828" cy="533.2385610528116"/><circle r="10.715358172544953" style="fill: rgb(31, 119, 180);" cx="619.9126992603027" cy="302.2286818142514"/><circle r="9.940325627282668" style="fill: rgb(255, 127, 14);" cx="566.0673674327217" cy="316.9979520688028"/><circle r="5.140874375784188" style="fill: rgb(44, 160, 44);" cx="599.4115167232247" cy="307.26911634849694"/><circle r="6.790350267642104" style="fill: rgb(31, 119, 180);" cx="660.2757464521544" cy="488.42201856204497"/><circle r="9.135199172581757" style="fill: rgb(255, 127, 14);" cx="540.869373286681" cy="292.38022656046076"/><circle r="3.141399240352757" style="fill: rgb(44, 160, 44);" cx="637.1858369809223" cy="351.2842607663444"/><circle r="10.060636287228034" style="fill: rgb(31, 119, 180);" cx="741.6198163731723" cy="382.3915021542311"/><circle r="6.797587636623387" style="fill: rgb(255, 127, 14);" cx="668.6002575438683" cy="472.94266279574555"/><circle r="3.5562518944437533" style="fill: rgb(44, 160, 44);" cx="572.4634591862148" cy="486.7180224371401"/><circle r="9.484893579661314" style="fill: rgb(31, 119, 180);" cx="643.0568935379579" cy="392.4062871464705"/><circle r="8.267713400477712" style="fill: rgb(255, 127, 14);" cx="705.8267482440839" cy="448.2795862376402"/><circle r="10.089656419452197" style="fill: rgb(44, 160, 44);" cx="554.3335428899705" cy="572.8185319436475"/><circle r="6.437103939478103" style="fill: rgb(31, 119, 180);" cx="554.1330304809252" cy="333.48266592041307"/><circle r="9.606592151218038" style="fill: rgb(255, 127, 14);" cx="595.3644610650205" cy="360.78160616502174"/><circle r="7.233063567255828" style="fill: rgb(44, 160, 44);" cx="478.61347098674264" cy="347.0876588722998"/><circle r="2.481046361766193" style="fill: rgb(31, 119, 180);" cx="523.3985423185449" cy="481.1805916787193"/><circle r="10.740557966336656" style="fill: rgb(255, 127, 14);" cx="643.8634247376431" cy="423.5088722221013"/><circle r="4.350830328129831" style="fill: rgb(44, 160, 44);" cx="555.8468956872276" cy="528.6544321964831"/><circle r="13.005099847493256" style="fill: rgb(31, 119, 180);" cx="482.0732677132658" cy="502.4864432082373"/><circle r="8.715540898808495" style="fill: rgb(255, 127, 14);" cx="536.0062366404196" cy="559.2469855925502"/><circle r="2.9902092550177377" style="fill: rgb(44, 160, 44);" cx="615.5066457211453" cy="319.1602133163492"/><circle r="12.6389462538037" style="fill: rgb(31, 119, 180);" cx="668.2998207325672" cy="386.80854873033866"/><circle r="3.755101427034089" style="fill: rgb(255, 127, 14);" cx="599.9621813819892" cy="476.3230452167207"/><circle r="10.787242157068963" style="fill: rgb(44, 160, 44);" cx="665.7660607362918" cy="561.5895232813903"/><circle r="7.279508493746306" style="fill: rgb(31, 119, 180);" cx="586.6637556577335" cy="483.0814557777224"/><circle r="6.421083809014359" style="fill: rgb(255, 127, 14);" cx="477.2848743471182" cy="463.5647603442408"/><circle r="11.163042442168113" style="fill: rgb(44, 160, 44);" cx="537.5294625075409" cy="470.9611813051123"/><circle r="3.3874652424627794" style="fill: rgb(31, 119, 180);" cx="518.5178050734718" cy="453.422017378708"/><circle r="8.358379386037633" style="fill: rgb(255, 127, 14);" cx="448.23301300133176" cy="381.2087745405386"/><circle r="11.930589612013712" style="fill: rgb(44, 160, 44);" cx="683.2264738277079" cy="426.2932859698025"/><circle r="10.029058928850175" style="fill: rgb(31, 119, 180);" cx="564.2904200687693" cy="438.4483880255669"/><circle r="3.204485482330351" style="fill: rgb(255, 127, 14);" cx="591.4270518827852" cy="446.166262472817"/><circle r="12.911937740805707" style="fill: rgb(44, 160, 44);" cx="565.2277996965008" cy="283.1511855008055"/><circle r="8.105523753349251" style="fill: rgb(31, 119, 180);" cx="650.9051747310784" cy="579.0031041356907"/><circle r="8.079324606186635" style="fill: rgb(255, 127, 14);" cx="495.9862883523131" cy="338.7475989073253"/><circle r="7.053073511880786" style="fill: rgb(44, 160, 44);" cx="486.75441637790607" cy="402.4940213283688"/><circle r="9.191802667826558" style="fill: rgb(31, 119, 180);" cx="472.65255488883355" cy="444.55109913501644"/><circle r="6.513652191962681" style="fill: rgb(255, 127, 14);" cx="551.7801147479305" cy="454.62092295889175"/><circle r="12.55567564118719" style="fill: rgb(44, 160, 44);" cx="470.06408833181865" cy="418.9491129382606"/><circle r="12.489042811538795" style="fill: rgb(31, 119, 180);" cx="616.4581856315363" cy="430.46955727864787"/><circle r="6.952924739752241" style="fill: rgb(255, 127, 14);" cx="623.3173585718031" cy="353.6149894996633"/><circle r="11.442404980494736" style="fill: rgb(44, 160, 44);" cx="496.04395981123406" cy="452.1417746291872"/><circle r="12.20819207163461" style="fill: rgb(31, 119, 180);" cx="664.1669867246653" cy="323.2685573129215"/><circle r="13.772199516657311" style="fill: rgb(255, 127, 14);" cx="464.2130105676922" cy="527.552197327653"/><circle r="13.237259581913458" style="fill: rgb(44, 160, 44);" cx="602.8089602612201" cy="501.02049251159025"/><circle r="11.2643425235187" style="fill: rgb(31, 119, 180);" cx="566.8947278124491" cy="413.1986929971422"/><circle r="10.165364527086698" style="fill: rgb(255, 127, 14);" cx="496.35291242254334" cy="423.947313210883"/><circle r="6.736216149824029" style="fill: rgb(44, 160, 44);" cx="687.7498444069513" cy="373.89319360030385"/><circle r="13.287408210159885" style="fill: rgb(31, 119, 180);" cx="601.691417003142" cy="404.2105640196993"/><circle r="7.091769658126957" style="fill: rgb(255, 127, 14);" cx="655.2140438165977" cy="505.5887568941982"/><circle r="10.758087658040248" style="fill: rgb(44, 160, 44);" cx="534.5076489878187" cy="341.41075719149575"/><circle r="4.181561877649803" style="fill: rgb(31, 119, 180);" cx="714.6053051750113" cy="468.12584594041067"/><circle r="3.587714255867395" style="fill: rgb(255, 127, 14);" cx="655.2592418261854" cy="529.7037024033299"/><circle r="11.149848649673267" style="fill: rgb(44, 160, 44);" cx="466.6798004689725" cy="366.6093187229518"/><circle r="7.649677185833966" style="fill: rgb(31, 119, 180);" cx="650.1760670561736" cy="472.8979298704897"/><circle r="13.599784803166864" style="fill: rgb(255, 127, 14);" cx="511.0731668350046" cy="400.4267387950931"/><circle r="10.589423497036144" style="fill: rgb(44, 160, 44);" cx="535.8435233778978" cy="533.3183445807607"/><circle r="8.22954669230598" style="fill: rgb(31, 119, 180);" cx="651.5113414306286" cy="345.72838325621103"/></svg>