<svg width="500" height="500" xmlns="http://www.w3.org/2000/svg" version="1.1"><g><path d="M363.1646952897027,405.6156965L367.07866312014005,437.753721L369.1901457983578,451.623816L371.2089288640737,454.3301755L376.9345882676678,454.3301755L425.04718488193106,407.85277964211195L421.7097232259421,405.61569649999996Z" style="fill: rgb(191, 105, 105); stroke: rgb(255, 255, 255);"></path><path d="M0,35.323998140469854L152.7757367978362,174.48090088870978L211.6612218556014,194.80886986207742L352.9945134354405,190.67160301535532L442.38419022738015,177.07922226780065L500,163.00963666105164L500,0L0,0Z" style="fill: rgb(191, 105, 105); stroke: rgb(255, 255, 255);"></path><path d="M376.9345882676678,454.3301755L408.0177528843489,464.539268229609L456.7866365965768,436.9222529801576L460.1365922260836,426.1587001075784L452.22519597144236,419.4959970965309L425.04718488193106,407.85277964211195Z" style="fill: rgb(191, 105, 105); stroke: rgb(255, 255, 255);"></path><path d="M389.684480589948,500L365.18080032009146,476.3291252598988L339.3781349613845,492.626706907833L338.39037308738716,500Z" style="fill: rgb(191, 105, 105); stroke: rgb(255, 255, 255);"></path><path d="M322.34933777835545,459.186223067339L333.6899285028043,485.79161L339.3781349613845,492.626706907833L365.18080032009146,476.3291252598988L371.2089288640737,454.3301755L369.1901457983578,451.623816L324.07620683234484,451.623816Z" style="fill: rgb(191, 105, 105); stroke: rgb(255, 255, 255);"></path><path d="M211.6612218556014,194.80886986207742L267.7057124873452,326.29102355841616L281.22405601191036,342.2911129443795L363.1646952897027,405.6156965L421.7097232259421,405.61569649999996L352.9945134354405,190.67160301535532Z" style="fill: rgb(191, 105, 105); stroke: rgb(255, 255, 255);"></path><path d="M338.39037308738716,500L339.3781349613845,492.626706907833L333.6899285028043,485.79161L289.32148546088047,485.79161L286.2933102347172,500Z" style="fill: rgb(191, 105, 105); stroke: rgb(255, 255, 255);"></path><path d="M365.18080032009146,476.3291252598988L389.684480589948,500L402.25958246472027,500L408.0177528843489,464.539268229609L376.9345882676678,454.3301755L371.2089288640737,454.3301755Z" style="fill: rgb(191, 105, 105); stroke: rgb(255, 255, 255);"></path><path d="M237.73529793765206,500L240.28967697910076,479.0257105L235.44471526893494,476.6855622960503L216.0092369320631,491.19346030108466L214.5792169109895,500Z" style="fill: rgb(191, 105, 105); stroke: rgb(255, 255, 255);"></path><path d="M288.30967792482886,474.7141915302168L289.32148546088047,485.79161L333.6899285028043,485.79161L322.34933777835545,459.186223067339Z" style="fill: rgb(191, 105, 105); stroke: rgb(255, 255, 255);"></path><path d="M247.26022266100367,500L254.25596554804667,483.5877641151872L252.5891800844144,479.02571049999995L240.28967697910076,479.0257105L237.73529793765206,500Z" style="fill: rgb(191, 105, 105); stroke: rgb(255, 255, 255);"></path><path d="M442.38419022738015,177.07922226780065L452.22519597144236,419.4959970965309L460.1365922260836,426.1587001075784L500,414.11000563093563L500,163.00963666105164Z" style="fill: rgb(191, 105, 105); stroke: rgb(255, 255, 255);"></path><path d="M117.19003303989452,395.0078212931257L120.83851136900589,408.22461285737637L203.90117095961514,462.787551L230.36695726824823,462.787551L262.90558900610506,418.2578322353801L267.7057124873452,326.29102355841616L211.6612218556014,194.80886986207742L152.7757367978362,174.48090088870978Z" style="fill: rgb(191, 105, 105); stroke: rgb(255, 255, 255);"></path><path d="M319.00864829060225,437.753721L324.07620683234484,451.623816L369.1901457983578,451.623816L367.07866312014005,437.753721Z" style="fill: rgb(191, 105, 105); stroke: rgb(255, 255, 255);"></path><path d="M252.5891800844144,479.02571049999995L254.25596554804667,483.5877641151872L273.24441223612354,500L286.2933102347172,500L289.32148546088047,485.79161L288.30967792482886,474.7141915302168L270.77198661406965,454.1422011398653Z" style="fill: rgb(191, 105, 105); stroke: rgb(255, 255, 255);"></path><path d="M456.7866365965768,436.9222529801576L463.3712064359995,500L500,500L500,414.11000563093563L460.1365922260836,426.1587001075784Z" style="fill: rgb(191, 105, 105); stroke: rgb(255, 255, 255);"></path><path d="M262.90558900610506,418.2578322353801L270.77198661406965,454.1422011398653L288.30967792482886,474.7141915302168L322.34933777835545,459.186223067339L324.07620683234484,451.623816L319.00864829060225,437.753721L281.22405601191036,342.2911129443795L267.7057124873452,326.29102355841616Z" style="fill: rgb(191, 105, 105); stroke: rgb(255, 255, 255);"></path><path d="M352.9945134354405,190.67160301535532L421.7097232259421,405.61569649999996L425.04718488193106,407.85277964211195L452.22519597144236,419.4959970965309L442.38419022738015,177.07922226780065Z" style="fill: rgb(191, 105, 105); stroke: rgb(255, 255, 255);"></path><path d="M0,474.5334737200691L117.19003303989452,395.0078212931257L152.7757367978362,174.48090088870978L0,35.323998140469854Z" style="fill: rgb(191, 105, 105); stroke: rgb(255, 255, 255);"></path><path d="M230.36695726824823,462.787551L235.44471526893494,476.6855622960503L240.28967697910076,479.0257105L252.5891800844144,479.02571049999995L270.77198661406965,454.1422011398653L262.90558900610506,418.2578322353801Z" style="fill: rgb(191, 105, 105); stroke: rgb(255, 255, 255);"></path><path d="M203.90117095961514,462.787551L216.0092369320631,491.19346030108466L235.44471526893494,476.6855622960503L230.36695726824823,462.787551Z" style="fill: rgb(191, 105, 105); stroke: rgb(255, 255, 255);"></path><path d="M281.22405601191036,342.2911129443795L319.00864829060225,437.753721L367.07866312014005,437.753721L363.1646952897027,405.6156965Z" style="fill: rgb(191, 105, 105); stroke: rgb(255, 255, 255);"></path><path d="M463.3712064359995,500L456.7866365965768,436.9222529801576L408.0177528843489,464.539268229609L402.25958246472027,500Z" style="fill: rgb(191, 105, 105); stroke: rgb(255, 255, 255);"></path><path d="M273.24441223612354,500L254.25596554804667,483.5877641151872L247.26022266100367,500Z" style="fill: rgb(191, 105, 105); stroke: rgb(255, 255, 255);"></path><path d="M120.83851136900589,408.22461285737637L128.57641761455795,500L214.5792169109895,500L216.0092369320631,491.19346030108466L203.90117095961514,462.787551Z" style="fill: rgb(191, 105, 105); stroke: rgb(255, 255, 255);"></path><path d="M128.57641761455795,500L120.83851136900589,408.22461285737637L117.19003303989452,395.0078212931257L0,474.5334737200691L0,500Z" style="fill: rgb(191, 105, 105); stroke: rgb(255, 255, 255);"></path></g></svg>