<svg xmlns="http://www.w3.org/2000/svg" width="8.36in" height="10.76in" viewBox="0 0 745.6 918.72">
<title>BUTTERFLY</title>
<polygon points="425.75 5.38 4.58 406.75 355.23 913.02 741.18 468.32 425.75 5.38" fill="#fff" stroke="#231f20" stroke-miterlimit="10" stroke-width="7"/>
<polygon points="418.43 68.25 55.6 414.01 357.68 850.15 690.16 467.06 418.43 68.25" fill="#fff" stroke="#231f20" stroke-miterlimit="10" stroke-width="7"/>
<polygon points="397.83 442.3 453.8 387.55 441.91 438.15 423.63 478.84 393.47 509.97 397.83 442.3" fill="#fff"/>
<polygon points="431.36 471.29 447.95 421.24 459.12 382.93 535.43 327.94 540.43 327.94 510.83 431.41 467.52 448.76 431.36 471.29" fill="#fff"/>
<polygon points="397.83 505.47 431.36 471.29 499.48 433.34 506.61 435.69 451.02 519.96 404.61 509.71 397.83 505.47" fill="#fff"/>
<polygon points="558.19 326.61 540.43 327.94 506.61 435.69 451.02 519.96 485.9 517.05 500.4 511.5 527.75 481.95 562.16 396.13 568.29 344.79 558.19 326.61" fill="#fff"/>
<polygon points="364.26 626.3 354.36 587.03 361.48 468.25 376.87 402.76 385.6 392.49 394.31 407.12 392.4 515.4 380.53 592.47 371.86 621.61 364.26 626.3" fill="#fff"/>
<polygon points="395.75 508.34 393.47 529.42 410.48 543.99 428.13 551.87 437.71 547.9 441.63 534.44 435.61 518.02 406.99 510.74 395.75 508.34" fill="#fff"/>
<polygon points="440.68 520.69 474.8 520.69 483.85 553.15 478.77 582.39 467.52 592.92 453.8 567.98 437.71 547.9 441.91 532.1 440.68 520.69" fill="#fff"/>
<polygon points="393.47 529.42 387.17 567.11 426.38 586.32 453.8 595.04 467.52 592.92 449.19 562.23 435.83 549.24 428.13 551.87 406.11 540.46 393.47 529.42" fill="#fff"/>
<polygon points="384.92 580.98 418.94 619.64 444.83 635.9 460.78 636.4 498.25 611.9 522.21 587.14 526.19 575.69 514.43 553.15 489.12 516.45 474.8 520.69 482.22 555.43 478.77 582.39 462.47 595.04 420.64 586.32 387.17 564.24 384.92 580.98" fill="#fff"/>
<polygon points="352.92 509.82 336.1 481.95 322.38 442.72 314.58 387.55 326.18 399.62 362.88 446.38 358.9 488.1 356.29 515.16 352.92 509.82" fill="#fff"/>
<polygon points="324.75 469.66 290.43 440.85 256.76 423.03 248.24 398.01 242.72 353.9 240.3 324.25 242.23 313.32 260.98 326.61 302.85 369.56 315.47 384.04 316.06 412.1 324.73 451.35 329.49 469.66 331.91 476.65 324.75 469.66" fill="#fff"/>
<polygon points="236.79 312.57 219.18 312.57 209.63 327.92 205.97 352.21 213.67 417.82 228.64 464.53 240.3 490.7 253.36 502.07 272.82 511.67 290.42 515.58 301.75 516.45 288.31 496.65 266.52 455.03 255.29 417.6 245.82 377.53 241.64 351.11 240.35 317.21 236.79 312.57" fill="#fff"/>
<polygon points="350.71 513.47 331.91 476.65 312.97 457.46 270.26 428.29 256.76 423.03 264.33 447.76 288.31 496.65 303.74 516.45 333.72 515.4 350.71 513.47" fill="#fff"/>
<polygon points="310.77 519.96 306.8 535.75 310.13 547.9 323.1 551.87 343.69 542.17 355.04 534.44 355.04 511.18 329.27 516.45 314.53 516.07 310.77 519.96" fill="#fff"/>
<polygon points="275.71 516.45 260.81 556.19 262.84 573.69 270.26 587.8 278.63 579.21 290.42 564.24 301.75 551.38 310.13 547.9 308.69 528.23 311.21 516.45 295.36 516.45 275.71 516.45" fill="#fff"/>
<polygon points="352.92 538.04 352.92 573.49 326.38 582.67 295.14 590.9 280.83 590.9 272.82 586.32 278.41 576.42 292.72 558.41 304.89 550.08 312.87 549.79 323.1 551.87 338.73 545.46 348.86 538.04 352.92 538.04" fill="#fff"/>
<polygon id="poly" points="276.07 508.34 258.14 509.97 230.7 539.43 217.09 558.41 220.11 573.96 233.71 596.39 259.47 624.57 275.14 631.5 294.48 632.89 321.33 617.3 343.29 598.97 354.36 587.03 352.92 573.49 311.21 588.46 286.11 590.9 267.62 582.96 260.68 567.11 260.81 549.24 266.32 533.16 272.82 521.79 277.31 514.26 276.07 508.34" fill="#fff"/>
<ellipse id="ellipse" cx="376.92" cy="332.39" rx="116.32" ry="18.31" transform="translate(10.57 854.13) rotate(-84.89)" fill="none" stroke="#000" stroke-miterlimit="10" stroke-width="7.38"/>
<path d="M388.7,214.63l-11.6-51.75c-1-4.63-8.15-2.67-7.11,2l11.59,51.75c1,4.63,8.16,2.67,7.12-2Z" transform="translate(-1.69 175.95)"/>
<path d="M396.29,221.16q7.56-19.56,13.56-39.64c1.37-4.56-5.75-6.51-7.11-2q-6,20.08-13.56,39.65c-1.71,4.43,5.42,6.35,7.11,2Z" transform="translate(-1.69 175.95)"/>
<path d="M369.13,270.65c-19.84-30.11-42.57-58.4-66.84-85-11.81-13-24-25.6-36.94-37.49C254,137.66,239,127,222.84,132.92s-17,25.14-17.53,39.66c-.75,19.81,1.83,39.63,5.92,59,4.23,20.1,10,39.89,16,59.52,4.88,16,12.62,29.24,26.73,38.75,30.22,20.36,70.12,14.89,104.21,10.68,4.65-.58,4.7-8,0-7.38-27.79,3.44-59.21,8.13-86.06-2.17-14.18-5.44-26.72-15.23-33.22-29.19-3.73-8-5.83-16.88-8.32-25.35-2.64-9-5.21-18-7.56-27.05-4.65-18-8.49-36.28-9.87-54.84a192.32,192.32,0,0,1-.2-26.73c.5-7.67.79-17.17,5.91-23.41,11.79-14.36,31.56,0,41.28,8.94,11.62,10.72,22.69,22,33.41,33.65,25.22,27.29,48.76,56.35,69.22,87.39,2.61,3.95,9,.26,6.37-3.72Z" transform="translate(-1.69 175.95)"/>
<path d="M259.76,331.27c-7.78,7.35-15.29,15-22.87,22.55-6.66,6.64-14.09,13.15-18.47,21.63-3.87,7.48-4.41,15.53-.52,23.12,4.62,9,11.65,17.34,17.82,25.33,10.55,13.66,22.39,29.69,39.64,35.05,18.88,5.88,36.93-5.2,51.65-15.93,11.49-8.37,24-18.38,32.22-30.08,2.74-3.89-3.66-7.58-6.37-3.72-6.61,9.38-16.7,17.22-25.57,24.35-11.47,9.23-26.31,20.07-41.7,19.67-16.83-.43-28.93-14.94-38.67-27q-8.65-10.69-16.54-22c-5.38-7.69-10.4-14.91-5.94-24.39,4-8.54,11.76-14.94,18.31-21.49,7.37-7.35,14.67-14.76,22.23-21.91,3.46-3.27-1.77-8.48-5.22-5.21Z" transform="translate(-1.69 175.95)"/>
<path d="M238.3,136.62c.42,55.95,12.22,112.29,36.41,162.87a308.39,308.39,0,0,0,24,41.58c2.67,3.88,9.07.2,6.37-3.73C265,279,246.21,207,245.68,136.62c0-4.75-7.42-4.76-7.38,0Z" transform="translate(-1.69 175.95)"/>
<path d="M357.22,331.27C343.66,314,335.17,293,329.28,272a245.05,245.05,0,0,1-9.38-65c0-4.75-7.4-4.76-7.38,0a253.64,253.64,0,0,0,10.07,68.48c6.25,21.78,15.35,43.11,29.41,61,2.93,3.73,8.12-1.52,5.22-5.21Z" transform="translate(-1.69 175.95)"/>
<path d="M356.5,332c-10.32-17.8-21.13-35.81-36.33-49.91-17.42-16.15-38-28.19-58.48-40-4.12-2.38-7.84,4-3.72,6.37,19.91,11.5,40,23.14,57,38.85,14.76,13.67,25.17,31.14,35.18,48.42,2.38,4.1,8.76.39,6.37-3.73Z" transform="translate(-1.69 175.95)"/>
<path d="M352.75,392.87c-10.94,5.55-22.69,9.57-34.43,13.05-11.21,3.33-24.15,7.44-35.84,4.37-13.5-3.56-17.11-17.67-16.3-30.05a71.67,71.67,0,0,1,14.64-38.19c2.87-3.7-2.31-9-5.21-5.21a80.09,80.09,0,0,0-16.8,43.4c-.85,13.07,2.9,28.12,15.36,34.68s27.5,3.23,40.35-.25c14.32-3.87,28.7-8.71,42-15.43,4.24-2.15.51-8.52-3.72-6.37Z" transform="translate(-1.69 175.95)"/>
<path d="M354.87,355.3c-8.11,5.47-16.55,12.86-25.91,15.89-5.44,1.75-13.61,1.51-16.59-4.4-3.37-6.67,2.81-15.85,4.85-22.13,1.47-4.53-5.65-6.47-7.11-2-2.68,8.26-8.26,16.86-5,25.78,2.44,6.72,9.37,10.45,16.19,11,13.93,1.17,26.44-10.51,37.31-17.84,3.92-2.64.23-9-3.72-6.37Z" transform="translate(-1.69 175.95)"/>
<path d="M307.85,368.77a115.83,115.83,0,0,0-36.53,39.73c-2.31,4.15,4.06,7.88,6.37,3.72a107.75,107.75,0,0,1,33.88-37.08c3.91-2.65.23-9-3.72-6.37Z" transform="translate(-1.69 175.95)"/>
<path d="M401.92,269.19c22.15-24.64,46.51-47.33,72-68.48,12.6-10.46,25.54-20.54,38.89-30,11.93-8.49,27.73-21.55,43.34-15.25,8.46,3.42,10.56,11.69,10.56,20.07a151.47,151.47,0,0,1-2.58,26.45c-3,16.95-8.23,33.44-14.45,49.46-6.49,16.72-14.08,33-21.73,49.21-3.64,7.7-7.49,15.37-13.53,21.5a57,57,0,0,1-18.15,12.14c-31,13.29-67.12,2.11-97.85-6.47-4.58-1.28-6.53,5.83-2,7.11,29.77,8.32,63.52,18.36,94.21,9.18,15.1-4.52,28.54-13.47,37-27,5.09-8.16,8.81-17.23,12.84-25.94s7.85-17.22,11.52-25.94c7.49-17.84,14.08-36.15,18-55.12a190.82,190.82,0,0,0,3.8-27.76c.49-8.06.68-16.87-3.5-24.11-8.1-14-26.64-13.56-39.6-7.61-8,3.67-15.18,9.07-22.31,14.16S494.47,175,487.64,180.28c-32.53,25.23-63.4,53.06-90.94,83.69-3.17,3.53,2,8.76,5.22,5.22Z" transform="translate(-1.69 175.95)"/>
<path d="M490,345.29c5.84,7.46,11.42,15.13,17.05,22.75,5.14,7,11,13.78,14.67,21.71,1.93,4.21,3.2,9,2,13.63-1.26,4.87-5.1,8.5-8.44,12.05q-9.45,10-19.55,19.41c-12.14,11.25-27.47,25.47-45.49,22.18-14.56-2.66-26.59-14.7-36.36-25.07-8.57-9.1-18.44-19.1-24.09-30.37-2.12-4.24-8.49-.51-6.37,3.73,5.84,11.65,16.07,22.06,24.9,31.49,10.71,11.43,24,24.3,40,27.33,19.39,3.69,35.74-8.7,49.28-21q11.91-10.8,22.93-22.51c6.33-6.72,11.89-13.57,10.94-23.36-1.06-11-8.43-20.05-14.77-28.57-7.12-9.58-14.1-19.25-21.45-28.65-2.93-3.73-8.12,1.52-5.22,5.22Z" transform="translate(-1.69 175.95)"/><path d="M455.32,344.68c38.36-41.05,64.81-92.46,80.09-146.3a401.15,401.15,0,0,0,10.27-46.74c.73-4.64-6.38-6.64-7.12-2-11,69.51-40.07,138-88.46,189.78-3.24,3.47,2,8.69,5.22,5.22Z" transform="translate(-1.69 175.95)"/>
<path d="M454.69,208.2a246.22,246.22,0,0,1-19.18,63.69c-9.05,20-20.68,39.32-36.73,54.45-3.46,3.27,1.76,8.48,5.22,5.22,16.48-15.54,28.57-35.44,37.88-55.95a252,252,0,0,0,19.92-65.45c.72-4.64-6.38-6.64-7.11-2Z" transform="translate(-1.69 175.95)"/>
<path d="M405.27,331.75c12.29-15.36,25-31.1,41.37-42.32,19.25-13.23,41-21.92,62.64-30.41,4.37-1.72,2.47-8.85-2-7.12-22.21,8.72-44.64,17.58-64.4,31.16-16.93,11.62-30.13,27.56-42.86,43.48-2.94,3.67,2.25,8.92,5.21,5.21Z" transform="translate(-1.69 175.95)"/>
<path d="M390.27,393.62c11.84,8.44,25.08,15.17,38.37,21,12.52,5.51,27.51,11.47,41.09,6.09,13-5.14,18.46-19.19,19.53-32.21a79.51,79.51,0,0,0-10-44.54c-2.32-4.14-8.69-.43-6.37,3.73A72.77,72.77,0,0,1,482,386.94c-.72,12.64-6.44,26.81-20.68,28.33-12.32,1.32-25-5-35.8-10.14S403.82,394.26,394,387.25c-3.87-2.75-7.56,3.64-3.72,6.37Z" transform="translate(-1.69 175.95)"/>
<path d="M391.48,355.14c4,3.59,8.29,6.88,12.33,10.44,6.41,5.66,13,11.9,21.85,13.24,7,1.07,15-1.15,19-7.38,5.49-8.49.79-18.75-.69-27.68-.77-4.67-7.88-2.69-7.11,2,1.09,6.6,6.08,16.9.86,22.74-4.84,5.41-13.32,3.26-18.62,0-4.7-2.87-8.56-6.87-12.75-10.41-3.22-2.71-6.51-5.35-9.65-8.15-3.54-3.16-8.77,2-5.22,5.21Z" transform="translate(-1.69 175.95)"/>
<path id="path" d="M437.51,375.9a108,108,0,0,1,28.15,41.59c1.64,4.41,8.78,2.5,7.11-2a115.82,115.82,0,0,0-30-44.85c-3.49-3.21-8.72,2-5.22,5.22Z" transform="translate(-1.69 175.95)"/><use xlink:href="#poly" /></svg>
