<?xml version="1.0" encoding="UTF-8" standalone="no"?>
<svg
   xmlns:dc="http://purl.org/dc/elements/1.1/"
   xmlns:cc="http://creativecommons.org/ns#"
   xmlns:rdf="http://www.w3.org/1999/02/22-rdf-syntax-ns#"
   xmlns:svg="http://www.w3.org/2000/svg"
   xmlns="http://www.w3.org/2000/svg"
   viewBox="0 0 1056 1030.7747"
   height="1030.7747"
   width="1056"
   xml:space="preserve"
   id="svg2"
   version="1.1"><metadata
     id="metadata8"><rdf:RDF><cc:Work
         rdf:about=""><dc:format>image/svg+xml</dc:format><dc:type
           rdf:resource="http://purl.org/dc/dcmitype/StillImage" /></cc:Work></rdf:RDF></metadata><defs
     id="defs6"><clipPath
       id="clipPath34"
       clipPathUnits="userSpaceOnUse"><path
         id="path32"
         d="M 0,0 H 792 V 773.081 H 0 Z" /></clipPath></defs><g
     transform="matrix(1.3333333,0,0,-1.3333333,0,1030.7747)"
     id="g10"><g
       transform="translate(382.0205,732.8091)"
       id="g12"><path
         id="path14"
         style="fill:#ffffff;fill-opacity:1;fill-rule:nonzero;stroke:none"
         d="m 0,0 -265.223,-230.036 81.72,-468.732 h 418.076 l 47.374,465.285 z" /></g><g
       transform="translate(382.0205,732.8091)"
       id="g16"><path
         id="path18"
         style="fill:none;stroke:#000000;stroke-width:5.48999977;stroke-linecap:butt;stroke-linejoin:miter;stroke-miterlimit:10;stroke-dasharray:none;stroke-opacity:1"
         d="m 0,0 -265.223,-230.036 81.72,-468.732 h 418.076 l 47.374,465.285 z" /></g><g
       transform="translate(384.3506,694.0337)"
       id="g20"><path
         id="path22"
         style="fill:#ffffff;fill-opacity:1;fill-rule:nonzero;stroke:none"
         d="m 0,0 -241.553,-209.505 74.427,-426.9 h 380.764 l 43.146,423.759 z" /></g><g
       transform="translate(384.3506,694.0337)"
       id="g24"><path
         id="path26"
         style="fill:none;stroke:#000000;stroke-width:5;stroke-linecap:butt;stroke-linejoin:miter;stroke-miterlimit:10;stroke-dasharray:none;stroke-opacity:1"
         d="m 0,0 -241.553,-209.505 74.427,-426.9 h 380.764 l 43.146,423.759 z" /></g><g
       id="g28"><g
         clip-path="url(#clipPath34)"
         id="g30"><g
           transform="translate(332.5913,314.6396)"
           id="g36"><path
             id="path38"
             style="fill:#ffffff;fill-opacity:1;fill-rule:nonzero;stroke:none"
             d="m 0,0 c -11.891,0.015 -23.121,6.194 -31.591,14.541 -8.47,8.347 -14.568,18.751 -20.395,29.117 -7.681,13.668 -15.146,27.696 -18.805,42.942 v 1.838 c 2.873,1.424 6.121,1.978 9.214,1.191 4.394,-1.115 7.749,-4.608 10.575,-8.152 4.175,-5.237 7.765,-10.938 10.682,-16.964 4.537,-9.374 7.437,-19.497 12.323,-28.695 4.886,-9.196 14.414,-18.044 24.43,-20.899" /></g><g
           transform="translate(332.5913,314.6396)"
           id="g40"><path
             id="path42"
             style="fill:#ffffff;fill-opacity:1;fill-rule:nonzero;stroke:none"
             d="m 0,0 c -11.891,0.015 -23.121,6.194 -31.591,14.541 -8.47,8.347 -14.568,18.751 -20.395,29.117 -7.681,13.668 -15.146,27.696 -18.805,42.942 v 1.838 c -2.057,-1.021 -3.922,-2.489 -5.399,-4.232 -3.54,-4.18 -5.156,-9.679 -5.834,-15.113 -3.052,-24.435 11.425,-48.282 30.577,-63.76 8.197,-6.623 17.609,-12.229 28.031,-13.781 8.642,-1.286 17.694,0.357 25.331,4.602" /></g><g
           transform="translate(426.8418,257.8564)"
           id="g44"><path
             id="path46"
             style="fill:#ffffff;fill-opacity:1;fill-rule:nonzero;stroke:none"
             d="m 0,0 c -1.61,49.66 -5.302,99.251 -11.06,148.602 -2.004,17.183 -4.273,34.404 -8.866,51.083 -4.739,17.211 -13.181,35.74 -22.565,50.926 l -8.174,0.966 c 11.553,0.153 23.489,0.236 34.139,-4.244 12.478,-5.25 21.732,-16.234 28.273,-28.087 16.707,-30.274 26.588,-63.311 27.588,-97.875 l 0.263,-30.69 C 39.923,62.956 37.627,29.545 33.511,2.126" /></g><g
           transform="translate(384.3506,508.4678)"
           id="g48"><path
             id="path50"
             style="fill:#ffffff;fill-opacity:1;fill-rule:nonzero;stroke:none"
             d="m 0,0 c 9.384,-15.186 17.826,-33.715 22.565,-50.926 4.593,-16.679 6.862,-33.9 8.867,-51.083 5.757,-49.351 9.449,-98.943 11.059,-148.602 l -39.896,0.784 c -34.43,71.07 -39.146,183.225 -34.43,247.61" /></g><g
           transform="translate(353.9014,468.5811)"
           id="g52"><path
             id="path54"
             style="fill:#ffffff;fill-opacity:1;fill-rule:nonzero;stroke:none"
             d="m 0,0 c -4.716,-64.384 6.519,-151.085 33.044,-209.94 l -29.294,0.556 c -12.395,28.511 -24.845,57.185 -32.32,87.36 -7.476,30.175 -6.887,78.479 1.07,108.531" /></g><g
           transform="translate(487.7422,491.335)"
           id="g56"><path
             id="path58"
             style="fill:#ffffff;fill-opacity:1;fill-rule:nonzero;stroke:none"
             d="m 0,0 c 7.053,-17.364 11.131,-35.932 12.005,-54.653 1.074,-23.028 -3.476,-47.813 -19.622,-64.268 -7.508,-7.652 -18.338,-13.261 -28.785,-10.857 l -1.557,2.069 c 0.278,1.775 0.78,3.504 1.586,5.11 1.61,3.212 4.577,5.874 8.118,6.483 13.556,6.163 23.807,20.179 25.317,34.993 1.511,14.813 -2.395,29.619 -6.97,43.789 -2.671,8.276 -5.625,16.849 -4.456,25.466 0.929,6.852 5.437,13.674 11.616,16.087" /></g><g
           transform="translate(487.7422,491.335)"
           id="g60"><path
             id="path62"
             style="fill:#ffffff;fill-opacity:1;fill-rule:nonzero;stroke:none"
             d="m 0,0 c 7.053,-17.364 11.131,-35.932 12.005,-54.653 1.074,-23.028 -3.476,-47.813 -19.622,-64.268 -7.508,-7.652 -18.338,-13.261 -28.785,-10.857 l -1.557,2.069 c -0.278,-1.775 -0.334,-3.598 -0.247,-5.392 0.169,-3.474 1.068,-7.278 3.918,-9.274 3.458,-2.421 8.176,-1.192 12.186,0.126 12.1,4.845 22.054,8.474 31.857,17.063 14.659,12.846 21.974,32.628 22.887,52.098 0.912,19.47 -3.991,38.774 -10.503,57.145 C 18.701,-6.247 12.612,4.908 2.327,5.131 0.546,5.169 -1.156,4.84 -2.748,4.219" /></g><g
           transform="translate(324.0239,497.1523)"
           id="g64"><path
             id="path66"
             style="fill:#ffffff;fill-opacity:1;fill-rule:nonzero;stroke:none"
             d="m 0,0 c -7.708,1.136 -15.858,-1.167 -21.83,-6.171 -6.559,-5.495 -9.882,-16.569 -3.59,-22.368 6.214,-5.728 16.138,-2.103 23.648,1.774 -6.619,-4.794 -11.196,-12.318 -12.41,-20.401 -0.729,-4.854 1.461,-11.499 6.348,-11.035 1.352,0.129 2.574,0.834 3.718,1.566 7.871,5.038 14.361,12.212 18.588,20.546 0.054,-4.9 0.564,-10.655 4.735,-13.227 4.43,-2.732 10.586,0.18 13.167,4.699 2.582,4.519 2.569,10.009 2.487,15.213 5.874,-0.58 11.942,1.087 16.696,4.587 4.261,3.137 7.585,8.688 5.67,13.622 -2.557,6.586 -11.588,6.984 -18.614,6.243 5.709,3.81 9.661,10.149 10.57,16.953 0.725,5.423 -1.223,11.984 -6.429,13.666 -6.664,2.151 -12.481,-4.8 -16.056,-10.821 -0.018,6.297 -0.7,13.79 -6.195,16.865 C 16.675,33.854 11.639,32.827 8.201,30.102 4.763,27.376 2.7,23.261 1.376,19.079 -0.782,12.26 -1.306,7.032 0,0" /></g><g
           transform="translate(345.2129,493.7065)"
           id="g68"><path
             id="path70"
             style="fill:#ffffff;fill-opacity:1;fill-rule:nonzero;stroke:none"
             d="m 0,0 c -5.882,-1.973 -10.54,-7.229 -11.793,-13.305 -0.292,-1.418 1.51,-2.439 2.38,-3.597 1.719,-2.288 3.508,-1.648 5.763,0.114 3.416,2.669 6.189,6.156 8.019,10.085 0.402,0.861 0.765,1.802 0.607,2.739 C 4.817,-3.028 0.931,0.189 0,0" /></g><g
           transform="translate(474.7139,128.6338)"
           id="g72"><path
             id="path74"
             style="fill:#ffffff;fill-opacity:1;fill-rule:nonzero;stroke:none"
             d="m 0,0 c -35.104,-15.629 -80.323,-17.616 -115.563,-2.291 l -0.72,0.311 c -15.103,44.117 -31.225,87.886 -48.35,131.259 l -0.195,0.534 c 64.323,-1.494 132.898,-3.311 196.713,4.898 C 22.406,89.843 11.961,45.178 0.56,0.759" /></g><g
           transform="translate(329.9722,207.0332)"
           id="g76"><path
             id="path78"
             style="fill:#ffffff;fill-opacity:1;fill-rule:nonzero;stroke:none"
             d="m 0,0 c 13.61,-9.243 23.457,-15.78 38.464,-22.521 l 0.783,0.745 c 10.208,5.769 19.764,13.52 28.426,21.423 4.765,-3.264 11.406,-6.893 16.17,-10.158 5.139,-3.52 10.407,-7.101 16.427,-8.706 12.169,8.193 24.151,16.662 35.935,25.401 9.076,-5.236 16.786,-10.496 24.758,-17.293 l 3.586,15.4 C 156.576,11.089 142.281,20.948 133.205,26.184 121.42,17.445 109.438,8.976 97.269,0.783 91.25,2.388 85.981,5.969 80.842,9.489 76.078,12.754 69.438,16.383 64.673,19.647 56.01,11.744 46.455,3.993 36.247,-1.776 L 35.463,-2.521 C 20.456,4.22 4.037,15.139 -9.573,24.382" /></g><g
           transform="translate(324.0239,499.6523)"
           id="g80"><path
             id="path82"
             style="fill:#000000;fill-opacity:1;fill-rule:nonzero;stroke:none"
             d="m 0,0 c -13.89,1.631 -31.268,-7.09 -31.266,-22.86 10e-4,-6.114 3.819,-11.489 9.807,-13.122 7.118,-1.942 14.708,1.41 20.948,4.559 -0.841,1.439 -1.682,2.878 -2.523,4.317 -5.871,-4.489 -10.317,-10.306 -12.529,-17.422 -1.63,-5.24 -2.221,-12.45 2.223,-16.609 4.86,-4.549 10.616,-0.36 14.808,2.927 6.345,4.974 11.415,11.238 15.163,18.359 -1.553,0.421 -3.106,0.842 -4.659,1.262 0.166,-7.903 3.085,-18.627 13.331,-16.521 10.853,2.23 12.175,14.08 12.058,23.206 l -2.5,-2.5 c 10.202,-0.653 25.064,5.149 25.384,17.285 0.304,11.545 -13.009,12.974 -21.632,12.167 0.42,-1.553 0.841,-3.106 1.262,-4.659 8.813,6.297 16.114,19.83 9.632,30.276 -2.662,4.291 -7.646,6.372 -12.542,4.882 -5.624,-1.712 -9.511,-7.189 -12.426,-11.939 1.553,-0.42 3.106,-0.841 4.659,-1.262 -0.062,5.445 -0.395,11.695 -4.017,16.103 -3.816,4.644 -10.13,5.473 -15.446,2.987 C -2.272,25.819 -4.328,8.286 -2.411,-3.165 -1.88,-6.331 2.938,-4.988 2.411,-1.835 0.997,6.61 2.123,17.853 8.373,24.351 c 3.77,3.919 10.239,5.168 13.599,0.012 2.223,-3.412 2.181,-8.112 2.226,-12.017 0.028,-2.502 3.364,-3.372 4.658,-1.262 1.982,3.23 4.297,6.809 7.659,8.779 4.54,2.659 8.583,0.115 9.874,-4.606 2.124,-7.768 -2.911,-16.174 -9.038,-20.55 -1.797,-1.285 -1.456,-4.914 1.262,-4.659 5.638,0.528 17.245,1.054 16.543,-7.519 -0.744,-9.082 -12.913,-12.405 -20.295,-11.933 -1.338,0.085 -2.516,-1.215 -2.5,-2.5 0.075,-5.871 0.36,-13.749 -5.389,-17.231 -7.809,-4.73 -9.881,4.863 -10,10.546 -0.05,2.382 -3.465,3.53 -4.659,1.262 -2.331,-4.429 -5.121,-8.527 -8.598,-12.143 -2.154,-2.24 -9.812,-10.658 -13.52,-8.132 -3.536,2.409 -1.766,9.339 -0.692,12.47 1.877,5.471 5.402,10.203 9.986,13.709 2.507,1.916 0.425,5.805 -2.523,4.317 -4.531,-2.286 -9.933,-4.862 -15.162,-4.38 -6.263,0.577 -9.024,5.985 -7.684,11.706 C -23.232,-8.469 -10.466,-3.771 0,-5 3.189,-5.375 3.163,-0.372 0,0" /></g><g
           transform="translate(321.7793,443.5049)"
           id="g84"><path
             id="path86"
             style="fill:#000000;fill-opacity:1;fill-rule:nonzero;stroke:none"
             d="m 0,0 c -7.64,-29.588 -6.733,-61.318 -0.37,-91.061 7.023,-32.828 20.759,-63.857 34.083,-94.508 1.279,-2.944 5.588,-0.401 4.317,2.524 -12.933,29.754 -26.162,59.856 -33.218,91.66 -6.509,29.338 -7.54,60.818 0.009,90.056 C 5.626,1.789 0.805,3.118 0,0" /></g><g
           transform="translate(376.1768,506.9336)"
           id="g88"><path
             id="path90"
             style="fill:#000000;fill-opacity:1;fill-rule:nonzero;stroke:none"
             d="m 0,0 c 14.511,0.183 29.382,-0.014 41.636,-8.845 11.436,-8.241 18.342,-20.923 24.365,-33.328 12.978,-26.73 20.507,-55.812 21.499,-85.533 0.107,-3.209 5.108,-3.224 5,0 -1.062,31.822 -9.432,62.851 -23.762,91.247 C 62.497,-24.092 55.115,-12.125 43.531,-4.077 30.68,4.852 15.073,5.19 0,5 -3.215,4.959 -3.224,-0.041 0,0" /></g><g
           transform="translate(463.9395,348.5371)"
           id="g92"><path
             id="path94"
             style="fill:#000000;fill-opacity:1;fill-rule:nonzero;stroke:none"
             d="m 0,0 c 0.289,-29.349 -1.695,-58.856 -5.997,-87.891 -0.467,-3.147 4.351,-4.505 4.821,-1.329 C 3.192,-59.734 5.293,-29.808 5,0 4.968,3.216 -0.032,3.225 0,0" /></g><g
           transform="translate(466.3057,346.6758)"
           id="g96"><path
             id="path98"
             style="fill:#000000;fill-opacity:1;fill-rule:nonzero;stroke:none"
             d="m 0,0 c 11.7,4.673 23.37,9.271 32.959,17.705 9.425,8.29 15.937,19.461 19.693,31.359 8.512,26.95 2.559,57.192 -7.625,82.872 C 41.544,140.72 35.57,151.194 25.081,152.2 13.211,153.337 5.127,141.622 4.384,130.945 3.383,116.576 11.133,102.474 14.146,88.663 17.31,74.15 17.893,58.73 9.446,45.866 5.572,39.964 -0.196,34.146 -6.778,31.322 -12.708,28.778 -16.84,26.079 -18.577,19.371 -19.937,14.122 -19.919,6.805 -16.41,2.318 -12.298,-2.938 -5.599,-1.765 0,0 3.059,0.963 1.752,5.791 -1.329,4.82 -4.563,3.802 -9.064,2.118 -12.063,4.882 c -2.082,1.917 -2.304,5.888 -2.243,8.476 0.086,3.647 0.844,7.529 3.48,10.237 1.841,1.89 4.304,2.289 6.571,3.411 8.184,4.05 15.054,10.925 19.544,18.832 11.449,20.164 4.353,44.288 -2.212,64.824 -3.536,11.06 -7.844,28.003 4.954,35.121 11.711,6.512 19.652,-8.263 22.902,-17.096 C 49.476,105.473 55.325,79.486 49.131,54.979 46.148,43.175 40.482,31.965 31.736,23.385 22.447,14.271 10.541,9.563 -1.329,4.82 -4.281,3.642 -2.993,-1.196 0,0" /></g><g
           transform="translate(333.2446,312.9521)"
           id="g100"><path
             id="path102"
             style="fill:#000000;fill-opacity:1;fill-rule:nonzero;stroke:none"
             d="m 0,0 c -31.616,-16.651 -66.846,16.348 -77.044,44.799 -4.366,12.179 -8.038,39.239 8.922,43.927 9.59,2.649 16.409,-8.971 20.603,-15.785 4.731,-7.681 7.833,-16.048 11.18,-24.384 6.097,-15.192 14.987,-29.191 31.454,-34.362 3.077,-0.966 4.393,3.86 1.329,4.823 -21.48,6.745 -26.123,28.754 -34.474,46.783 -5.734,12.376 -18.514,35.69 -35.46,26.068 C -88.151,83.542 -87.146,61.054 -83.072,47.153 -78.137,30.318 -66.83,15.562 -53.215,4.735 -36.921,-8.222 -16.92,-14.558 2.523,-4.316 5.372,-2.816 2.848,1.5 0,0" /></g><g
           transform="translate(473.4521,130.792)"
           id="g104"><path
             id="path106"
             style="fill:#000000;fill-opacity:1;fill-rule:nonzero;stroke:none"
             d="m 0,0 c -28.779,-12.607 -62.252,-16.031 -92.893,-8.854 -3.437,0.804 -6.843,1.745 -10.201,2.833 -1.536,0.499 -3.065,1.028 -4.58,1.588 -1.26,0.466 -4.92,1.277 -5.725,2.297 -0.511,0.648 -1.048,4.01 -1.453,5.184 -0.749,2.173 -1.501,4.345 -2.255,6.516 -1.509,4.343 -3.028,8.683 -4.557,13.018 -6.005,17.034 -12.162,34.015 -18.471,50.939 -6.833,18.327 -14.305,36.433 -21.02,54.799 -0.804,-1.055 -1.608,-2.11 -2.411,-3.165 65.551,-1.524 131.503,-3.387 196.712,4.898 -0.803,1.054 -1.607,2.11 -2.411,3.165 C 21.243,88.351 10.799,43.689 -0.59,-0.734 c -0.8,-3.12 4.022,-4.45 4.82,-1.329 11.39,44.423 21.833,89.084 31.328,133.952 0.296,1.4 -0.69,3.382 -2.412,3.164 -65.209,-8.285 -131.161,-6.422 -196.712,-4.898 -1.524,0.035 -2.968,-1.641 -2.411,-3.165 13.147,-35.957 27.435,-71.463 40.147,-107.595 1.525,-4.337 3.041,-8.677 4.547,-13.021 0.861,-2.482 1.719,-4.966 2.573,-7.45 0.504,-1.468 0.808,-3.686 1.921,-4.831 1.406,-1.446 4.457,-2.076 6.279,-2.779 4.031,-1.553 8.15,-2.881 12.323,-3.999 15.707,-4.205 32.212,-5.527 48.413,-4.406 18.049,1.249 35.725,5.514 52.296,12.774 C 5.464,-3.028 2.922,1.28 0,0" /></g><g
           transform="translate(259.3901,400.5742)"
           id="g108"><path
             id="path110"
             style="fill:#000000;fill-opacity:1;fill-rule:nonzero;stroke:none"
             d="m 0,0 c 5.156,-20.606 16.127,-40.521 27.792,-58.146 10.434,-15.767 25.496,-29.799 45.409,-30.288 3.219,-0.079 3.217,4.921 0,5 -20.025,0.492 -34.074,16.26 -43.832,32.119 C 19.289,-34.934 9.518,-17.438 4.822,1.33 4.041,4.449 -0.782,3.127 0,0" /></g><g
           transform="translate(351.042,447.394)"
           id="g112"><path
             id="path114"
             style="fill:#000000;fill-opacity:1;fill-rule:nonzero;stroke:none"
             d="m 0,0 c -4.607,-65.016 7.111,-130.544 33.745,-190.015 1.312,-2.932 5.622,-0.392 4.317,2.523 C 11.792,-128.833 0.458,-64.095 5,0 5.228,3.211 0.227,3.197 0,0" /></g><g
           transform="translate(382.1919,507.2061)"
           id="g116"><path
             id="path118"
             style="fill:#000000;fill-opacity:1;fill-rule:nonzero;stroke:none"
             d="m 0,0 c 7.971,-13.029 14.656,-26.884 19.553,-41.361 5.351,-15.818 8.137,-32.366 10.262,-48.886 4.293,-33.38 7.271,-66.968 9.47,-100.546 1.276,-19.502 2.22,-39.023 2.865,-58.557 0.106,-3.209 5.106,-3.223 5,0 -1.158,35.094 -3.317,70.15 -6.526,105.116 -1.597,17.383 -3.398,34.756 -5.568,52.078 -2.026,16.178 -4.505,32.42 -9.349,48.028 C 20.629,-27.772 13.247,-12.072 4.317,2.524 2.641,5.264 -1.686,2.755 0,0" /></g><g
           transform="translate(450.6758,359.1465)"
           id="g120"><path
             id="path122"
             style="fill:#000000;fill-opacity:1;fill-rule:nonzero;stroke:none"
             d="m 0,0 c 27.074,-5.198 44.739,25.192 49.385,47.521 5.877,28.245 0.68,58.844 -9.906,85.332 -1.181,2.952 -6.019,1.664 -4.823,-1.329 C 44.205,107.634 49.301,80.647 45.639,54.96 44.019,43.594 40.467,32.347 34.007,22.775 26.904,12.252 14.847,2.226 1.329,4.822 -1.815,5.425 -3.162,0.607 0,0" /></g><g
           transform="translate(344.5479,496.1177)"
           id="g124"><path
             id="path126"
             style="fill:#000000;fill-opacity:1;fill-rule:nonzero;stroke:none"
             d="m 0,0 c -6.105,-2.251 -10.977,-6.911 -13.033,-13.163 -0.936,-2.849 -0.544,-4.596 1.449,-6.786 1.824,-2.005 3.609,-3.825 6.542,-3.156 5.526,1.262 11.268,9.094 12.858,14.211 1.284,4.13 -3.03,8.694 -7.151,8.983 -3.211,0.225 -3.197,-4.776 0,-5 0.059,-0.004 1.842,-1.385 2.055,-1.746 0.674,-1.143 -0.401,-2.386 -1.113,-3.587 -0.907,-1.53 -1.962,-2.953 -3.169,-4.26 -0.763,-0.827 -3.06,-3.595 -4.295,-3.62 -0.891,-0.017 -2.54,1.834 -2.692,2.488 -0.253,1.087 1.141,3.138 1.716,4.092 1.88,3.113 4.755,5.466 8.163,6.722 C 4.323,-3.718 3.029,1.116 0,0" /></g><g
           transform="translate(345.562,429.8354)"
           id="g128"><path
             id="path130"
             style="fill:#000000;fill-opacity:1;fill-rule:nonzero;stroke:none"
             d="m 0,0 c 4.396,-3.166 8.493,-6.72 12.895,-9.881 1.309,-0.94 2.559,1.227 1.262,2.158 C 9.755,-4.562 5.658,-1.007 1.262,2.159 -0.046,3.101 -1.295,0.933 0,0" /></g><g
           transform="translate(348.7456,417.1626)"
           id="g132"><path
             id="path134"
             style="fill:#000000;fill-opacity:1;fill-rule:nonzero;stroke:none"
             d="m 0,0 c 4.027,5.111 8.053,10.223 12.08,15.334 0.984,1.25 -0.773,3.031 -1.768,1.768 C 6.285,11.99 2.259,6.879 -1.768,1.768 -2.752,0.517 -0.995,-1.264 0,0" /></g><g
           transform="translate(345.9976,388.0962)"
           id="g136"><path
             id="path138"
             style="fill:#000000;fill-opacity:1;fill-rule:nonzero;stroke:none"
             d="m 0,0 c 4.188,-3.251 8.377,-6.501 12.565,-9.752 1.256,-0.975 3.038,0.782 1.768,1.767 C 10.145,-4.734 5.956,-1.483 1.768,1.768 0.512,2.742 -1.27,0.985 0,0" /></g><g
           transform="translate(350.3853,374.3564)"
           id="g140"><path
             id="path142"
             style="fill:#000000;fill-opacity:1;fill-rule:nonzero;stroke:none"
             d="M 0,0 C 3.765,4.354 7.289,8.896 10.575,13.625 11.495,14.949 9.329,16.2 8.416,14.887 5.251,10.333 1.858,5.963 -1.768,1.768 -2.815,0.556 -1.054,-1.22 0,0" /></g><g
           transform="translate(354.2842,341.7119)"
           id="g144"><path
             id="path146"
             style="fill:#000000;fill-opacity:1;fill-rule:nonzero;stroke:none"
             d="m 0,0 c 4.103,-2.152 8.206,-4.304 12.308,-6.456 1.423,-0.747 2.689,1.41 1.262,2.159 C 9.467,-2.146 5.365,0.007 1.262,2.159 -0.162,2.905 -1.427,0.749 0,0" /></g><g
           transform="translate(359.7837,328.1963)"
           id="g148"><path
             id="path150"
             style="fill:#000000;fill-opacity:1;fill-rule:nonzero;stroke:none"
             d="M 0,0 C 2.423,6.742 5.48,13.142 9.177,19.276 10.01,20.657 7.849,21.916 7.019,20.538 3.213,14.223 0.082,7.602 -2.411,0.665 -2.956,-0.853 -0.541,-1.505 0,0" /></g><g
           transform="translate(362.6143,296.9277)"
           id="g152"><path
             id="path154"
             style="fill:#000000;fill-opacity:1;fill-rule:nonzero;stroke:none"
             d="m 0,0 c 5.294,-1.226 10.587,-2.451 15.881,-3.677 1.566,-0.362 2.234,2.048 0.665,2.411 C 11.252,-0.04 5.958,1.186 0.665,2.411 -0.901,2.773 -1.569,0.363 0,0" /></g><g
           transform="translate(369.856,287.0303)"
           id="g156"><path
             id="path158"
             style="fill:#000000;fill-opacity:1;fill-rule:nonzero;stroke:none"
             d="M 0,0 C 2.191,5.53 4.381,11.061 6.572,16.591 7.165,18.087 4.748,18.736 4.162,17.256 1.971,11.726 -0.22,6.194 -2.411,0.664 -3.003,-0.832 -0.587,-1.479 0,0" /></g><g
           transform="translate(392.1743,472.2681)"
           id="g160"><path
             id="path162"
             style="fill:#000000;fill-opacity:1;fill-rule:nonzero;stroke:none"
             d="m 0,0 c 5.356,-1.386 10.78,-2.31 16.295,-2.731 1.605,-0.123 1.597,2.378 0,2.5 C 11,0.173 5.805,1.08 0.665,2.411 -0.894,2.814 -1.559,0.403 0,0" /></g><g
           transform="translate(404.041,481.7207)"
           id="g164"><path
             id="path166"
             style="fill:#000000;fill-opacity:1;fill-rule:nonzero;stroke:none"
             d="m 0,0 c -1.67,-6.267 -3.34,-12.533 -5.01,-18.799 -0.415,-1.556 1.996,-2.221 2.411,-0.665 C -0.93,-13.197 0.74,-6.931 2.41,-0.665 2.825,0.892 0.414,1.556 0,0" /></g><g
           transform="translate(403.0898,438.5933)"
           id="g168"><path
             id="path170"
             style="fill:#000000;fill-opacity:1;fill-rule:nonzero;stroke:none"
             d="m 0,0 c 5.384,-2.216 10.896,-3.96 16.575,-5.244 1.568,-0.354 2.237,2.056 0.665,2.411 C 11.562,-1.549 6.049,0.195 0.665,2.411 -0.822,3.022 -1.47,0.605 0,0" /></g><g
           transform="translate(408.7275,425.0972)"
           id="g172"><path
             id="path174"
             style="fill:#000000;fill-opacity:1;fill-rule:nonzero;stroke:none"
             d="M 0,0 C 2.727,6.511 6.18,12.608 10.301,18.334 11.242,19.642 9.075,20.892 8.143,19.596 3.89,13.687 0.4,7.378 -2.41,0.665 -3.031,-0.817 -0.612,-1.464 0,0" /></g><g
           transform="translate(406.8496,393.3604)"
           id="g176"><path
             id="path178"
             style="fill:#000000;fill-opacity:1;fill-rule:nonzero;stroke:none"
             d="m 0,0 c 5.615,-4.881 11.747,-8.986 18.422,-12.278 1.438,-0.709 2.706,1.446 1.262,2.159 C 13.199,-6.921 7.228,-2.978 1.768,1.768 0.558,2.819 -1.218,1.058 0,0" /></g><g
           transform="translate(422.4199,397.1558)"
           id="g180"><path
             id="path182"
             style="fill:#000000;fill-opacity:1;fill-rule:nonzero;stroke:none"
             d="m 0,0 c -4.113,-6.732 -8.229,-13.464 -12.341,-20.196 -0.841,-1.377 1.32,-2.635 2.159,-1.262 4.114,6.732 8.227,13.464 12.34,20.196 C 3,0.115 0.838,1.372 0,0" /></g><g
           transform="translate(414.6416,348.9687)"
           id="g184"><path
             id="path186"
             style="fill:#000000;fill-opacity:1;fill-rule:nonzero;stroke:none"
             d="m 0,0 c 4.865,-1.339 9.299,-3.472 13.397,-6.409 1.31,-0.94 2.56,1.227 1.262,2.158 C 10.4,-1.198 5.715,1.021 0.664,2.411 -0.889,2.839 -1.552,0.428 0,0" /></g><g
           transform="translate(416.9248,336.8447)"
           id="g188"><path
             id="path190"
             style="fill:#000000;fill-opacity:1;fill-rule:nonzero;stroke:none"
             d="m 0,0 c 2.465,6.015 5.928,11.45 10.303,16.256 1.081,1.187 -0.682,2.96 -1.768,1.766 C 3.857,12.885 0.225,7.094 -2.41,0.665 -3.021,-0.823 -0.603,-1.471 0,0" /></g><g
           transform="translate(415.1064,305.0918)"
           id="g192"><path
             id="path194"
             style="fill:#000000;fill-opacity:1;fill-rule:nonzero;stroke:none"
             d="m 0,0 c 5.985,-3.908 11.971,-7.817 17.955,-11.726 1.352,-0.882 2.606,1.282 1.262,2.159 C 13.232,-5.658 7.247,-1.75 1.262,2.159 -0.089,3.041 -1.344,0.878 0,0" /></g><g
           transform="translate(420.3672,290.3262)"
           id="g196"><path
             id="path198"
             style="fill:#000000;fill-opacity:1;fill-rule:nonzero;stroke:none"
             d="m 0,0 c 3.344,5.314 7.184,10.239 11.521,14.779 1.112,1.163 -0.654,2.934 -1.767,1.767 C 5.271,11.854 1.298,6.755 -2.158,1.262 -3.018,-0.104 -0.855,-1.359 0,0" /></g><g
           transform="translate(330.4639,204.833)"
           id="g200"><path
             id="path202"
             style="fill:none;stroke:#000000;stroke-width:1;stroke-linecap:butt;stroke-linejoin:miter;stroke-miterlimit:10;stroke-dasharray:none;stroke-opacity:1"
             d="M 0,0 0.12,-0.32" /></g><g
           transform="translate(328.7104,204.874)"
           id="g204"><path
             id="path206"
             style="fill:#000000;fill-opacity:1;fill-rule:nonzero;stroke:none"
             d="m 0,0 c 12.367,-8.393 24.828,-16.324 38.464,-22.521 1.05,-0.476 2.162,-0.433 3.03,0.392 1.936,1.841 4.829,3.049 7.064,4.53 2.737,1.816 5.397,3.74 8.005,5.735 4.898,3.746 9.573,7.76 14.14,11.902 -1.01,-0.13 -2.02,-0.261 -3.03,-0.392 5.526,-3.703 11.362,-6.91 16.872,-10.636 3.054,-2.065 6.114,-4.156 9.426,-5.79 2.056,-1.014 5.223,-2.9 7.561,-2.778 2.576,0.134 5.5,3.207 7.593,4.641 3.158,2.162 6.302,4.344 9.434,6.543 6.785,4.767 13.504,9.626 20.169,14.558 h -2.523 c 8.559,-4.981 16.677,-10.513 24.253,-16.902 1.355,-1.143 3.72,-0.864 4.178,1.104 1.196,5.133 2.39,10.266 3.585,15.4 0.192,0.818 0.042,1.856 -0.642,2.432 -9.88,8.32 -20.699,15.778 -31.851,22.283 -0.709,0.414 -1.826,0.517 -2.523,0 -5.64,-4.173 -11.317,-8.296 -17.042,-12.352 -2.864,-2.027 -5.738,-4.039 -8.621,-6.036 -2.417,-1.672 -5.867,-5.151 -8.687,-5.942 -4.817,-1.351 -12.83,5.905 -16.717,8.46 -4.91,3.225 -10.06,6.062 -14.942,9.334 -0.949,0.637 -2.239,0.325 -3.029,-0.391 C 59.03,18.917 53.762,14.402 48.167,10.299 43.993,7.236 38.68,4.946 34.958,1.406 35.967,1.536 36.977,1.667 37.987,1.797 22.049,9.079 7.412,18.888 -7.049,28.699 -9.719,30.511 -12.223,26.181 -9.573,24.382 4.889,14.57 19.526,4.762 35.463,-2.521 c 1.049,-0.478 2.164,-0.432 3.03,0.392 1.937,1.841 4.83,3.049 7.064,4.53 2.737,1.816 5.398,3.74 8.006,5.735 4.898,3.746 9.572,7.76 14.14,11.902 -1.011,-0.13 -2.02,-0.261 -3.03,-0.392 5.525,-3.703 11.361,-6.91 16.872,-10.636 3.053,-2.065 6.113,-4.156 9.426,-5.79 2.055,-1.014 5.222,-2.9 7.56,-2.778 2.576,0.134 5.501,3.207 7.594,4.641 3.158,2.162 6.302,4.344 9.434,6.543 6.785,4.767 13.504,9.626 20.169,14.558 h -2.523 c 10.781,-6.288 21.287,-13.458 30.837,-21.501 -0.213,0.81 -0.427,1.621 -0.642,2.432 -1.195,-5.134 -2.39,-10.267 -3.585,-15.4 1.393,0.367 2.785,0.735 4.179,1.103 -7.901,6.661 -16.336,12.488 -25.266,17.683 -0.709,0.413 -1.825,0.517 -2.523,0 -5.64,-4.173 -11.317,-8.296 -17.042,-12.352 -2.863,-2.027 -5.737,-4.039 -8.621,-6.036 -2.417,-1.672 -5.867,-5.151 -8.686,-5.942 -4.817,-1.351 -12.83,5.905 -16.718,8.46 -4.909,3.225 -10.06,6.062 -14.941,9.334 -0.949,0.637 -2.24,0.325 -3.03,-0.391 -5.137,-4.657 -10.404,-9.172 -15.999,-13.275 -4.175,-3.063 -9.488,-5.353 -13.21,-8.893 1.01,0.13 2.02,0.261 3.029,0.391 C 27.352,-12.007 14.891,-4.075 2.524,4.317 -0.146,6.13 -2.65,1.799 0,0" /></g></g></g></g><use xlink:href="" /></svg>
