<svg xmlns="http://www.w3.org/2000/svg" width="9.13in" height="7.9in" viewBox="0 0 657.1 569.07"><title>FISH</title><polygon points="491.09 3 166.01 3 3.46 284.53 166.01 566.07 491.09 566.07 653.64 284.53 491.09 3" fill="#fff" stroke="#231f20" stroke-miterlimit="10" stroke-width="6"/><polygon points="476.2 31 181.76 31 34.54 285.99 181.76 540.98 476.2 540.98 623.42 285.99 476.2 31" fill="#fff" stroke="#231f20" stroke-miterlimit="10" stroke-width="5"/><path d="M399.18,207.08a59.7,59.7,0,0,1-15.62-10,8.94,8.94,0,0,1-2.65-3.34,7,7,0,0,1,.12-4.62c2.32-7,10.18-10.26,17.16-12.67l16.14-5.55c2.84-1,5.79-2,8.79-1.75,3.47.25,6.59,2.1,9.57,3.9l30,18.1c7.89,4.77,26.2,12.27,30.15,20.61" transform="translate(-44.32 -16.29)" fill="#fff"/><path d="M425.08,395.69c-5.31,5.94-14,17.52-14.85,25.45-.4,3.7,0,8.06,3.14,10.15,2.4,1.63,5.56,1.31,8.43.9,16.05-2.25,32.79-5.44,45.36-15.67,5.48-4.45,9.9-10,14.26-15.59,5-6.4,9.59-15.74,14.63-22.13" transform="translate(-44.32 -16.29)" fill="#fff"/><path d="M494.11,214.42c-11.72,6-20.65,21.83-25.07,34.24a79.19,79.19,0,0,0-4.3,16.55,50.68,50.68,0,0,0,18.9,45.43,45.91,45.91,0,0,0,22.77,60.87l.09,1a174.82,174.82,0,0,0,18.8-12.8c12.16-9.48,23.23-20.74,30.44-34.37S566,295.52,562,280.64c-2.73-10.07-8.49-19-14.52-27.55a119.23,119.23,0,0,0-13.81-16.88c-11.51-11.25-26.28-18.12-41.92-22.47" transform="translate(-44.32 -16.29)" fill="#fff"/><ellipse cx="462.09" cy="249.74" rx="10.14" ry="12.16" fill="#fff"/><path d="M506.41,371.51a45.91,45.91,0,0,1-22.77-60.87,50.68,50.68,0,0,1-18.9-45.43,79.19,79.19,0,0,1,4.3-16.55c4.42-12.41,13.35-28.23,25.07-34.24l-39.54-7.11c-7.78,2.21-16.63,10.65-21.33,17.23a69.26,69.26,0,0,0,13.86,94.93A64.4,64.4,0,0,0,438.05,373c1,3.57,4.64,17.33,13.56,19.36s23.16-7.66,26.67-6.45" transform="translate(-44.32 -16.29)" fill="#fff"/><path d="M450.9,392.35c-7-2.42-10.84-12.21-12.85-19.36a64.4,64.4,0,0,1,9.05-53.52,69.26,69.26,0,0,1-13.86-94.93c4.7-6.58,13.55-15,21.33-17.23l-55.39-.23c-19.7,15.1-36.38,41.9-36.24,66.73s14.53,49.58,37,60.11c-11.78,14-15.72,33.44-9.92,50.45.83,2.46,4.72,7.35,6,9.69" transform="translate(-44.32 -16.29)" fill="#fff"/><path d="M399.18,207.08c-19.7,15.1-36.38,41.9-36.24,66.73s14.53,49.58,37,60.11c-13.48,16.07-16.69,39.17-6.79,57.66l0,1a143.76,143.76,0,0,1-38.92-14C327.59,364.34,307.17,335,286.39,313c-3,23.85-20.94,43.73-42,55.39s-45.05,16.46-68.64,21.1l-.27-.23c6.42-24.18,17.11-47.46,33-66.75s37.3-34.45,61.43-41.07l1.45-.09c-24.67,2-48.38-13.22-62.37-33.64s-19.8-45.29-23.42-69.77c23.05,3.9,46,11.07,65,24.77s36,37.58,38.28,60.85c21.88-24.09,51.27-40.84,82.61-49.59a204.48,204.48,0,0,1,23.82-5.13" transform="translate(-44.32 -16.29)" fill="#fff"/><path d="M269.34,279.05c-50.92,14.38-83,60.53-96.23,109.57-.84,3.11,4,4.43,4.82,1.33,12.76-47.35,43.49-92.17,92.73-106.08,3.1-.87,1.78-5.7-1.32-4.82Z" transform="translate(-44.32 -16.29)"/><path d="M176.46,391.92c25.77-5.07,52.65-10.34,75-24.85,18.73-12.12,34.11-30.79,37.29-53.38.44-3.15-4.37-4.51-4.82-1.33-3.16,22.4-18.64,40.55-37.56,52-21.57,13.06-46.88,17.94-71.29,22.74-3.16.62-1.82,5.44,1.33,4.82Z" transform="translate(-44.32 -16.29)"/><path d="M271.45,278.87c-23.54,1.6-45.36-11.94-58.9-30.54-15-20.63-20.77-46.25-24.48-71L185,180.37c23.21,4,46.54,11.1,65.59,25.42,18.07,13.58,33.28,34.92,35.81,57.79.35,3.17,5.36,3.2,5,0-2.61-23.55-17.13-45.17-35.33-59.81-19.89-16-44.92-23.93-69.74-28.22a2.54,2.54,0,0,0-3.07,3.07c3.95,26.39,10.39,53.75,27.21,75.17,14.51,18.48,37,31.72,61,30.08,3.19-.22,3.21-5.22,0-5Z" transform="translate(-44.32 -16.29)"/><path d="M290.66,265.35c29.91-32.59,72.2-50.92,115.82-55.43a245.62,245.62,0,0,1,70.67,3c20.45,3.88,41.17,11.13,56,26.33a133.8,133.8,0,0,1,20.63,28.28c5.74,10.36,8.46,21.56,7.11,33.39-2.57,22.64-17.68,41.09-34.79,55-34.63,28.14-80.53,42.38-124.92,35.57-24.48-3.76-47.87-13.38-66.49-29.89-17.14-15.21-30.91-33.69-46.55-50.34-2.21-2.35-5.74,1.19-3.54,3.53,15.28,16.27,28.77,34.28,45.38,49.29s36.25,24.71,57.86,29.88c45.54,10.88,93.93-.21,131.94-27,18.06-12.74,34.92-29.07,42.51-50.31a63,63,0,0,0,2.87-33.32c-2.27-11.37-8.48-21.41-15.06-30.76-6.46-9.19-13.4-17.91-22.45-24.7a100.5,100.5,0,0,0-28.86-14.56c-22.49-7.45-47.2-9.84-70.79-9.58-52.33.58-105,19-140.89,58.12-2.18,2.36,1.35,5.91,3.53,3.53Z" transform="translate(-44.32 -16.29)"/><path d="M397.41,205.31c-20.79,16.23-37.69,42.84-36.94,70,.69,25.23,15.33,49.72,38.22,60.81l-.51-3.93c-14,17.21-17.45,40.74-7.18,60.69,1.47,2.86,5.79.34,4.32-2.52-9.17-17.8-6.14-39.25,6.4-54.63.93-1.14,1.07-3.16-.51-3.93-21.78-10.55-35.64-33.87-35.77-57.95-.13-25.37,16.1-49.81,35.51-65,2.53-2-1-5.5-3.54-3.54Z" transform="translate(-44.32 -16.29)"/><path d="M453.91,204.9c-21.69,7-34,33.13-35.78,54.21-2,23.79,8.61,47.33,27.2,62.13l-.39-3a67.28,67.28,0,0,0-11.34,44.57c1.18,11.21,5,27.23,16.64,32,3,1.21,4.27-3.62,1.33-4.82-10.35-4.22-13-22.45-13.29-31.95a62.86,62.86,0,0,1,11-37.26,2.5,2.5,0,0,0-.39-3c-16.75-13.34-26.76-33.77-25.94-55.3a67.7,67.7,0,0,1,9.32-31.75c5.12-8.66,13.14-17.76,23-20.94,3.05-1,1.74-5.81-1.33-4.82Z" transform="translate(-44.32 -16.29)"/><path d="M492.85,212.27c-16.63,9-26.43,30.72-29.91,48.52a53.43,53.43,0,0,0,18.93,51.62l-.39-3c-10.58,24.43-.55,52.78,23.67,64.29,2.89,1.38,5.43-2.93,2.53-4.32A44.08,44.08,0,0,1,485.8,311.9a2.58,2.58,0,0,0-.4-3,48.59,48.59,0,0,1-17.24-48.61c3.63-16,12.14-35.47,27.22-43.68,2.82-1.54.3-5.86-2.53-4.31Z" transform="translate(-44.32 -16.29)"/><path d="M521.79,321.32a21.23,21.23,0,0,0,30.85,12.47c2.83-1.53.31-5.84-2.53-4.32a16.14,16.14,0,0,1-23.5-9.48c-1-3.06-5.79-1.75-4.82,1.33Z" transform="translate(-44.32 -16.29)"/><path d="M400.44,204.92a65.13,65.13,0,0,1-8.19-4.4c-2.43-1.55-6.39-3.71-8-6.21-4.62-7.31,7-12.61,11.93-14.51,6.18-2.35,12.51-4.41,18.78-6.5,4.22-1.41,7.84-2.29,12.11-.44a80.5,80.5,0,0,1,9.32,5.35c10.46,6.33,20.78,13,31.62,18.71,7.55,4,18.4,8.18,22.6,16.09,1.5,2.84,5.82.32,4.31-2.52-5.19-9.81-18.3-14.58-27.52-19.53-7.45-4-14.59-8.67-21.83-13-6.52-3.94-14-10.35-21.82-11.2-7.54-.81-15.7,3.68-22.67,6.08-6.28,2.16-13.36,4.2-18.24,9-3.67,3.6-6.58,9.64-3.44,14.45,3.84,5.92,12.35,10.2,18.49,13,2.91,1.32,5.45-3,2.52-4.32Z" transform="translate(-44.32 -16.29)"/><path d="M423.32,393.92c-7,7.91-15.95,18.59-15.71,29.75.31,15,16.15,11,26.14,9.12,13.76-2.59,27.39-7.12,37.84-16.82,11.22-10.42,17.49-23.93,26.62-35.91,2-2.56-2.39-5.05-4.32-2.52-7.24,9.49-12.49,20.08-20.37,29.16-8.14,9.38-18,15.28-30,18.69a138.06,138.06,0,0,1-16,3.42c-5.82.95-14.72,3.41-15-5.14-.29-9.6,8.28-19.45,14.24-26.21,2.12-2.41-1.4-6-3.53-3.54Z" transform="translate(-44.32 -16.29)"/><ellipse cx="462.09" cy="249.74" rx="10.14" ry="12.16" fill="none" stroke="#000" stroke-miterlimit="10" stroke-width="4"/><circle cx="466.28" cy="249.74" r="5.95"/></svg>