<svg xmlns="http://www.w3.org/2000/svg" width="5.48in" height="6.99in" viewBox="0 0 394.31 503.26"><title>FLOWER</title><rect x="3" y="3" width="388.31" height="497.26" fill="#fff" stroke="#231f20" stroke-miterlimit="10" stroke-width="6"/><rect x="26.79" y="32.46" width="341.24" height="436.97" fill="#fff" stroke="#231f20" stroke-miterlimit="10" stroke-width="5.27"/><path d="M413.2,188.51A95.63,95.63,0,0,1,427.06,150c4.31-6.84,9.58-13.21,16.29-17.72s15-7.05,23-5.86,15.54,6.46,18.38,14c2,5.35,1.6,11.36,0,16.83s-4.43,10.51-7.2,15.5c-8.7,15.69-17.18,33.41-29.43,46.51,11.44-4.77,22.06-9.2,34.11-12.06s24.8-3.73,36.8-.63c4.33,1.12,8.63,2.81,12,5.8A19.24,19.24,0,0,1,534,236.45c-4.38,6.62-12.37,9.72-20,12.05a245.82,245.82,0,0,1-43.77,9.2c13.08-1.6,26.48,4,37.61,10.47a55.14,55.14,0,0,1,7.33,5,42.4,42.4,0,0,1,11.51,15.14c2.65,5.8,4,13,.54,18.35-2.54,4-7.3,6.22-12,6.69s-9.47-.59-14-1.92c-18.77-5.5-35.81-15.63-52.61-25.65,3.78,2.85,4.34,5.62,7.12,9.44,9.89,13.63,17.1,30.2,15.24,46.93a29.31,29.31,0,0,1-3.79,12.13,16.62,16.62,0,0,1-9.89,7.63c-5.21,1.27-10.8-.72-15-4.06s-7.21-7.91-10-12.5a240.83,240.83,0,0,1-22-46.33,173.45,173.45,0,0,1-20.53,42.18A78,78,0,0,1,382.2,351,51,51,0,0,1,369.52,361a27.07,27.07,0,0,1-9.75,3.5,19,19,0,0,1-19.63-12.31c-1.78-5.2-1.13-11,.72-16.16s4.82-9.86,7.77-14.5l21.13-33.21c-23.82,15.51-54.07,29.09-82.45,27.58-6.78-.37-14.71-2.46-17.06-8.84-1.25-3.4-.5-7.27,1.1-10.52,3.35-6.78,10-11.26,16.46-15.12,22-13.06,47.69-22.24,71.46-31.66l.07-.55a180.5,180.5,0,0,1-55.25-10.33c-13.66-4.86-27.4-11.94-35.24-24.14-3.94-6.13-6.09-14.36-2.36-20.62,3-5.09,9.16-7.53,15-8.28,9.09-1.17,18.27.84,27.1,3.28,20.38,5.62,41.48,15.06,60.05,25.17C361,201.73,353.55,188.74,350,174.45s-2.82-30.23,5-42.7c3.62-5.77,9.31-10.92,16.11-11.24,5.57-.26,10.88,2.82,14.59,7s6.1,9.31,8.36,14.4q9.92,22.29,18.32,45.21" transform="translate(-210.67 -56.66)" fill="#fff"/><path d="M390.85,218.58a21.59,21.59,0,0,0-6.56,3.09,20.25,20.25,0,0,0-2,1.85c-2.29,2.34-4.62,4.9-5.31,8.1-9.37-3.57-18.05-9-27.19-12.91a22.82,22.82,0,0,0-9.55-2.24c1,2.33,3.47,3.63,5,5.65,7.31,9.5,17.89,17,26.87,24.58a20.59,20.59,0,0,0-.44,11.94c-12,6.83-24.72,13.92-36.49,21.07,2,.82,4.24.41,6.34,0q17-3.56,33.91-7.9c4,3.83,6.83,6.71,12,8.81-5.24,10.53-9,23-12.9,34.1,1.49.32,2.75-1.05,3.66-2.27q10.05-13.56,19.17-27.77a20.43,20.43,0,0,0,5.11,1.41c4.69.48,9-2.16,13.47-3.74,7.05,12.61,14.36,24.83,23.86,35.7q-6-20.29-13.06-40.26c3.82-2.15,7.6-4.93,9.86-8.69l.18-.35,38.63,8.42a156.33,156.33,0,0,0-35.5-18.78l-.1-.08c1.56-2.52,2-5.15.63-7.78-.06-.12-.06.13,0,0s.53.53.41-.55l39-13c-4.1-1-8.38-.81-12.59-.62l-28.49,1.3.19.08a21.44,21.44,0,0,0-4.48-9.12,46,46,0,0,0-6.23-7l13.18-42.72c-6.06,4.69-10.12,11.44-13.8,18.16q-5,9.15-9.43,18.62l-.6-.19A25.49,25.49,0,0,0,408,215l-.55-.13a351.1,351.1,0,0,0-20.85-39.39c-.49,7.82.82,15.64,2.12,23.37L392,218.37" transform="translate(-210.67 -56.66)" fill="#fff"/><path d="M423.27,256.62a5.49,5.49,0,0,0,4.44,0,3.15,3.15,0,0,0,1.58-3.84,5,5,0,0,0-1.73-1.83l-2.35-1.76-.32-.69c1.95-1.36,2.63-4,2.64-6.34a5,5,0,0,0-1-3.41,4.48,4.48,0,0,0-3.08-1.25,9.48,9.48,0,0,0-5.51,1.31l.36-.62c.81-2,1.64-4,1.39-6.15s-2-4.22-4.1-4.08a4.84,4.84,0,0,0-1.69.5,11,11,0,0,0-5.12,4.86l-1.28-.43c-.09-2-1.26-3.79-2.46-5.41a4.56,4.56,0,0,0-1.62-1.53,3,3,0,0,0-2.8.3,7.19,7.19,0,0,0-2,2.09,9,9,0,0,0-1.91,5.57l-.43.54a9.91,9.91,0,0,0-4-1.3,5,5,0,0,0-3.16,8.95v.81a5.62,5.62,0,0,0-5,1.89,6.66,6.66,0,0,0-1.49,5.19,4.35,4.35,0,0,0,.81,2.15c1,1.24,2.72,1.59,3.77,2.75l.07.53a11.7,11.7,0,0,0-2.67,5.18,5.58,5.58,0,0,0,1.73,5.34,5.38,5.38,0,0,0,6.43-.27l.59-.47a4.71,4.71,0,0,0,8.38,4.29l.76-.34c0,1.75.13,3.71,1.42,4.9a4.36,4.36,0,0,0,3.81.89,6.17,6.17,0,0,0,4.78-6.21l.63-.41a4.1,4.1,0,0,0,3.38,2.59,3.25,3.25,0,0,0,3.35-2.41c.31-1.52-.63-3-1.53-4.24l.12-.57c.33.91,1.44,1.23,2.4,1.37,1.89.26,4.18.15,5.18-1.47a3.52,3.52,0,0,0,.1-3.18,7.82,7.82,0,0,0-2-2.6" transform="translate(-210.67 -56.66)" fill="#fff"/><path d="M402.81,243.23a7.85,7.85,0,0,0-4.18,5.4,7.09,7.09,0,0,0,2.08,6.45,7.63,7.63,0,0,0,9.4.18,7.93,7.93,0,0,0,2.56-3.23,5.77,5.77,0,0,0,.5-2.35,6.1,6.1,0,0,0-.42-2.06,7.55,7.55,0,0,0-9.6-4.36" transform="translate(-210.67 -56.66)" fill="#fff"/><path d="M418.76,324.43c.43-.06.38-3.61.2-4-.79-1.77-1.09,3.91-1.18,4.33-3.31,16.95-4.29,36.13-1.82,53.22l.28,1.08c1.3-2.26,3.95-3.28,6.4-4.14,4-1.41,8.13-2.84,12.39-3.18s8.79.51,12.08,3.24,5,7.56,3.32,11.49c-1.39,3.25-4.69,5.27-8,6.54-6.16,2.36-19.27,3.2-23.35-2,1.21,7.36,5.13,16,9.35,22.15l.58.61q8.93-5.26,18.34-9.64c2.38-1.11,4.92-2.19,7.53-1.91,5.09.56,8.31,6.62,7,11.59s-5.85,8.53-10.75,10-13.12,2.1-18.24,1.86c2.73,5,5.16,9.86,8.82,14.18a42.51,42.51,0,0,1,16-10.57c2.89-1.07,6.2-1.79,9-.46,3.32,1.6,4.76,5.84,4,9.45s-3.23,6.63-6,9a34.68,34.68,0,0,1-13.53,7.2c9.35,11,20.53,24,29.88,35.08,2.72,3.21,5.5,6.52,6.87,10.51a44.83,44.83,0,0,1-19.3-2.23,11.84,11.84,0,0,1-4-2.06A14.22,14.22,0,0,1,462,492a181.66,181.66,0,0,0-29.38-38.34A37.09,37.09,0,0,1,420,463a18.42,18.42,0,0,1-9.41,1.91c-3.21-.36-6.4-2.23-7.63-5.22-1.6-3.89.46-8.4,3.38-11.42A22.2,22.2,0,0,1,426,441.93c-4.08-4.78-10.45-10.77-12.79-16.6l-8.17,7.61c-4.32,4-8.79,8.14-14.32,10.2-4.79,1.78-10,1.89-15.14,1.86-3.44,0-7.35-.29-9.53-2.95s-1.71-6.32-.42-9.33c4.13-9.6,15.19-13.79,25.12-17,6.52-2.11,14-4.12,19.87-.53-4.59-6.39-7.84-16.45-9.32-24.17l-.48-1.36c-1.49,1.59-6,3.53-7.89,4.56-6,3.19-12,6.41-18.55,8.19s-13.7,2-19.93-.61a9.43,9.43,0,0,1-3.49-2.31,7.68,7.68,0,0,1-.95-7.69,16.53,16.53,0,0,1,5-6.34c12.49-10.75,31.61-13,46.28-5.52.45-8.81.73-21.28,1.18-30.1.81-15.92,1.68-32.18,7.61-47" transform="translate(-210.67 -56.66)" fill="#fff"/><path d="M401.54,241.07c-4.42,2.5-6.77,7.67-4.78,12.55,1.91,4.69,7.24,6.67,11.94,5.14s8-6.47,6.61-11.29c-1.59-5.55-7.5-8.15-12.82-6.62-3.09.88-1.78,5.71,1.33,4.82,2.75-.79,6.84.49,6.85,4,0,2.19-2.06,4-4.06,4.48a4.43,4.43,0,0,1-5.35-2.7c-.9-2.56.64-4.85,2.81-6.08,2.8-1.58.28-5.9-2.53-4.31Z" transform="translate(-210.67 -56.66)"/><path d="M422.61,259c3.67,1,8.11.29,9.17-4,1.12-4.55-3.26-4.74-4.74-7.84l-.39,3c3.17-3,4.9-9,2.08-12.78s-8.46-2.6-12-.83l3.42,3.42c2.32-4,3.5-10.08-.69-13.32-4.75-3.66-10.34,1.31-12.78,5.29l2.83-1.14-1.29-.43,1.75,1.74c-.69-4-3.78-9.63-8.57-8.88-2.11.33-3.77,2.08-4.9,3.74a14.35,14.35,0,0,0-1.69,3.25,8.8,8.8,0,0,0-.26,2.35l3-.39c-4-1.88-8.56-2.52-11.51,1.56a7.26,7.26,0,0,0-1.25,5.42,7.65,7.65,0,0,0,1,2.67c.61,1.07.86.61.85,1l2.5-2.5a8.49,8.49,0,0,0-8.95,7.85,7.61,7.61,0,0,0,1.53,5.65c.64.76,1.75,1.09,2.36,1.79.18.21,1.27-1.95-.58.9-5.39,8.26,4.18,16.41,11.67,10.37L391,264.51c-1,3.47.11,7.46,3.59,9.09a7.33,7.33,0,0,0,5.11.39c1.77-.52,2.64-2.05,4.13-2.71L400,269.12c.1,4.39,2,8.57,7.05,8.34,4.82-.22,7.64-4.29,8-8.76l-1.24,2.16.63-.41-3.42-.9c1.8,3.17,5.54,5,8.92,2.87a5.59,5.59,0,0,0,2.47-3.95,5.7,5.7,0,0,0-.27-2.46c-.35-.87-1.17-2-1.23-1.68l-4.57.59a7.92,7.92,0,0,0,10.26,1.6c4.15-2.8,2.07-7.65-.66-10.51-2.23-2.33-5.76,1.21-3.54,3.53.75,2.7.17,3.66-1.74,2.86-1.18-1.54-4.08-1.73-4.57.6a4.56,4.56,0,0,0-.16,1.56,1.85,1.85,0,0,0,.29.93q2.13,2-.88,1.54a2.52,2.52,0,0,0-3.42-.9,10.08,10.08,0,0,0-1.53,1.31,2.53,2.53,0,0,0-.34,1.26q-5.61,5.58-5,.42a2.53,2.53,0,0,0-3.76-2.16,5.86,5.86,0,0,0-1,.54,3.4,3.4,0,0,0-.83.82c-1.18,1.69-2.38.86-3.62-2.48.76-2.6-2.37-3.9-4.18-2.44-.4.32-4.34-1.19-4.58-1.65-.45-.83,1.1-3.13,1.54-3.92.62-1.11,1.27-1.51,1.18-2.84a3.22,3.22,0,0,0-1.2-2.27c-.4-.42-1.1-.65-1.46-1.06-1.7-1.9-3.71-6.38,2-6.28a2.52,2.52,0,0,0,2.5-2.5c0-.58-.22-1.25-.2-1.77a2,2,0,0,0-.52-.81c.17-4.34,1.54-5.58,4.14-3.72a2.57,2.57,0,0,0,3-.39,7.38,7.38,0,0,0,1.16-2.31c.42-1.1.63-4.45,2.09-5,2.53-.88,3.56,3.15,3.8,4.6a2.51,2.51,0,0,0,1.75,1.75l1.29.43a2.53,2.53,0,0,0,2.82-1.15c.92-1.51,5.34-7.33,6-.08.08.81-.84,2.43-1.2,3.05-1.32,2.27,1.25,4.5,3.42,3.42,1.77-.88,4.09-1.89,5.25.15s.2,4.15-1.37,5.61a2.57,2.57,0,0,0-.39,3,4.81,4.81,0,0,0,.71,1.19l.51.39c1.65.64,1.65,1.6,0,2.9-3.12-.82-4.45,4-1.33,4.82Z" transform="translate(-210.67 -56.66)"/><path d="M390.18,216.17c-7.09,2.45-13.31,7.36-15.58,14.79l3.07-1.75c-7-2.75-13.48-6.41-20.2-9.71-5.47-2.69-11-5.39-17.2-5.53a2.52,2.52,0,0,0-2.16,3.76c1.39,2.45,3.57,4.08,5.42,6.16,2.77,3.11,5.36,6.24,8.42,9.09,5.87,5.48,12.3,10.32,18.44,15.48l-.65-2.43a25.75,25.75,0,0,0-.43,13.27l1.15-2.82c-12.2,7-24.47,13.8-36.49,21.07a2.53,2.53,0,0,0,.6,4.57c6.05,1.61,13.09-1.16,19-2.49q11.32-2.55,22.56-5.44l-2.43-.64c3.85,3.67,7.56,7,12.48,9.2l-.9-3.42c-5.43,11.15-9.1,23-13.15,34.7a2.51,2.51,0,0,0,2.41,3.16c5.47-.26,8.53-7.17,11.33-11.09q7.06-9.93,13.66-20.18l-2.82,1.14c7.61,2.73,12.67.41,19.9-2.32l-2.82-1.15c7.13,12.71,14.72,25.12,24.26,36.2,1.65,1.92,4.86-.13,4.18-2.43q-6.06-20.3-13.07-40.26L428,279.92c4.21-2.46,8.58-5.52,10.94-9.93l-2.83,1.15,38.63,8.41a2.51,2.51,0,0,0,1.93-4.57A164.6,164.6,0,0,0,458.77,264q-4.65-2.43-9.47-4.54c-2.15-.95-6.05-1.65-7.7-3l.39,3c1.71-3.27,2.26-6.18.88-9.7a2.59,2.59,0,0,0-2.41-1.84h0c-3.21.1-3.22,5.1,0,5-1.11,0,.18,0,.42,0a2.54,2.54,0,0,0,2.5-2.5l0-.59-1.84,2.41,39-13c2.18-.73,2.58-4.3,0-4.82-6.58-1.34-13.24-.71-19.89-.41l-21.85,1a2.51,2.51,0,0,0-.66,4.91l.19.08c1.86.74,3.49-1.4,3.07-3.07-1.68-6.76-6.3-12.56-11.35-17.21l.64,2.43,13.18-42.71c.8-2.59-2.39-3.89-4.18-2.43-11.32,9.23-17.55,24.38-23.62,37.28l2.83-1.15c-3.11-1-6.28-.24-9.31-.91l-1.22.2.46-.6c-.71-.75-1.13-2.44-1.57-3.37q-1.77-3.8-3.65-7.53c-4.56-9.15-9.55-18.07-14.87-26.8a2.52,2.52,0,0,0-4.66,1.26c-.63,14.54,3.09,29.28,5.48,43.54.54,3.17,5.36,1.83,4.83-1.33-2.33-13.84-5.92-28.11-5.31-42.21l-4.66,1.26c6,9.79,11.51,19.83,16.52,30.14,1.42,2.91,2.77,9.26,6,10.44,1.34.49,2.91-.07,4.3-.08a20.4,20.4,0,0,1,6.36.81,2.51,2.51,0,0,0,2.82-1.15c5.88-12.49,11.89-27.34,22.84-36.27l-4.18-2.43-13.18,42.71a2.46,2.46,0,0,0,.65,2.43c4.43,4.1,8.58,9.05,10.06,15l3.08-3.07-.19-.08-.67,4.91,19.95-.91c6.75-.31,13.79-1.22,20.47.14v-4.82l-39,13a2.61,2.61,0,0,0-1.83,2.42l0,.59,2.5-2.5c.82,0-.33,0-.42,0-3.21.1-3.22,5.1,0,5h0l-2.41-1.83a5.14,5.14,0,0,1-.38,5.85,2.55,2.55,0,0,0,.39,3c1.69,1.36,4.1,1.82,6.1,2.65,3.84,1.59,7.61,3.36,11.31,5.26a162.42,162.42,0,0,1,18.7,11.34l1.92-4.57-38.63-8.42a2.57,2.57,0,0,0-2.82,1.15c-2,3.67-5.65,6.1-9.15,8.14a2.53,2.53,0,0,0-1.15,2.82q7,20,13.07,40.27l4.18-2.44c-9.25-10.75-16.55-22.85-23.47-35.19a2.53,2.53,0,0,0-2.83-1.15c-6.13,2.32-10.63,4.7-17.25,2.33a2.54,2.54,0,0,0-2.82,1.15c-3.22,5-6.5,9.94-9.89,14.82q-2.4,3.46-4.86,6.89c-1.2,1.67-3.8,7-5.92,7.09l2.41,3.17c3.91-11.28,7.41-22.75,12.65-33.51.54-1.11.41-2.84-.9-3.42-4-1.78-7.08-4.35-10.29-7.3s-6.05-1.12-10.17-.1q-7.51,1.86-15.06,3.56c-5,1.14-12.25,4.05-17.29,2.71l.59,4.57c12-7.27,24.29-14.11,36.49-21.07a2.57,2.57,0,0,0,1.15-2.83,20.23,20.23,0,0,1,.44-10.61,2.46,2.46,0,0,0-.65-2.43c-5.71-4.81-11.67-9.33-17.2-14.35a84.75,84.75,0,0,1-7.59-7.69c-2.09-2.44-5.14-4.93-6.7-7.69L340.27,219c6.91.15,13.41,4.17,19.43,7.25,5.47,2.8,10.92,5.56,16.64,7.81a2.52,2.52,0,0,0,3.08-1.75c1.74-5.67,6.72-9.43,12.09-11.29,3-1,1.73-5.87-1.33-4.82Z" transform="translate(-210.67 -56.66)"/><path d="M415.61,189.18c2.26-16.28,8.35-32.56,18.88-45.34,9.55-11.58,27-21.15,41.1-11.1,16.25,11.61,3.58,31.55-3.45,44.52-7.6,14-15,28.38-25.87,40.22-1.52,1.66,0,5.22,2.43,4.18,13.4-5.59,27-11.21,41.41-13.52,12.51-2,35.11-3,42.25,10.12a16.76,16.76,0,0,1-.53,16.93c-3.8,5.73-10.77,8.43-17,10.45a238.41,238.41,0,0,1-44.53,9.56c-3.14.37-3.23,5.31,0,5,13.5-1.33,26.55,4.07,37.87,11a41.13,41.13,0,0,1,14.19,14c3.52,5.91,7,14.81,2.08,20.92-8.89,11-29.35,1-39.38-3.47-12.2-5.45-23.7-12.31-35.17-19.15-2.37-1.41-5.26,2.08-3,3.93C451,291,454,296.8,456.89,301.33a80.62,80.62,0,0,1,8.7,17.61c3.78,11.14,6.4,29.22-3.88,37.88-13.44,11.31-25.49-9.44-30.93-19a233.07,233.07,0,0,1-18.08-39.52,2.52,2.52,0,0,0-4.82,0,174,174,0,0,1-18.3,38.56c-6.76,10.61-19.07,26.86-33.62,25.1a16.44,16.44,0,0,1-13.87-12c-1.93-7.56,1.57-15.31,5.31-21.69,7.71-13.14,16.34-25.81,24.51-38.66,1.33-2.09-1.32-4.78-3.42-3.42-14.94,9.65-30.95,17.95-48.09,22.93A105,105,0,0,1,294,313.47c-6.43.17-17.68.44-21.1-6.53-4.43-9,7.25-17.82,13.56-21.79a210.57,210.57,0,0,1,22.91-12.25c16.49-7.75,33.61-14,50.54-20.74a2.67,2.67,0,0,0,1.84-2.41l.07-.55c.17-1.37-1.29-2.46-2.5-2.5a179.74,179.74,0,0,1-56-10.77c-14.23-5.24-35.62-16.06-36.21-33.78-.37-11.34,11.72-14.3,20.82-14.15,9.44.17,18.8,3,27.73,5.8,18,5.72,35.21,13.66,51.79,22.64,2.13,1.15,4.77-1.22,3.42-3.42-14.09-23-31.5-56.81-12.17-82.15,4.82-6.32,12.25-10.17,19.84-6,6.42,3.5,9.81,10.37,12.71,16.75,6.87,15.12,13,30.57,18.75,46.15,1.1,3,5.93,1.7,4.82-1.33q-5.4-14.66-11.38-29.08c-3.38-8.13-6.55-16.57-10.82-24.28-7.15-12.89-21.79-20.56-34.18-9.33-11.55,10.46-14.26,28.25-12.39,43,2.28,17.81,11.27,33.76,20.5,48.83l3.42-3.42A322.07,322.07,0,0,0,323,191c-14.46-5-32.67-11.49-47.92-6.2-14.15,4.9-15.67,19.62-8.34,31.22,7.64,12.09,20.82,19.26,33.81,24.21a182.42,182.42,0,0,0,58.84,11.5l-2.5-2.5-.07.55,1.83-2.41c-15.39,6.09-30.92,11.87-46,18.64-7.56,3.38-15,7-22.22,11.08-6.22,3.51-12.74,7.25-17.44,12.74-7.9,9.2-7.77,22.27,4.75,26.81,13.18,4.79,30.22,1.23,43.24-2.46,17.85-5.06,34.59-13.64,50.13-23.68l-3.42-3.42L351.75,312c-4.77,7.49-10.32,15-13.31,23.39-4.52,12.79.24,27.71,14.48,31.15s28.17-9.16,35.94-19.7c10.48-14.19,18.27-30.47,23.84-47.16h-4.82A235,235,0,0,0,431,348c6.69,10.67,19.67,22.8,32.66,13.68,11.67-8.2,11.42-26,8.43-38.39a79.33,79.33,0,0,0-9.5-22.27c-3.41-5.63-7.09-12.78-12.2-17l-3,3.93c14.43,8.6,29,17.23,44.79,23.1,11.61,4.31,31.24,10,38.17-4.8,6-12.75-5.21-28.74-15-36.13-12.39-9.36-29.34-16.41-45.06-14.87v5c17.23-2.08,35.4-5.18,51.54-11.78,12.21-5,21.19-16,16.22-29.69-5.39-14.83-24.81-17.12-38.38-16.55-18.37.76-35.52,7.67-52.27,14.66L449.8,221c10-10.93,17.26-23.86,24.27-36.82,6.44-11.9,16.19-25.22,14.22-39.5-1.68-12.12-12.51-20.36-24.38-21-13.82-.81-26,7.74-34.16,18.17-10.36,13.21-16.67,29.47-19,46-.44,3.15,4.38,4.51,4.82,1.33Z" transform="translate(-210.67 -56.66)"/><path d="M420.92,325.69c1-1.65,1.14-5.25-.05-6.86a2.58,2.58,0,0,0-3.42-.9c-2.16,1.18-1.84,4.43-2.13,6.51-.88,6.26-2.07,12.42-2.61,18.74-1,11.62-1.89,25.14,1.12,36.53.6,2.25,3.36,2.25,4.57.6,3.06-4.19,13.54-6.17,18.24-6.15,3.45,0,7.31.88,9.74,3.56a7.16,7.16,0,0,1-1.11,11c-5.59,4.05-19.26,6.14-24.41.49-1.82-2-4.6.16-4.18,2.43,1.47,7.91,4.9,17.92,10.57,23.86a2.54,2.54,0,0,0,3,.39c5.16-3,10.41-5.84,15.79-8.42,2.65-1.28,6.28-3.58,9.39-2.62s4.72,5.21,4.06,8.26c-2.22,10.38-18.56,10.31-26.58,10.05a2.52,2.52,0,0,0-2.16,3.76c2.8,5.11,5.53,10.14,9.21,14.69a2.54,2.54,0,0,0,3.54,0c3.69-3.74,20.94-17.61,24.57-7.58,3.29,9.1-11,16.12-17.52,18.06a2.53,2.53,0,0,0-1.1,4.18Q458.69,467.17,468,478c5.89,6.9,14.26,14.24,17.61,22.79l2.42-3.16a42.74,42.74,0,0,1-18.64-2.14c-5.65-2.13-9-11.2-12.24-16a187.26,187.26,0,0,0-22.76-27.57,2.54,2.54,0,0,0-3.54,0c-4.51,4.93-17.94,15.86-24.57,8.26-3.88-4.46,1.32-10.28,4.93-12.7a20.09,20.09,0,0,1,14.21-3.11c2.44.36,4.16-2.18,2.43-4.17-4.44-5.11-9.59-9.83-12.4-16.11-.69-1.53-2.86-1.49-3.93-.5-6.39,6-13,13.95-21.39,17.17-5.44,2.09-24.52,5-22.72-5,1.44-8,10.4-12.59,17.23-15.26,7.36-2.87,17.27-7.18,24.8-3.17,2.06,1.09,4.91-1.24,3.42-3.42-5.31-7.77-6.55-16.31-9.55-24.94a2.54,2.54,0,0,0-4.18-1.1c-2.51,2.23-6,3.49-9,5a97.4,97.4,0,0,1-12.81,6,35.94,35.94,0,0,1-14.62,2.3c-6-.47-13.83-3.57-9-10.65,4.53-6.62,13.78-10.41,21.38-11.83a40.2,40.2,0,0,1,25,3.38,2.53,2.53,0,0,0,3.76-2.16c1.23-25.28-.56-52.42,8.7-76.41,1.16-3-3.67-4.31-4.82-1.33-9.42,24.41-7.63,52-8.88,77.74l3.76-2.16a45.81,45.81,0,0,0-32.48-3c-8.64,2.4-22.3,9.07-23.06,19.38-.86,11.59,14.88,12.93,23.08,11.72,6.81-1,13.14-3.78,19.23-6.88,4.37-2.23,9.61-4.26,13.31-7.54l-4.18-1.11c3.14,9,4.51,18,10.05,26.13l3.42-3.42c-9.6-5.11-21.33-.41-30.61,3.47-8.57,3.58-19.26,10.47-19.17,21.06.11,11.42,14.44,10.51,22.35,9.55,12.92-1.56,21.51-11.62,30.53-20l-3.93-.5c3,6.64,8.48,11.71,13.18,17.11l2.43-4.18c-7.07-1-14.12.38-19.81,4.89-4.62,3.66-8.53,9.84-6.31,15.89,2.05,5.61,8.46,7.72,13.92,6.93,7.69-1.11,14.72-6.21,19.85-11.81h-3.54a178.72,178.72,0,0,1,26.8,34.08c2.94,4.88,4.79,8.81,10.41,10.81a47.66,47.66,0,0,0,20,2.32c1.44-.13,3.05-1.53,2.41-3.17-3.36-8.55-10.69-15.36-16.56-22.24-6.94-8.15-13.91-16.28-20.83-24.45l-1.1,4.18c9.86-2.92,26.75-13.33,20.31-25.95-6.74-13.2-25.81.6-32.23,7.11h3.54c-3.4-4.19-5.86-9-8.43-13.68l-2.16,3.77c11.17.36,33.75-1.82,31.64-18.21-.73-5.69-5.27-10.59-11.25-10.28-4,.21-8,2.57-11.48,4.3-4.79,2.36-9.48,4.92-14.09,7.61l3,.39c-5.07-5.32-8-14.64-9.29-21.66l-4.18,2.44c8.32,9.12,34.55,5.3,36.16-8.39,1-8.11-6.2-14-13.62-15-5.54-.73-10.95.74-16.15,2.52-3.83,1.3-7.18,2.54-9.63,5.89l4.57.59c-2.6-9.83-1.87-21.53-1.21-31.59a166.17,166.17,0,0,1,2-17.09c.29-1.76.66-3.5.9-5.26a10.89,10.89,0,0,0,.13-1.39c0-1.87.94-1.57-.47-.8l-3.43-.9a5.53,5.53,0,0,1,.05,1.81c-1.68,2.76,2.64,5.27,4.32,2.53Z" transform="translate(-210.67 -56.66)"/></svg>