<svg xmlns="http://www.w3.org/2000/svg" width="16.43in" height="11.02in" viewBox="0 0 1182.92 793.59"><title>RACECAR</title><polygon points="1102.73 6 1178.61 788.86 11.68 566.88 1102.73 6" fill="#fff" stroke="#020202" stroke-miterlimit="10" stroke-width="7.68"/><polygon points="1070.43 67.92 1135.71 741.46 103.13 553.25 1070.43 67.92" fill="#fff" stroke="#020202" stroke-miterlimit="10" stroke-width="6.7"/><path d="M624.42,170.19a497.25,497.25,0,0,0,77.73,18.94,634.66,634.66,0,0,0-77.73,46.05" transform="translate(353.44 89.25)" fill="#fff"/><path d="M393,341.11c-12.64-10.27-19.93-30.17-18-46.33,2.61-21.62,20.75-39.82,42-44.75,12.58-2.93,26.77-1.36,36.79,6.78,11.12,9,15.24,24.59,13.79,38.83s-10.75,30.7-17.25,43.46" transform="translate(353.44 89.25)" fill="#fff"/><path d="M375.35,316.15c14.43.27,30.83-5.52,41.8-14.91,6.63-5.67,11.93-12.71,17.17-19.68,1.58-2.1,3.23-4.45,3-7.06-14.86,1-32.24.42-47.1-.45a27.34,27.34,0,0,0-9.3,1.71" transform="translate(353.44 89.25)" fill="#fff"/><path d="M321.61,461.33c-3.32-11.21-4.74-23.58-10-34.27-7.65-15.61-22.32-31.79-40.85-38.61-20-7.38-44.89-4-62.58,6.8-25.86,15.78-37.23,43.2-36,69.87-14.92,1.86-30,4.45-45,4.38-4.7,0-10.12-.52-12.79-4.38l-.26-.18c4-49.48,28.19-99.11,70.64-124.86,34.5-20.93,80.49-21.3,117.53-5.3a709.1,709.1,0,0,0,164.85,2.85c34.32-38.78,86.26-55.32,135.17-38.32,16.66,7,34.54,19.9,38.91,33,9.56,28.58-17.36,95.59-26.77,124.19a56.67,56.67,0,0,1-11.86-.3l-.28-.54c-3.32-11.2-4.74-23.58-10-34.27-7.65-15.61-22.32-31.79-40.85-38.61-20.05-7.38-44.89-4-62.58,6.8-25.86,15.78-37.23,43.2-36,69.87v.7c-27.69,0-61.48-.37-89.17-.32-19.42,0-22.86,2-42.08,3" transform="translate(353.44 89.25)" fill="#fff"/><path d="M396.87,379.6c-5.68,0-11.93.3-17.42-1.19,5.44-6.22,11.2-15.39,16.63-21.61l26.43-2.16c-3,26.49-5.37,58.59-10.93,84.66-7.68,1.45-19.19.35-27-.3C389.86,420.64,394.77,398.58,396.87,379.6Z" transform="translate(353.44 89.25)" fill="#fff"/><path d="M168.58,377.26c-2.55-.86-10,3.09-13.91,6.6a56.43,56.43,0,0,0-16.35,26.06c-1,3.58-1,8.63,2.6,9.69,2.22.66,4.48-.76,6.3-2.18a75.88,75.88,0,0,0,22.63-29.29c.68-1.56.27-2.67,1.14-4.93.61-1.6-.7-5.87-2.41-5.95" transform="translate(353.44 89.25)" fill="#fff"/><path d="M579.93,435.31c9.51,28.61-7,58.85-36.82,68.77s-61.76-4.21-71.27-32.82,7-60.84,36.82-70.77S570.41,406.7,579.93,435.31Z" transform="translate(353.44 89.25)" fill="#fff"/><circle cx="879.31" cy="541.5" r="33.55" fill="#fff"/><ellipse cx="244.81" cy="456.43" rx="56.96" ry="54.59" transform="translate(221.9 189.84) rotate(-18.4)" fill="#fff"/><circle cx="598.36" cy="545.65" r="33.55" fill="#fff"/><path d="M395.63,338.46c-10.93-9.22-17.17-23.94-17.19-38.17,0-14.05,7.26-27,17.9-35.86,11.4-9.5,27.37-14.44,42-10.93,15.73,3.76,24.6,17.61,25.61,33.2,1.18,18.31-8.87,34.79-16.91,50.51-2.19,4.29,4.28,8.09,6.48,3.79,8.29-16.23,18.43-33.23,18-52.05-.37-16.93-8.45-33.71-24.66-40.51-32-13.44-71.06,11.95-75.52,45.35-2.4,18,5,38.24,18.93,50,3.67,3.09,9-2.19,5.31-5.3Z" transform="translate(353.44 89.25)"/><path d="M377.27,319.31a64.81,64.81,0,0,0,39.18-12.74,84.17,84.17,0,0,0,15.22-15.42c3.93-5,9-10,9.44-16.65a3.76,3.76,0,0,0-3.75-3.75c-9.33.58-18.68.62-28,.38-4.68-.12-9.37-.31-14-.55-4.33-.22-8.64-.82-12.83.52-4.58,1.48-2.62,8.72,2,7.24,4.4-1.42,9.72-.3,14.28-.09,4.13.18,8.26.33,12.39.42,8.74.19,17.5.12,26.23-.42l-3.75-3.75c-.18,3-2.93,5.73-4.63,7.95-1.92,2.53-3.87,5-5.94,7.45A66.31,66.31,0,0,1,410,302a57.64,57.64,0,0,1-32.69,9.78c-4.83,0-4.83,7.48,0,7.5Z" transform="translate(353.44 89.25)"/><path d="M626.31,238.42a629.63,629.63,0,0,1,77.73-46c2.73-1.38,2.28-6.33-.9-6.85a523.13,523.13,0,0,1-77.73-18.94L628,169.2l-1.61-11c-.62-4.22-7.46-3.16-7.37,1q1.62,76,3.23,152c.1,4.82,7.6,4.83,7.5,0q-1.62-76-3.23-152l-7.37,1,1.62,11a3.73,3.73,0,0,0,2.62,2.62,522.53,522.53,0,0,0,77.73,18.94l-.9-6.86a631.62,631.62,0,0,0-77.73,46.05c-3.93,2.75-.18,9.25,3.79,6.48Z" transform="translate(353.44 89.25)"/><path d="M169.58,373.64c-10.7-1.84-21.47,10.46-26.78,18.16-4.37,6.35-15.33,25.35-4.26,30.84,5.5,2.71,10.55-1.74,14.46-5.16a80,80,0,0,0,13.44-15.36c4.17-6.18,15-23.89,3.14-28.48-4.51-1.74-6.46,5.51-2,7.23-.09,0-.72,3.6-.84,4.07a26.3,26.3,0,0,1-2.22,5.71,75.12,75.12,0,0,1-6,9.69c-2,2.73-14.49,17.82-16.91,14.86-1.73-2.12,1.9-9.18,2.76-11.07a54.47,54.47,0,0,1,5.81-9.88,44.37,44.37,0,0,1,8.36-8.79c1.84-1.41,6.5-5,9-4.59,4.72.82,6.75-6.41,2-7.23Z" transform="translate(353.44 89.25)"/><path d="M396.87,375.85c-5.52,0-11,.23-16.42-1.05l1.65,6.26c5.91-6.92,10.73-14.69,16.64-21.61l-2.66,1.1,26.43-2.16-3.75-3.75c-3.16,27.93-5,56.11-10.8,83.67l2.62-2.62c-8.52,1.41-17.43.28-26-.44l3.61,4.75a378.08,378.08,0,0,0,12.4-60.4c.55-4.78-6.95-4.75-7.5,0-2.26,19.76-6.7,39.29-12.13,58.41-.71,2.5,1.24,4.54,3.62,4.74,9.3.78,18.69,1.7,28,.17a3.63,3.63,0,0,0,2.61-2.62c5.92-28.21,7.83-57.07,11.07-85.66a3.76,3.76,0,0,0-3.75-3.75l-16.05,1.31c-3.72.3-10-.46-13,1.95s-5.25,6.57-7.42,9.53c-3,4.09-5.92,8.22-9.21,12.08-1.74,2-1.28,5.57,1.65,6.27,6.08,1.44,12.22,1.35,18.42,1.32C401.7,383.33,401.71,375.83,396.87,375.85Z" transform="translate(353.44 89.25)"/><ellipse cx="244.81" cy="456.43" rx="56.96" ry="54.59" transform="translate(221.9 189.84) rotate(-18.4)" fill="none" stroke="#000" stroke-miterlimit="10" stroke-width="7"/><circle cx="598.36" cy="545.65" r="33.55" fill="none" stroke="#000" stroke-miterlimit="10" stroke-width="7"/><path d="M602.59,459.91a61.05,61.05,0,0,0,11.86.3c4.79-.34,4.83-7.84,0-7.5a61.05,61.05,0,0,1-11.86-.3c-2-.25-3.75,1.9-3.75,3.75,0,2.23,1.73,3.5,3.75,3.75Z" transform="translate(353.44 89.25)"/><path d="M579.93,435.31c9.51,28.61-7,58.85-36.82,68.77s-61.76-4.21-71.27-32.82,7-60.84,36.82-70.77S570.41,406.7,579.93,435.31Z" transform="translate(353.44 89.25)" fill="none" stroke="#000" stroke-miterlimit="10" stroke-width="7"/><circle cx="879.31" cy="541.5" r="33.55" fill="none" stroke="#000" stroke-miterlimit="10" stroke-width="7"/><path d="M605.92,454.63c-2.58-9-4-18.33-7.08-27.2A77.92,77.92,0,0,0,587,405.65c-10.14-13.34-24.07-24.18-40.49-28.38-32.71-8.37-68.65,6.74-85.92,35.58-8.73,14.57-11.45,30.53-11.45,47.26l3.75-3.75c-23.8,0-47.6-.22-71.4-.3-10.79,0-21.64-.34-32.41.5-9.17.71-18.26,2-27.44,2.53l3.75,3.75c0-3.1-1.14-6-1.87-9-1.21-5-2.25-10-3.6-15a78.41,78.41,0,0,0-10.51-23.17c-9.45-14.06-22.89-25.88-39.08-31.38-32.06-10.89-69.33,3-88.11,30.61-10,14.69-14.42,32.55-13.78,50.2l3.75-3.75c-10.41,1.32-20.8,2.94-31.27,3.8a119.76,119.76,0,0,1-15.15.55c-2.07-.09-4.55-.14-6.42-1.19-1.35-.76-2.07-1.95-3.3-2.83l1.85,3.24c4.13-48,27.41-97.41,70.15-122.44,22.63-13.25,49.71-17.34,75.54-14.29,12.94,1.52,24.63,5.61,36.83,9.81,6.49,2.23,14.6,2.14,21.43,2.87q11.73,1.25,23.51,2.1a708.71,708.71,0,0,0,92.4.7q11.77-.68,23.54-1.75c2.22-.2,5.73.07,7.77-1.07,2.7-1.52,5-5.27,7.25-7.46a132.36,132.36,0,0,1,29.95-22.31A119.27,119.27,0,0,1,575.18,297c13,1.34,25.64,4.83,37,11.37,9.83,5.66,21.48,13.69,25.42,24.87,3,8.53,2.1,18.55.93,27.34A239.33,239.33,0,0,1,631.15,394c-5.87,20.78-13.54,41-20.31,61.45-1.52,4.59,5.72,6.56,7.23,2,6-18.33,12.87-36.38,18.4-54.88,5.66-18.93,11.63-39.59,10.4-59.58a39.2,39.2,0,0,0-10-24.72c-8.35-9.46-19.75-16.53-31.21-21.58-21.8-9.6-48.82-9.81-71.65-4.3-27,6.51-51.1,22-69.53,42.58l2.65-1.1a714.16,714.16,0,0,1-116.9,1.95q-14.73-1-29.4-2.55-6.84-.73-13.68-1.61c-4.09-.52-7.45-2.05-11.3-3.45A143.27,143.27,0,0,0,249,319.76c-31.21-.39-61,10-84.55,30.59-22.42,19.57-37.93,46.33-46.54,74.63a186.85,186.85,0,0,0-5.69,24.59q-1,6.15-1.6,12.34c-.37,3.75.2,5.36,3,7.8,6.23,5.45,17.86,3.64,25.3,3.11,11.13-.8,22.17-2.55,33.23-3.95,2-.24,3.83-1.52,3.75-3.75-1-28.82,13.16-56.61,39.56-69.58a72,72,0,0,1,46.79-5.7c15.32,3.52,28.35,13.32,37.81,25.68A71.46,71.46,0,0,1,312,438.38c1.31,4.38,2.31,8.84,3.34,13.29.8,3.49,2.57,7.6,2.57,11.17a3.78,3.78,0,0,0,3.75,3.75c9-.51,17.86-1.75,26.81-2.48,11-.9,22-.59,33-.55,23.8.08,47.6.33,71.4.3a3.8,3.8,0,0,0,3.75-3.75c0-13.2,1.5-25.79,7.37-37.82a70.7,70.7,0,0,1,29.46-31,72.29,72.29,0,0,1,46.41-7.75c15.55,2.76,28.75,11.71,38.8,23.67a71.12,71.12,0,0,1,13,22.26c3,8.87,4.5,18.19,7.08,27.19,1.33,4.63,8.57,2.66,7.23-2Z" transform="translate(353.44 89.25)"/></svg>