<svg xmlns="http://www.w3.org/2000/svg" width="9.33in" height="9.33in" viewBox="0 0 671.84 671.84"><title>ROBOT</title><circle cx="335.92" cy="335.92" r="332.42" fill="#fff" stroke="#231f20" stroke-miterlimit="10" stroke-width="7"/><circle cx="337.17" cy="336.06" r="298.1" fill="#fff" stroke="#231f20" stroke-miterlimit="10" stroke-width="7"/><circle cx="335.15" cy="122.7" r="13.89" fill="#fff"/><rect x="273.44" y="174.88" width="122.53" height="109.4" rx="12" fill="#fff"/><ellipse cx="415.46" cy="173.57" rx="13.26" ry="18.75" transform="translate(-86.22 252.09) rotate(-27.6)" fill="#fff"/><ellipse cx="361.63" cy="171.75" rx="18.75" ry="13.26" transform="translate(9.12 477.33) rotate(-66.99)" fill="#fff"/><path d="M315.66,264.46q-1.87-25.5-3.74-51c-.13-1.71-.37-3.64-1.74-4.68a6.06,6.06,0,0,0-3.62-.83c-4.78-.1-9.66-.17-14.24,1.2s-8.9,4.46-10.53,9c-9.34,30.16-7.14,61.8,4.47,91.16,5.09,15.42,14.76,28.91,25.37,41.2,6.42,7.43,13.29,14.57,21.29,20.27,18.31,13,41.76,17.68,64.12,15.53S440,374.33,459.4,363c27.3-18.2,30.89-57.35,36.23-88.78,2.48-14.65,3.95-30.34,1.82-45l.19,1.42a26.76,26.76,0,0,0-2.47-9c-1.11-2.36-2.69-4.67-5-5.82a15,15,0,0,0-4.41-1.11l-10.94-1.6c-4.37-.64-10-1.7-11.76,2.35l-.32,1.09a175.35,175.35,0,0,1-.81,47.72l-.28.65c-47.3,5.55-97.05,6.24-144.25-.07" transform="translate(-53.08 39.85)" fill="#fff"/><path d="M549.08,343.9c3.33-3.81,2.25-11.46-1.8-14.49s-10.2-2.47-14,.84a9.05,9.05,0,0,0-2.73,3.85c-1.64,4.8,2.28,9.84,6.77,12.2q-8.52,2.1-16.92,4.68l-1.06-.85c-6.65-3.94-9.63-13.37-8.1-20.95a19.28,19.28,0,0,1,15.85-14.89c-3.09-19.56-7.71-41.56-10.49-61.17a28.64,28.64,0,0,1-17.07-2.53l.94-12.55,14.9,1.43h.45a33.07,33.07,0,0,1-1.57-13.79A135.89,135.89,0,0,0,535.11,223c6.19,26.08,11.8,54.15,15.37,80.72.21,2.7.69,4,.9,6.71,4.12-4.19,11.54-3.78,16,0s6.17,10.17,5.52,16-1.66,11.68-4.81,16.64" transform="translate(-53.08 39.85)" fill="#fff"/><path d="M277.06,235.14a21.63,21.63,0,0,1-14.83,1.69c-3.44,19.5-8.1,39.78-11.85,59.22,7.62,1.31,12.68,9.3,13.95,16.92s-3.11,17.77-9.89,21.48q-8.3-2.85-16.75-5.25c4.57-2.2,8.65-7.11,7.18-12a9.07,9.07,0,0,0-2.61-3.94c-3.71-3.44-9.83-4.22-14-1.32s-5.91,10.8-2.71,14.72c-5.86.06-9.12-.21-15-.16-3-5.06-5.51-10.56-6-16.42s1.46-12.14,6.06-15.8,12.32-6.51,16.3-2.19c.3-2.69.88-5.38,1.18-8.07v.47c4.47-26.43,8.83-52.59,15.89-78.45a136.44,136.44,0,0,0,20.79,3.35c.3,4.65,1.92,9.45.28,13.82l14-.87" transform="translate(-53.08 39.85)" fill="#fff"/><path d="M431.29,379.75c2.65,11.7,5.46,29.81,8.8,41.27l.22.85a30.17,30.17,0,0,0-8.54,2.35,5.11,5.11,0,0,0-3.11,2.8,7.73,7.73,0,0,0-.09,3.39c2.78,23.06,6.2,44.77,10.35,67.56l-.18.4c-1.61,3.43-5.36,6.57-7.86,9.1a4.29,4.29,0,0,0-1.26,1.77,5.1,5.1,0,0,0-.05,1.95l.81,8c21.77-4.63,45.59-7.5,66.59-15.7,1.11-.44,2.46-1.83,1.68-2.89-.47-2.86-1.77-9.66-2.23-12.52a4.89,4.89,0,0,0-.57-1.85A3.37,3.37,0,0,0,494,485l-8.55-3.1,0-.77c-3.45-22.33-7.61-44.4-13.8-65.9a2.48,2.48,0,0,0-.51-1.07,1.62,1.62,0,0,0-1.48-.2l-11.27,2.29,0-1.09C455.2,401.4,450.06,382.75,447,369" transform="translate(-53.08 39.85)" fill="#fff"/><path d="M352,382.93c-1.86,11.89-3.37,30.17-6,41.87l-.17.87a34.62,34.62,0,0,1,9.32,1.63,5.39,5.39,0,0,1,3.56,2.53,7.33,7.33,0,0,1,.38,3.37c-1.06,23.22-2.92,45.14-5.46,68.2l.22.38c2,3.29,6.27,6.1,9.16,8.42a4.34,4.34,0,0,1,1.49,1.66,4.67,4.67,0,0,1,.22,1.94l-.2,8c-23.66-2.81-49.35-3.7-72.47-10.13-1.22-.34-2.78-1.61-2-2.74.26-2.89,1.08-9.77,1.34-12.66a4.62,4.62,0,0,1,.45-1.9,3.67,3.67,0,0,1,1.88-1.36l8.89-3.8,0-.77c1.83-22.55,4.45-44.89,9.29-66.82a2.4,2.4,0,0,1,.45-1.11,1.79,1.79,0,0,1,1.56-.33l12.24,1.35,0-1.09c2.18-14,6.13-33,8.3-47" transform="translate(-53.08 39.85)" fill="#fff"/><path d="M289.88,308.26c-11.15-28.67-13.41-59.57-4.48-89.17,1.4-4.63-5.84-6.61-7.23-2-9.28,30.76-7.12,63.32,4.48,93.15,1.73,4.45,9,2.52,7.23-2Z" transform="translate(-53.08 39.85)"/><path d="M285,220c2.55-5.88,8.3-7.83,14.34-8.25,2.6-.19,7.47-1.18,8.8,1.71,1.21,2.64.58,7.88.79,10.79q1.47,20.12,3,40.22c.35,4.78,7.86,4.82,7.5,0L317.25,235l-1.15-15.69c-.25-3.49.06-7.75-1.6-11-3.23-6.25-13.53-4.58-19.19-3.71-7.07,1.08-13.81,4.74-16.76,11.52-1.9,4.39,4.55,8.21,6.48,3.79Z" transform="translate(-53.08 39.85)"/><path d="M317.36,268.56c47.83,6.3,96.38,5.62,144.25.07,4.73-.55,4.79-8.06,0-7.5-47.87,5.55-96.42,6.23-144.25-.07-4.77-.63-4.73,6.88,0,7.5Z" transform="translate(-53.08 39.85)"/><path d="M459,216.51a182.21,182.21,0,0,1-.68,46.72c-.68,4.72,6.55,6.76,7.23,2a189.13,189.13,0,0,0,.95-48.71c-.54-4.74-8.05-4.79-7.5,0Z" transform="translate(-53.08 39.85)"/><path d="M466.26,217.31c1.87-3.21,13.76.28,16.64.71s5.73.59,7.75,3.17,2.86,6.31,3.24,9.38c.6,4.73,8.11,4.79,7.5,0s-1.79-9.67-4.65-13.7c-3-4.23-6.9-5.35-11.84-6.08-7.46-1.11-20.29-5.54-25.12,2.74-2.44,4.18,4,8,6.48,3.78Z" transform="translate(-53.08 39.85)"/><path d="M493.7,229.15c2,14.71.73,29.48-1.69,44.06-1.75,10.52-3.27,21.09-5.41,31.55-4.18,20.5-11,42.57-29.1,55-3.95,2.71-.21,9.21,3.79,6.47,19-13,27.27-35,32-56.69,2.45-11.36,4.1-22.87,6-34.33,2.52-15.24,4-30.66,2-46-.63-4.71-8.14-4.78-7.5,0Z" transform="translate(-53.08 39.85)"/><path d="M282.65,310.25c4.5,13.18,11.81,24.87,20.42,35.73,9,11.36,19,22.44,31.37,30.27,23.42,14.88,53.54,17.55,80.05,10.67,16.59-4.3,32.05-12.11,46.8-20.7,4.17-2.42.4-8.91-3.79-6.47-30.15,17.55-63.71,29.67-98.6,19.36-16.52-4.89-29.72-14.76-41.18-27.4s-22.21-27-27.84-43.45c-1.55-4.54-8.8-2.59-7.23,2Z" transform="translate(-53.08 39.85)"/><path d="M500.44,241.79l14.9,1.43c4.81.45,4.78-7.05,0-7.5l-14.9-1.43c-4.8-.46-4.77,7.05,0,7.5Z" transform="translate(-53.08 39.85)"/><path d="M497.61,253.83a34.56,34.56,0,0,0,20,2.91c4.76-.68,2.73-7.9-2-7.24a25.35,25.35,0,0,1-14.18-2.15c-4.35-2-8.16,4.44-3.78,6.48Z" transform="translate(-53.08 39.85)"/><path d="M519.41,238.47a33.63,33.63,0,0,1-1.44-12.8l-3.75,3.75a152,152,0,0,0,21.89-2.77c4.73-.94,2.73-8.18-2-7.23a138.6,138.6,0,0,1-19.9,2.5,3.87,3.87,0,0,0-3.75,3.75,39.39,39.39,0,0,0,1.71,14.79c1.43,4.6,8.67,2.63,7.23-2Z" transform="translate(-53.08 39.85)"/><path d="M513,254.12c2.95,20.48,7.23,40.74,10.5,61.17.76,4.75,8,2.73,7.23-2-3.26-20.44-7.54-40.69-10.49-61.18-.69-4.76-7.92-2.73-7.24,2Z" transform="translate(-53.08 39.85)"/><path d="M531.5,224c6.29,26.67,11.67,53.57,15.37,80.73.64,4.76,7.87,2.73,7.23-2-3.7-27.16-9.07-54-15.37-80.72-1.11-4.7-8.34-2.71-7.23,2Z" transform="translate(-53.08 39.85)"/><path d="M526.07,310.68c-20.24,3.6-25.78,31.43-8.65,42.69,4.05,2.66,7.81-3.83,3.79-6.48-12.17-8-6.52-26.6,6.85-29,4.74-.85,2.73-8.08-2-7.23Z" transform="translate(-53.08 39.85)"/><path d="M546.73,303.76c.24,2.25.66,4.46.9,6.71a3.8,3.8,0,0,0,6.4,2.65c6-5.25,13.3.8,14.82,7,1.63,6.65-.63,15.31-4,21.09-2.43,4.18,4,8,6.48,3.78,5.39-9.25,8.14-23.52,2.13-33.13-5.37-8.59-17.05-10.84-24.75-4.09l6.41,2.66c-.24-2.25-.66-4.47-.9-6.71-.49-4.75-8-4.8-7.5,0Z" transform="translate(-53.08 39.85)"/><path d="M521.36,354.6q8.42-2.55,16.93-4.68c3.15-.79,3.63-5.25.89-6.86-2.18-1.27-5.2-3.5-5.28-6.33-.11-3.45,4-5.54,7-5.56,5.76,0,8.14,6.52,5,10.84-2.85,3.9,3.66,7.65,6.48,3.79,7.37-10.07-1.9-23.85-13.82-21.9-5.75.94-11.54,5.35-12,11.52s3.93,11.19,8.94,14.12l.89-6.86q-8.52,2.15-16.92,4.68c-4.61,1.4-2.64,8.64,2,7.24Z" transform="translate(-53.08 39.85)"/><path d="M549.73,348c6.15.13,12.21-1.24,18.37-1.11,4.83.1,4.83-7.4,0-7.5-6.16-.13-12.22,1.24-18.37,1.11-4.83-.1-4.83,7.4,0,7.5Z" transform="translate(-53.08 39.85)"/><path d="M279.12,218.63l-14,.87c-4.79.29-4.83,7.79,0,7.5l14-.87c4.8-.29,4.83-7.79,0-7.5Z" transform="translate(-53.08 39.85)"/><path d="M275.16,231.9a19.64,19.64,0,0,1-11.93,1.31c-4.72-.87-6.74,6.36-2,7.23A28.8,28.8,0,0,0,279,238.38c1.87-.81,2.26-3.53,1.35-5.13-1.1-1.94-3.29-2.15-5.14-1.35Z" transform="translate(-53.08 39.85)"/><path d="M268.73,224.24c1.51-5,.3-9.75-.15-14.81a3.88,3.88,0,0,0-3.75-3.75,139.65,139.65,0,0,1-19.8-3.22c-4.69-1.1-6.69,6.13-2,7.24a154.22,154.22,0,0,0,21.79,3.48l-3.75-3.75c.38,4.26,1.68,8.62.42,12.82-1.4,4.63,5.84,6.61,7.23,2Z" transform="translate(-53.08 39.85)"/><path d="M258.61,235.83c-3.53,19.82-8,39.46-11.84,59.23-.92,4.71,6.31,6.73,7.23,2,3.83-19.76,8.31-39.4,11.85-59.23.84-4.72-6.39-6.74-7.24-2Z" transform="translate(-53.08 39.85)"/><path d="M240.42,205.08c-7,25.8-11.44,52.13-15.89,78.45-.8,4.72,6.43,6.75,7.23,2,4.45-26.32,8.92-52.66,15.89-78.45,1.27-4.67-6-6.66-7.23-2Z" transform="translate(-53.08 39.85)"/><path d="M249.38,299.67c14.27,3.24,14.46,24.68,3.17,31.54-4.12,2.51-.35,9,3.78,6.48,16.6-10.09,15.82-40.54-4.95-45.25-4.7-1.07-6.71,6.16-2,7.23Z" transform="translate(-53.08 39.85)"/><path d="M224.41,284.06c-.35,2.7-.83,5.37-1.18,8.07l6.4-2.65c-7.49-6.76-19.41-1.71-24.7,5.56-7.53,10.34-3.33,23.36,2.42,33.4,2.4,4.18,8.88.41,6.47-3.79-3.68-6.42-7.18-14.06-4.67-21.55,1.5-4.48,10.07-12.93,15.18-8.32,2.61,2.36,6,.53,6.4-2.65.35-2.7.83-5.37,1.18-8.07.62-4.78-6.89-4.73-7.5,0Z" transform="translate(-53.08 39.85)"/><path d="M255.44,330.84q-8.31-2.83-16.75-5.26l.89,6.86c5.09-2.76,9.67-7.7,9.31-13.88-.38-6.36-6.38-11-12.27-11.89-11.67-1.83-21.16,11.81-14.29,21.93,2.7,4,9.2.22,6.48-3.79-2.86-4.21,0-10.71,5.25-10.84,3-.07,6.71,1.7,7.11,4.95s-2.73,5.61-5.37,7c-2.9,1.57-2.13,6,.89,6.86q8.44,2.42,16.76,5.25c4.57,1.56,6.54-5.68,2-7.23Z" transform="translate(-53.08 39.85)"/><path d="M225.57,323c-5,0-10-.18-15-.16-4.83,0-4.84,7.53,0,7.5,5,0,10,.19,15,.16,4.83,0,4.84-7.52,0-7.5Z" transform="translate(-53.08 39.85)"/><ellipse cx="415.46" cy="173.57" rx="13.26" ry="18.75" transform="translate(-86.22 252.09) rotate(-27.6)" fill="none" stroke="#000" stroke-miterlimit="10" stroke-width="3"/><ellipse cx="361.63" cy="171.75" rx="18.75" ry="13.26" transform="translate(9.12 477.33) rotate(-66.99)" fill="none" stroke="#000" stroke-miterlimit="10" stroke-width="3"/><path d="M369.71,215.74A35.75,35.75,0,0,0,410.17,213c3.81-2.95-1.54-8.22-5.31-5.3a28.08,28.08,0,0,1-31.36,1.59c-4.15-2.49-7.93,4-3.79,6.47Z" transform="translate(-53.08 39.85)"/><circle cx="311.14" cy="215.65" r="9.14"/><circle cx="359.52" cy="216.54" r="9.14"/><circle cx="335.15" cy="122.7" r="13.89" fill="none" stroke="#000" stroke-miterlimit="10" stroke-width="6"/><rect x="273.44" y="174.88" width="122.53" height="109.4" rx="12" fill="none" stroke="#000" stroke-miterlimit="10" stroke-width="6"/><path d="M384.91,98c.44,12-.34,24,.1,36,.18,4.82,7.68,4.84,7.5,0-.44-12,.34-24-.1-36-.18-4.81-7.68-4.84-7.5,0Z" transform="translate(-53.08 39.85)"/><path d="M330.73,372.5c-2.49,15.71-5.82,31.28-8.3,47-.75,4.72,6.48,6.75,7.23,2,2.48-15.71,5.82-31.27,8.3-47,.75-4.72-6.48-6.76-7.23-2Z" transform="translate(-53.08 39.85)"/><path d="M348.37,381.94c-2.14,13.92-3,28.07-6,41.86-1,4.71,6.21,6.72,7.23,2,3-13.8,3.84-27.94,6-41.87.72-4.72-6.5-6.76-7.23-2Z" transform="translate(-53.08 39.85)"/><path d="M326.09,417.82c-4.4-.48-13.89-3.65-17,.84-1.75,2.49-1.83,6.61-2.41,9.54q-1.22,6.14-2.22,12.31c-2.61,15.89-4.31,31.92-5.63,48-.4,4.81,7.1,4.78,7.5,0,.94-11.39,2-22.77,3.58-34.1.76-5.55,1.61-11.1,2.59-16.62.93-5.27,1.4-11.27,3.44-16.21l-1.72,2.24c-.87.39-.4.52,1.41.38l3.5.38,7,.77c4.79.53,4.75-7,0-7.5Z" transform="translate(-53.08 39.85)"/><path d="M345.83,429.42c3,.19,8.67.12,9.51,3.78.64,2.79-.32,6.73-.49,9.61q-.56,9.93-1.31,19.86c-1,12.93-2.25,25.84-3.66,38.73-.53,4.79,7,4.75,7.5,0,1.83-16.65,3.37-33.33,4.46-50q.41-6.19.72-12.38c.18-3.39,1-7.39-.42-10.59-2.48-5.65-11.1-6.14-16.31-6.47-4.82-.31-4.8,7.19,0,7.5Z" transform="translate(-53.08 39.85)"/><path d="M300.68,486c-5.17,2.22-12,3.44-13,9.81-.66,4.33-1,8.78-1.41,13.15-.46,4.8,7.05,4.77,7.5,0,.32-3.45.75-6.89,1.11-10.33.21-2,0-2.17,1.93-2.88,2.59-1,5.12-2.18,7.66-3.27,4.42-1.9.61-8.36-3.79-6.48Z" transform="translate(-53.08 39.85)"/><path d="M350.61,503.67a33.15,33.15,0,0,0,7.53,7.47c1.67,1.28,2.61,1.83,2.79,4a60,60,0,0,1-.16,6.7c-.13,4.83,7.37,4.83,7.5,0,.1-4,1.4-9.83-1.46-13.18s-7.19-5.05-9.72-8.77c-2.7-4-9.2-.22-6.48,3.78Z" transform="translate(-53.08 39.85)"/><path d="M286.4,508c-1.26,6.28,5.13,7.57,9.9,8.71a220.52,220.52,0,0,0,22.1,4c15.33,2.09,30.76,3.12,46.12,4.91,4.78.56,4.74-6.94,0-7.5-11.82-1.38-23.69-2.3-35.52-3.6-6.09-.68-12.16-1.46-18.2-2.49-3-.52-6-1.09-9-1.74-1.66-.36-7.95-.88-8.75-2.33l.38,2.89.17-.85c.95-4.71-6.28-6.73-7.23-2Z" transform="translate(-53.08 39.85)"/><path d="M443.34,370c3.52,15.47,7.83,30.74,11.35,46.2,1.07,4.7,8.31,2.71,7.23-2-3.52-15.47-7.83-30.74-11.35-46.2-1.07-4.7-8.3-2.71-7.23,2Z" transform="translate(-53.08 39.85)"/><path d="M427.67,380.74c3.06,13.73,5,27.73,8.8,41.27,1.31,4.64,8.55,2.67,7.23-2-3.84-13.54-5.73-27.55-8.8-41.27-1-4.71-8.28-2.72-7.23,2Z" transform="translate(-53.08 39.85)"/><path d="M459.35,419.88l5.63-1.15c1.3-.26,4-1.41,5.12-.94l-2.24-1.72c2.26,4.74,3.06,10.82,4.3,15.93q2,8.4,3.76,16.87c2.26,11,4.15,22.14,5.88,33.26.74,4.76,8,2.74,7.23-2-2.47-15.87-5.27-31.7-9-47.34q-1.33-5.6-2.8-11.16c-.77-2.91-1.15-6.91-2.94-9.36-3.4-4.66-12.59-.53-17,.37-4.72,1-2.72,8.19,2,7.23Z" transform="translate(-53.08 39.85)"/><path d="M439.32,418.25c-4.92.75-12.51,2.23-14.27,7.77-1.15,3.6.25,8.38.72,12s1,7.59,1.52,11.38c2.3,16.57,5,33.07,8,49.54.87,4.74,8.09,2.73,7.24-2-2.32-12.74-4.48-25.52-6.4-38.33q-1.47-9.81-2.75-19.64c-.35-2.69-1.83-7.29-.87-9.84.68-1.82,1.73-2,3.6-2.57a34.23,34.23,0,0,1,5.19-1.1c4.76-.73,2.74-8-2-7.24Z" transform="translate(-53.08 39.85)"/><path d="M484.45,485.53c2.39.87,4.89,2.14,7.37,2.66l1.18.43q-.6-1-.3,0a15.77,15.77,0,0,1,.42,2.36c.63,3.55,1.32,7.09,1.91,10.65.79,4.75,8,2.73,7.23-2-.73-4.4-1.16-9.21-2.42-13.49-1.55-5.26-9-6.21-13.4-7.81s-6.5,5.59-2,7.23Z" transform="translate(-53.08 39.85)"/><path d="M435.51,496.47c-2.07,3.88-5.8,6-8.31,9.52-2.64,3.66-1,9.07-.57,13.2.48,4.76,8,4.81,7.5,0-.24-2.4-.51-4.8-.73-7.2-.19-2.07.22-2,1.75-3.46a34.32,34.32,0,0,0,6.83-8.27c2.27-4.26-4.2-8.05-6.47-3.79Z" transform="translate(-53.08 39.85)"/><path d="M495,501.6l.16,1.12.38-2.89c-1.07,1.54-6.24,2.45-8,3-2.57.82-5.17,1.58-7.78,2.28-5.55,1.5-11.17,2.77-16.8,3.93-11.17,2.3-22.43,4.17-33.59,6.52-4.72,1-2.72,8.22,2,7.23,13.83-2.91,27.81-5.08,41.59-8.25a197.15,197.15,0,0,0,20-5.61c5-1.72,10.21-3.15,9.32-9.35-.68-4.76-7.91-2.73-7.23,2Z" transform="translate(-53.08 39.85)"/><use xlink:href="" /></svg>
