<svg xmlns="http://www.w3.org/2000/svg" width="8.9in" height="9.13in" viewBox="0 0 640.57 657.47"><title>ROCKET</title><ellipse cx="399" cy="306.09" rx="209.99" ry="402.24" transform="translate(-179.67 382.94) rotate(-43.68)" fill="#fff" stroke="#000" stroke-miterlimit="10" stroke-width="7.24"/><ellipse cx="397.49" cy="305.45" rx="186.85" ry="357.91" transform="translate(-179.64 381.72) rotate(-43.68)" fill="#fff" stroke="#000" stroke-miterlimit="10" stroke-width="6.44"/><path d="M393.14,199.22c23.83,13.33,48.05,28.38,71.12,43A53.09,53.09,0,0,1,474.53,250c3.14,3.29,5.39,7.3,7.62,11.26q38.8,69,81.32,135.73a814.24,814.24,0,0,1-87.93-38.75c-5.05-2.59-10.19-5.32-14-9.52Z" transform="translate(-78.72 22.64)" fill="#fff"/><path d="M279.27,288.94q13,38.85,28,77A53,53,0,0,0,313,377.44c2.64,3.69,6.16,6.66,9.63,9.59q60.5,51,118.15,105.25a813.65,813.65,0,0,0-21.64-93.63c-1.6-5.44-2.15-7.26-5.57-11.8" transform="translate(-78.72 22.64)" fill="#fff"/><path d="M422,391.82c3,2,7.14,3.41,10.06,2.68,7.45-1.87,13.44-7.27,19.09-12.48l14.31-13.2a8.55,8.55,0,0,0,2.5-3.18c.47-1.28-.63-4.37-1.59-5.62-19.1-44-38-87.79-57.11-131.77-3.88-8.93-8.2-21.11-14.78-28.27l-75.51-63.83c-12.54-10.61-25.11-21.23-38.64-30.56a251.31,251.31,0,0,0-56.67-29.25c-5.69-2.08-12.94-3.62-17.09.8-2.35,2.49-2.87,6.18-2.87,9.61,0,7,1.62,14,3.33,20.77,15.93,63.3,41.7,125.26,73.3,182.37A1590.71,1590.71,0,0,0,422.15,392" transform="translate(-78.72 22.64)" fill="#fff"/><polygon points="155.41 213.03 183.34 183.85 200.56 172.01 235.96 157.43 191.98 123.05 160.84 137.62 137.76 164.9 155.41 213.03" fill="#fff"/><path d="M210,74.93s-5.4,2.44-5.85,7.13,4.15,30.64,5.85,36.82,6.51,23.37,6.51,23.37,5.64-10,10.65-15.29S244,115.4,248.62,111s22.07-10.6,22.07-10.6-29.54-18.84-36.56-21.67S210,74.93,210,74.93Z" transform="translate(-78.72 22.64)" fill="#fff"/><path d="M438.62,393.25A299.56,299.56,0,0,0,467,455.82c1.73,2.88,4.33,6.14,7.81,5.73,3.64-.43,5.28-4.59,5.34-8.05s-.61-7.24,1.41-10.13l38.55,57.84c3,4.42,6,9,10.69,11.85a4.78,4.78,0,0,0,2.92.9c2.67-.3,3-3.79,2.67-6.3q-2.32-16-4.66-32c17.58,18.52,35.53,37.34,58.23,50,3.88,2.16,10,3.53,11.91-.33a7,7,0,0,0,.27-4.08c-2.62-17.33-14.74-32-27.72-44.5s-27.48-24-37-39c.44,4.52,7.64,6.16,11.16,3.06s3.37-8.64,1-12.58-6.48-6.66-10.43-9.25c-24.08-15.73-49.15-33.31-73.23-49Z" transform="translate(-78.72 22.64)" fill="#fff"/><ellipse cx="312.33" cy="211.28" rx="23.46" ry="38.56" transform="translate(-142.53 260.53) rotate(-38.12)" fill="#fff"/><ellipse cx="369.53" cy="282.18" rx="14.27" ry="23.46" transform="translate(-174.1 310.97) rotate(-38.12)" fill="#fff"/><path d="M420.07,395.06c12.27,7.58,23.26-.89,32.48-9.27,5.48-5,11.53-9.81,16.53-15.27,3.75-4.1,2.68-7.8.5-12.39-7.14-15-13.25-30.54-19.85-45.77q-9.5-21.94-19-43.9c-6.26-14.46-12.64-28.89-18.81-43.4-2.44-5.72-4.69-11.55-7.59-17.06-3.44-6.56-7.64-11-13.26-15.78q-36.18-30.58-72.36-61.17c-22.82-19.26-46.26-37.19-73.48-49.81-6.2-2.88-12.52-5.54-18.93-7.91-5.29-2-11.17-3.76-16.81-2.17-13.29,3.77-9.65,21.91-7.45,31.76,12.88,57.64,36,113.82,62.94,166.21q2.94,5.72,6,11.38c1.91,3.58,3.59,8.11,6.13,11.27s6.35,5.39,9.4,7.82q5.14,4.08,10.3,8.11,19.38,15.15,39.21,29.72,41.19,30.26,84.27,57.79c4.08,2.62,7.84-3.87,3.79-6.47A1610.87,1610.87,0,0,1,288.84,292c-2.76-2.2-5.17-4.1-7.06-7.16-1.61-2.58-2.93-5.38-4.36-8.06q-5.21-9.74-10.14-19.59Q258.19,239,250,220.41a740.19,740.19,0,0,1-28.91-76.8c-4-12.86-7.74-25.85-10.95-39-1.59-6.5-4-14.65-2.47-21.35,1.75-7.51,9.58-5.24,14.95-3.36,25.45,8.89,49.1,23,70.25,39.56,22.74,17.79,44.4,37,66.45,55.67l15.85,13.41c5.6,4.73,12.1,9.21,17.08,14.57,7.95,8.55,11.55,22,16.12,32.48q19.44,44.82,38.84,89.66,4.75,11,9.52,22c1.85,4.27,3.58,8.61,5.56,12.82a26.44,26.44,0,0,1,1.38,2.77c.79,2.57-.42,2.86-2.33,4.64-5.49,5.1-10.92,10.3-16.57,15.22-6,5.25-13.08,10.72-20.92,5.87-4.12-2.54-7.89,3.94-3.79,6.48Z" transform="translate(-78.72 22.64)"/><path d="M219.72,144.14A83.76,83.76,0,0,1,270.19,104c4.64-1.32,2.67-8.56-2-7.24a91.42,91.42,0,0,0-55,43.57c-2.34,4.23,4.14,8,6.48,3.78Z" transform="translate(-78.72 22.64)"/><path d="M237.37,192.27c18.91-26.46,47.45-45.42,78.3-55.1,4.59-1.44,2.63-8.68-2-7.23-32.83,10.3-62.69,30.42-82.78,58.55-2.81,3.93,3.69,7.68,6.48,3.78Z" transform="translate(-78.72 22.64)"/><path d="M391.24,202.46c15.2,8.52,30.15,17.46,45,26.61q11.1,6.84,22.11,13.83c7.07,4.46,13.54,8.5,18,15.79,8.89,14.47,16.83,29.59,25.39,44.26q13.31,22.79,27,45.32,15.48,25.46,31.48,50.58l4.24-5.5Q538,383.47,512.22,371.8q-12.44-5.67-24.69-11.73c-8-4-17-7.55-23.34-14-3.37-3.47-8.67,1.84-5.3,5.31,6.4,6.6,15.06,10.32,23.17,14.37q13.06,6.51,26.38,12.56,26.61,12.11,54,22.31c3.09,1.15,5.92-2.87,4.24-5.51q-29.1-45.75-56.52-92.53c-9-15.31-17.48-30.89-26.49-46.17-8.18-13.87-23-20.91-36.27-29.17C430.17,216.44,412.76,205.93,395,196c-4.22-2.36-8,4.12-3.79,6.48Z" transform="translate(-78.72 22.64)"/><path d="M275.66,289.94q8.49,25.43,17.88,50.56,4.79,12.79,9.8,25.49c2.72,6.88,5.6,13.3,10.92,18.58,5.9,5.85,12.67,10.95,19,16.34q10.27,8.77,20.47,17.64,20,17.42,39.73,35.19Q416,474.1,438.15,494.93c2.88,2.71,6.88-.06,6.27-3.65q-4.95-28.9-11.89-57.42-3.43-14-7.35-27.89c-2.1-7.41-3.74-14.73-8.35-21-2.83-3.85-9.34-.11-6.48,3.79,4.75,6.46,6.25,14.38,8.37,22q3.75,13.42,7,27,6.69,27.57,11.43,55.55l6.27-3.65q-38-35.69-77.16-70Q347,402.75,327.51,386.24c-6.24-5.28-11.76-10.11-15.12-17.75-3.52-8-6.46-16.33-9.56-24.51q-10.53-27.81-19.94-56c-1.52-4.55-8.77-2.6-7.23,2Z" transform="translate(-78.72 22.64)"/><path d="M435,394.24a300.28,300.28,0,0,0,25.64,58.11c3.29,5.75,8.05,15.26,16.34,12.54a10.06,10.06,0,0,0,6-6.31c1.58-4.27-.31-9.38,1.85-13.32h-6.47l22.58,33.88c6.9,10.35,13.21,21.73,21.27,31.23,2.66,3.14,7,7.6,11.55,7.34,3.77-.21,5.9-3.31,6.39-6.76.74-5.27-1.13-11.32-1.88-16.53l-2.88-19.78-6.27,3.65c10.39,10.95,20.83,21.92,32.34,31.71a182.92,182.92,0,0,0,17.1,13c5.08,3.39,10.77,7.65,17,8.33,15.65,1.72,9.38-17.58,5.74-25.62-5.76-12.7-15.45-23.31-25.44-32.83-12.35-11.77-25.83-22.67-35.22-37.11a3.77,3.77,0,0,0-6.85,2.89c1.89,8.6,14.22,9.67,19,2.95,7.25-10.27-3.06-20.21-11.08-25.52-24.71-16.37-49.08-33.25-73.89-49.48-4.05-2.65-7.81,3.84-3.78,6.47,16.87,11.05,33.5,22.46,50.22,33.74,8.07,5.44,16.25,10.74,24.32,16.18,3.51,2.36,8.23,5.42,8.9,10,.32,2.25-.25,4.93-2.77,5.51-1.56.36-3.3-.23-3.66-1.84l-6.85,2.89c17,26.19,48.82,41.51,61.07,70.95,1.26,3,3.5,7.76,3.17,11.1-.46,4.73-6.36.89-8.8-.52a153.87,153.87,0,0,1-20.26-14.21c-12.55-10.33-23.78-22.13-35-33.9-2.83-3-6.76.25-6.27,3.65,1.47,10,3.06,20.07,4.39,30.13.39,2.91,1.22,4.07-1.66,1.73a24.83,24.83,0,0,1-3.37-3.43c-3.2-3.82-5.77-8.23-8.53-12.37q-17.07-25.6-34.15-51.22c-1.5-2.26-5-2.6-6.47,0a17.32,17.32,0,0,0-2,9c0,2.32.66,7.95-3.19,7-2.55-.66-5.3-7.51-6.52-9.65q-2.91-5.13-5.61-10.36a287.79,287.79,0,0,1-18.83-45.18c-1.45-4.58-8.69-2.62-7.23,2Z" transform="translate(-78.72 22.64)"/><ellipse cx="312.33" cy="211.28" rx="23.46" ry="38.56" transform="translate(-142.53 260.53) rotate(-38.12)" fill="none" stroke="#000" stroke-miterlimit="10" stroke-width="7"/><ellipse cx="369.53" cy="282.18" rx="14.27" ry="23.46" transform="translate(-174.1 310.97) rotate(-38.12)" fill="none" stroke="#000" stroke-miterlimit="10" stroke-width="7"/></svg>