<svg xmlns="http://www.w3.org/2000/svg" width="10.6in" height="10.09in" viewBox="0 0 763.17 726.16"><title>SUPERHERO</title><polygon points="613.41 719.09 382.05 597.88 151.04 719.76 194.82 462.26 7.53 280.22 265.94 242.29 381.2 7.91 497.13 241.96 755.66 279.14 568.89 461.73 613.41 719.09" fill="#fff" stroke="#000" stroke-miterlimit="10" stroke-width="7"/><polygon points="581.82 676.21 381.26 571.14 181.01 676.78 218.97 453.58 56.61 295.77 280.62 262.89 380.53 59.72 481.02 262.61 705.13 294.84 543.23 453.11 581.82 676.21" fill="#fff" stroke="#000" stroke-miterlimit="10" stroke-width="7"/><path d="M351.85,245.84,343.23,230c-2.31-6.33-2.88-24.19-2.77-29.27s6.22-7,11.2-10.55a94.65,94.65,0,0,0,13.82-12.63c2.88-3.27,4.24-12.06,7.1-13.18s13.12,8.77,20,11.3,13.44,4.8,22.76,4.8,16.52-6.81,21.76-10.86,1.76-3.54,6.12,5.76,7.67,11.14,9,13.74,7.79,6.37,7.9,9.21-4,16.71-5.23,22.95-1.07,10.46-2.67,16.53-9,8.6-9,8.6-16.07,18.84-27.77,24.27a42.67,42.67,0,0,1-33.7.77,53.48,53.48,0,0,1-8.55-4.55,78.7,78.7,0,0,1-21.34-20.81" transform="translate(-15.46 81.52)" fill="#fff"/><path d="M458.91,194.93c-15.23-4.1-33.26-3.07-48.38,1.4a55,55,0,0,0-29.66-8c-10.15.22-20.15,2.48-30,4.94-2.81.69-5.79,1.52-7.67,3.72-1.7,2-2.15,4.74-2.53,7.33-.31,12.27-.2,27.7,8,37.81l-.68-.8c2.81,3.2,1.79,3.08,3.84,4.5a12.41,12.41,0,0,0,4.55,1.69,50.84,50.84,0,0,0,39.48-8.13c3.88-2.81,7.66-6.36,12.59-6.79,11.58-1,18.19,15.24,29.8,14.51,4.86-.3,9-1.42,11.74-4.83,4.06-6,4-14,4.88-21,1.05-8.42,6-17.16,5.12-25.79" transform="translate(-15.46 81.52)" fill="#fff"/><path d="M363.1,216.84c2.81-2.48,6.42-3.82,9.94-5.11a37.1,37.1,0,0,1,9.26-2.53,19.09,19.09,0,0,1,16.24,6.71,25.12,25.12,0,0,1-1.58,10A12.49,12.49,0,0,1,390,233c-3.19,1.15-6.71.58-10.06,0a19.86,19.86,0,0,1-6.87-2.08c-2.31-1.36-4-3.58-5.54-5.74s-3-6.3-4.46-8.33" transform="translate(-15.46 81.52)" fill="#fff"/><path d="M447.93,218.85c-2.44-2.16-5.58-3.33-8.63-4.45a32.59,32.59,0,0,0-8.06-2.21A16.59,16.59,0,0,0,417.11,218a21.92,21.92,0,0,0,1.36,8.7,10.84,10.84,0,0,0,6,6.17c2.78,1,5.84.51,8.75,0a13.09,13.09,0,0,0,10.81-6.79c1.3-1.77,2.58-5.47,3.88-7.24" transform="translate(-15.46 81.52)" fill="#fff"/><path d="M450.75,158.87c2.52,2.36,12.4,10.37,13.53,13.64a15.49,15.49,0,0,1,.67,5.79,33.46,33.46,0,0,1-4.83,15.41l-6.81-1.36c-1.3-5.14-3.79-8-8.62-14.56-2.23-3-2.53-5.73-5.23-8.35" transform="translate(-15.46 81.52)" fill="#fff"/><path d="M371.11,165.65c-3.75,17-19.46,21.7-30.65,35.09l-1,2.43c-3.88-7.66-2.12-16.87-.06-25.21,1.31-5.32,2.77-10.75,6-15.21s8.49-7.8,13.93-7.14" transform="translate(-15.46 81.52)" fill="#fff"/><path d="M360.54,155.75l17.19,12.33a56.79,56.79,0,0,0,8,5.07,54.55,54.55,0,0,0,12,3.82c9.52,2.2,19.89,4.11,28.75,0a45.84,45.84,0,0,0,8.71-5.83c5.41-4.26,10.87-8.55,15.32-13.8a24.36,24.36,0,0,0,4.9-8.16,7.05,7.05,0,0,0,.39-2.94,9,9,0,0,0-1.12-3c-1.88-3.64-4.4-7.73-8.47-8.14a43.55,43.55,0,0,1,.53,7.2c-.2,2.4-1.29,4.91-3.43,6l-.11.12c-6.35,1.64-13,3.28-19.38,1.76-7.25-1.71-12.9-7.17-19.25-11.05-8.3-5.07-18.56-7.5-27.92-4.86s-17.28,11-17.73,20.74" transform="translate(-15.46 81.52)" fill="#fff"/><path d="M397.05,274.55s-24.45-7.87-26.87-9.7-6.15,4.43-6.15,4.43l-27.59,29.77s-11.93,12.15-11.16,15.63,8,13.79,8,13.79l13.89,15.72,8.11-7.67-8.89-20.71,15.9-16.09-4.38,36.8a9,9,0,0,1,3.91,7c.18,4.7-2.31,10.85-5.3,13.36s-4.66,9.38-4.66,9.38l-.19,30.79,4.18,29.34,19.38.41,18.16-41s9,25.35,9.6,28.83.66,12.17.66,12.17l21.07.8s1.54-2.7,3.4-14.74,5.38-37.81,4.24-42.7-2-12.5-2.84-17.49-1.91-8.26.29-10.55,2.29-7.75,2.29-7.75l-4.62-33.73,16.91,16.58-8.46,19.29,7.69,8.67,20.44-24.93s2.8-3.26.93-6.19-25.52-31.76-25.52-31.76L423,266s-10.93,6.42-14.39,7.18S397.05,274.55,397.05,274.55Z" transform="translate(-15.46 81.52)" fill="#fff"/><path d="M401.1,425.73c-.94.35,1,.14,0,0-.44,6,.3,12.07,1,18.06L404.87,466a2,2,0,0,0,.29,1c.43.56,1.27.49,2,.39,12.21-1.73,24.71,3.15,36.85,1l-.05-1A13.91,13.91,0,0,0,437.75,457c-3.48-2.26-9.17-4.16-13.1-2.79.13-8.82,2.58-17.7,4.3-26.35-1.59.3-26.36-.3-27.95,0" transform="translate(-15.46 81.52)" fill="#fff"/><path d="M376.54,424.75a6.3,6.3,0,0,0,3,.33c.44,6-.3,12.07-1,18.06l-2.73,22.16a1.91,1.91,0,0,1-.3,1c-.42.56-1.26.49-2,.39-12.2-1.73-24.7,3.15-36.84,1l0-1a13.88,13.88,0,0,1,6.17-10.34c3.48-2.27,9.17-4.16,13.09-2.8v0c-.12-8.83-2.59-17.72-4.3-26.38,1.59.3,26.38-.3,28,0" transform="translate(-15.46 81.52)" fill="#fff"/><path d="M439.36,340.4l-4.82-3.18s-4.64,4.43-5.33,6.31-.78,4.37-.06,8,5.39,7.52,5.39,7.52,2.49,3.09,4.82,2.23,6.72.2,7.09-3.9-1.72-9.12-2.07-9.68S439.36,340.4,439.36,340.4Z" transform="translate(-15.46 81.52)" fill="#fff"/><path d="M347.07,345.23l8.77-9.13s5.09,3.69,6,7.43,0,9.76-2.64,11.56-4.43,6.56-8.4,4.7-6.68-2.9-5.93-6S347.07,345.23,347.07,345.23Z" transform="translate(-15.46 81.52)" fill="#fff"/><path d="M364.87,218.61c4.7-3.74,12.86-7,18.95-7a16.74,16.74,0,0,1,9.85,3.19c3.19,2.31,2.59,5.26,1.46,8.84-2.66,8.43-11.57,8.48-18.74,6-6.37-2.21-7.88-9-11.13-14.07-1.73-2.7-6.06-.2-4.32,2.52,2.43,3.79,3.82,8,6.82,11.4,3.17,3.65,6.88,5.08,11.55,5.9,9.28,1.64,17.6-.53,20.64-10.42,1.16-3.77,2.34-8.92-.66-12a21.59,21.59,0,0,0-11-5.93c-8.85-1.77-20,2.5-26.93,8-2.51,2,1.05,5.52,3.54,3.54Z" transform="translate(-15.46 81.52)"/><path d="M405.56,243.63a2.67,2.67,0,0,1,4-.26c2.27,2.29,5.81-1.25,3.54-3.53a7.73,7.73,0,0,0-11.81,1.26c-1.79,2.69,2.53,5.19,4.31,2.53Z" transform="translate(-15.46 81.52)"/><path d="M349.49,362.43a318,318,0,0,0,3.94,64.64c.52,3.16,5.34,1.82,4.82-1.33a312,312,0,0,1-3.76-63.31c.14-3.21-4.86-3.21-5,0Z" transform="translate(-15.46 81.52)"/><path d="M375.87,427.16a11.85,11.85,0,0,0,3.65.42l-2.5-2.5a106.72,106.72,0,0,1-1.15,19c-.38,3.08-.75,6.16-1.13,9.24l-.57,4.61c-.11.9-.15,4.84-.68,5.54v.71a25.54,25.54,0,0,0-2.62-.26c-1.46-.11-2.92-.13-4.38-.1-2.94.06-5.88.37-8.8.7-6.79.77-13.56,1.77-20.38.74l1.84,2.41c.38-7.62,8.69-13.61,16.15-11.7l-1.75-1.74h0c.84,2.59,5,2.27,4.91-.66-.3-9.2-2.57-18.07-4.39-27l-2.41,3.16c9.21,1.18,18.77-1.17,28,0,3.19.41,3.16-4.6,0-5-9.2-1.17-18.76,1.18-28,0-1.73-.22-2.69,1.77-2.41,3.17,1.73,8.53,3.93,17,4.21,25.71l4.91-.67c-1.65-5.07-12.16-1.21-15.06.31a16.89,16.89,0,0,0-9.17,14.45,2.51,2.51,0,0,0,1.83,2.41c7.32,1.1,14.41.26,21.71-.56a74.55,74.55,0,0,1,12.31-.66c2.2.11,5.1,1.08,7-.61,1.66-1.5,1.49-4.62,1.73-6.62l1.48-12c1-8.14,2.28-16.29,1.83-24.52a2.54,2.54,0,0,0-2.5-2.5l-2.32-.24c-3.13-.74-4.46,4.08-1.33,4.82Z" transform="translate(-15.46 81.52)"/><path d="M377.63,427.48c5.16-13.92,11.5-27,17.91-40.41,1.39-2.89-2.92-5.43-4.32-2.53-6.6,13.77-13.1,27.29-18.41,41.61-1.13,3,3.7,4.32,4.82,1.33Z" transform="translate(-15.46 81.52)"/><path d="M396.22,384.85l-.36,1.17h-4.32c2.14,3.32,2.92,7.87,4.11,11.58,1.67,5.22,3.32,10.46,4.52,15.81a31.84,31.84,0,0,1,.76,7.55c0,2-.31,4.59.3,6.52,1,3,5.8,1.75,4.82-1.33-.4-1.27-.16-4.5-.12-6.36a43.27,43.27,0,0,0-1.58-10.37c-1.34-5.35-3.06-10.59-4.75-15.84-1.07-3.32-1.82-7.1-3.74-10.09a2.54,2.54,0,0,0-4.32,0,3.16,3.16,0,0,0-.14,2.69c.79,3.11,5.62,1.79,4.82-1.33Z" transform="translate(-15.46 81.52)"/><path d="M427.77,354.43a192.33,192.33,0,0,1-5.47,72.51c-.85,3.11,4,4.44,4.82,1.33a196.29,196.29,0,0,0,5.65-73.84c-.37-3.16-5.37-3.19-5,0Z" transform="translate(-15.46 81.52)"/><path d="M349.69,247.35C361,263.46,378.78,277.88,399.5,277c19.2-.81,35.53-14,45.87-29.34,1.8-2.68-2.53-5.18-4.32-2.52C431.73,259,416.84,271.26,399.5,272c-18.87.81-35.15-12.51-45.5-27.19-1.84-2.61-6.17-.11-4.31,2.53Z" transform="translate(-15.46 81.52)"/><path d="M365.77,264.18c-14.53,13.67-28.57,28.5-40.28,44.7-5.46,7.54-.19,13.29,4.72,19.69a119,119,0,0,0,9.19,10.62c3.79,3.88,8,7.67,7.4,13.57-.32,3.2,4.68,3.18,5,0,.78-8-5.09-13.11-10.11-18.39a109.59,109.59,0,0,1-8.78-10.47c-1.29-1.76-3.24-3.87-4-5.91-1.5-3.85.51-6.06,2.75-8.95a358.83,358.83,0,0,1,37.68-41.32c2.35-2.21-1.19-5.74-3.53-3.54Z" transform="translate(-15.46 81.52)"/><path d="M344,316.48c.7,3.07,2.59,5.57,3.6,8.54a48.89,48.89,0,0,0,2.41,6.82c2.21,4.34,5.92,7.55,9.22,11.05,2.2,2.35,5.73-1.19,3.53-3.53-3.08-3.28-6.66-6.26-8.58-10.41-1-2.14-1.4-4.45-2.21-6.66-.89-2.48-2.56-4.54-3.15-7.14-.71-3.14-5.53-1.81-4.82,1.33Z" transform="translate(-15.46 81.52)"/><path d="M358.8,342.39a11.41,11.41,0,0,1,.42,7.3c-.7,2.88-2.47,3.66-4.47,5.44s-3.8,3.07-6.33.9c-3.16-2.7-.87-5.4.74-8.09s-2.66-5.29-4.31-2.53c-2.74,4.57-5.06,7.81-1.25,12.69,2.55,3.27,6.8,5.3,10.86,3.61,2-.82,3.27-2.57,4.94-3.81a10.29,10.29,0,0,0,3.87-4.54,16.88,16.88,0,0,0-.15-13.49c-1.37-2.91-5.68-.38-4.32,2.52Z" transform="translate(-15.46 81.52)"/><path d="M348.54,317.49c1.09-1.84,2.87-2.85,4.48-4.19a45,45,0,0,0,3.64-4c1.36-1.44,3.16-2.36,4.48-3.84s1.81-3.2,3.41-4.22c2.71-1.72.21-6.05-2.52-4.31a12.75,12.75,0,0,0-3.79,4.05c-1.38,2-3.49,3-5.12,4.79a40.69,40.69,0,0,1-4.71,4.85,15.93,15.93,0,0,0-4.19,4.39c-1.65,2.77,2.67,5.29,4.32,2.52Z" transform="translate(-15.46 81.52)"/><path d="M361.62,298.06c-2.39,12.55-2.94,25.4-6.13,37.8-.81,3.12,4,4.45,4.82,1.33,3.2-12.41,3.74-25.25,6.13-37.8.6-3.15-4.22-4.49-4.82-1.33Z" transform="translate(-15.46 81.52)"/><path d="M349.64,345.3a43.47,43.47,0,0,1,10-8.76c2.72-1.71.21-6-2.52-4.32a48,48,0,0,0-11,9.54c-2.07,2.44,1.45,6,3.54,3.54Z" transform="translate(-15.46 81.52)"/><path d="M355.84,428.9c3.22,0,3.22-5,0-5s-3.22,5,0,5Z" transform="translate(-15.46 81.52)"/><path d="M399.84,423.57l-.26.17a2.52,2.52,0,0,0,1.27,4.66,3.83,3.83,0,0,0,1.21-.15c2.5-.71,2.23-4,0-4.82l-.29-.11c-1.61-.59-3.08.92-3.17,2.41-.42,7.93.76,15.76,1.72,23.6l1.59,12.93c.25,2,.08,5.13,1.74,6.63,1.88,1.69,4.78.71,7,.6a71.65,71.65,0,0,1,11.43.57c7.59.83,15,1.8,22.58.65a2.49,2.49,0,0,0,1.84-2.41c-.55-10.89-11.76-19.26-22.48-16.52l3.16,2.42c.28-8.74,2.48-17.17,4.21-25.69.28-1.4-.68-3.38-2.41-3.16-9.2,1.17-18.75-1.17-27.95,0-3.15.4-3.19,5.4,0,5,9.2-1.17,18.75,1.17,27.95,0l-2.41-3.17c-1.83,9-4.09,17.83-4.39,27a2.53,2.53,0,0,0,3.17,2.41c7.45-1.91,15.77,4.08,16.15,11.69l1.84-2.41c-6.52,1-13,.12-19.5-.63-2.93-.34-5.86-.67-8.81-.78-1.46-.05-2.92-.07-4.38,0-.88,0-1.75.11-2.63.22-.82.39-1.1.19-.85-.6-1.18-1.35-.91-7.38-1.14-9.24-.38-3.07-.75-6.15-1.13-9.23-.82-6.63-1.63-13.21-1.27-19.91l-3.16,2.41.29.11v-4.82l.12,0,1.26,4.66.26-.17c2.69-1.73.19-6.06-2.53-4.32Z" transform="translate(-15.46 81.52)"/><path d="M421.46,268.72A358.83,358.83,0,0,1,459.14,310c2.25,2.89,4.25,5.1,2.75,8.95-.8,2-2.75,4.16-4,5.91a109.59,109.59,0,0,1-8.78,10.47c-5,5.28-10.89,10.41-10.11,18.39.32,3.17,5.32,3.2,5,0-.54-5.6,3.23-9.33,6.87-13A119.82,119.82,0,0,0,460,330.28c5.06-6.53,10.9-12.6,5.26-20.4-11.7-16.2-25.75-31-40.28-44.7-2.34-2.2-5.88,1.33-3.53,3.54Z" transform="translate(-15.46 81.52)"/><path d="M442.57,316.31c-.53,2.36-2,4.26-2.87,6.46-1,2.43-1.41,5-2.52,7.42-1.95,4.24-5.57,7.27-8.71,10.61-1.65,1.76,1,4.42,2.65,2.65,3.26-3.46,6.94-6.63,9.12-10.93a44.73,44.73,0,0,0,2.35-6.67c1-3,2.9-5.46,3.6-8.54.53-2.35-3.08-3.35-3.62-1Z" transform="translate(-15.46 81.52)"/><path d="M428.18,341.18a16.33,16.33,0,0,0-.09,13,9.64,9.64,0,0,0,3.58,4.16c1.62,1.18,2.93,2.94,4.8,3.75,3.81,1.64,7.89-.34,10.25-3.45,3.54-4.65,1.26-7.59-1.34-11.93-1.24-2.07-4.49-.19-3.24,1.89,1.68,2.81,4.1,5.33,1,8.51-2.83,2.89-5.07,1.62-7.55-.56-1.91-1.69-3.76-2.58-4.52-5.25a12.18,12.18,0,0,1,.37-8.25c1-2.17-2.21-4.07-3.24-1.89Z" transform="translate(-15.46 81.52)"/><path d="M446.54,316a15.78,15.78,0,0,0-4.19-4.39,40.72,40.72,0,0,1-4.71-4.85c-1.63-1.77-3.72-2.79-5.12-4.79a12.64,12.64,0,0,0-3.79-4.05c-2.72-1.74-5.23,2.59-2.52,4.31,1.6,1,2.17,2.84,3.41,4.22s3.13,2.4,4.48,3.84a43.49,43.49,0,0,0,3.65,4c1.61,1.34,3.37,2.34,4.47,4.19,1.65,2.76,6,.25,4.32-2.52Z" transform="translate(-15.46 81.52)"/><path d="M424.32,300.39c2.39,12.55,2.94,25.39,6.13,37.8.81,3.11,5.63,1.79,4.82-1.33-3.19-12.4-3.74-25.25-6.13-37.8-.6-3.16-5.42-1.82-4.82,1.33Z" transform="translate(-15.46 81.52)"/><path d="M444.22,343.2a47.39,47.39,0,0,0-10.92-9.44c-2.05-1.29-3.93,2-1.89,3.24a44.06,44.06,0,0,1,10.16,8.86c1.56,1.84,4.2-.82,2.65-2.66Z" transform="translate(-15.46 81.52)"/><path d="M390.2,331.2c-.12-3.72-.45-7.21-2.31-10.51-2.06-3.64-5.58-7.06-6.58-11.2C380,304,383.22,296,388.59,294s12.32-2.53,16.67,1.93a17.45,17.45,0,0,1,4.86,14.55c-.53,3.84-4.05,7.61-6.93,10.17-2.38,2.12-3.93,3.77-4.42,7-.09.58.11,1.83-.15,2.31-.58,1.11.73.07-1.12.24-2.72.26-5.76-.24-8.49-.36-2.41-.1-2.41,3.65,0,3.75,3.05.13,8.47,1.41,11.32.49,1-.33,1.56-.52,2-1.56.39-.87-.05-2.27,0-3.25.17-2.53,1.27-3.88,2.95-5.57a70.52,70.52,0,0,0,5.3-5.87c6.73-8.51,2.65-19.92-4.63-26.63-3.49-3.21-10.59-3.08-15-2.16-6,1.27-9.19,4.15-11.6,9.58-2,4.49-3.07,8.51-1.29,13.36.93,2.53,2.75,4.8,4.2,7,2.66,4.07,4,7.24,4.11,12.19.07,2.41,3.82,2.42,3.75,0Z" transform="translate(-15.46 81.52)"/><line x1="371.83" y1="416.52" x2="386.25" y2="417.05" fill="none" stroke="#000" stroke-miterlimit="10" stroke-width="1.75"/><line x1="370.7" y1="418.96" x2="387.21" y2="419.73" fill="none" stroke="#000" stroke-miterlimit="10" stroke-width="1.75"/><line x1="373.27" y1="421.43" x2="384.64" y2="421.92" fill="none" stroke="#000" stroke-miterlimit="10" stroke-width="1.75"/><polygon points="383.43 382.17 374.04 393.17 378.33 393.71 375.83 402.02 386.56 390.85 380.03 391.11 383.43 382.17" fill="#020202" stroke="#000" stroke-miterlimit="10" stroke-width="1.31"/><line x1="377.11" y1="423.82" x2="381.77" y2="423.91" fill="none" stroke="#000" stroke-miterlimit="10" stroke-width="1.5"/><path d="M449.7,217.08c-6.05-4.74-15.67-8.61-23.44-7.13a19.43,19.43,0,0,0-9.94,5.22c-2.71,2.7-1.82,7.12-.84,10.53,2.43,8.46,9.43,11,17.54,9.74,4.12-.65,7.7-1.71,10.61-4.84s4.21-6.93,6.46-10.49c1.72-2.72-2.6-5.24-4.32-2.52-2.41,3.81-3.66,8.87-7.81,11.33-6,3.59-15.43,3-17.66-4.55-.84-2.85-1.32-5.31,1.26-7.12a14.55,14.55,0,0,1,7.52-2.61c5.44-.27,12.88,2.68,17.08,6,2.51,2,6.07-1.55,3.54-3.54Z" transform="translate(-15.46 81.52)"/><path d="M396.76,254.35c2.24,2.51,5.65,5.69,9.19,6s7.84-2.17,10.65-4.27c2.54-1.9,0-6.24-2.53-4.32-1.84,1.38-4.41,3.21-6.79,3.45-2.83.28-5.29-2.46-7-4.35-2.15-2.41-5.67,1.14-3.53,3.53Z" transform="translate(-15.46 81.52)"/><circle cx="368.92" cy="309.11" r="6.13" fill="#020202" stroke="#000" stroke-miterlimit="10" stroke-width="0.45"/><circle cx="413.63" cy="308.61" r="5.63" fill="#020202" stroke="#000" stroke-miterlimit="10" stroke-width="0.42"/><path d="M459.57,192.52a87.31,87.31,0,0,0-23.11-2.65c-8,.13-15.47,1.81-23.31,3.14-3.5.59-5.94-1.48-9.17-2.81a57.08,57.08,0,0,0-11.07-3.31,69.06,69.06,0,0,0-22.18-.21c-8.08,1.08-17.14,2.35-24.71,5.49-5.74,2.38-7.66,7.66-7.88,13.54-.49,12.78.3,27.17,8.39,37.69l3.92-3-.68-.8c-2.08-2.46-5.59,1.09-3.53,3.54,1.44,1.72,2.43,3.64,4.34,4.89,3.05,2,7,2.41,10.57,2.79A53.88,53.88,0,0,0,384,248.25a50.76,50.76,0,0,0,10.58-4.95c3.35-2.09,6.24-4.93,9.74-6.76,7.18-3.78,12.88,1.3,18.21,5.75,3.95,3.3,8.21,6.71,13.51,7.26,6.28.65,13.72-1.58,17-7.32,3.8-6.72,3.32-14.51,4.57-21.87,1.44-8.43,5.51-16.13,5-24.87-.2-3.19-5.2-3.22-5,0,.49,8-3.12,15.07-4.63,22.75-1.37,7-.45,15.14-4.22,21.46s-13.06,5.87-18.49,2.26c-4.23-2.81-7.66-6.7-12-9.29A16,16,0,0,0,405,230.8c-5.87,1.87-10.3,6.87-15.67,9.75a48.31,48.31,0,0,1-21.74,5.52c-3.91.08-8.37-.07-12.11-1.34-3-1-3.75-2.86-5.69-5.16l-3.53,3.54.68.8c1.81,2.14,5.66-.77,3.92-3-7.33-9.55-8-22.16-7.73-33.77.12-4.6.66-8.83,5.61-10.64a79.6,79.6,0,0,1,9.3-2.35,111.65,111.65,0,0,1,22.85-3.28,53.59,53.59,0,0,1,18.7,3c3.31,1.15,6.43,3.63,9.7,4.63,2.26.71,4.62-.52,6.88-1.06a88.37,88.37,0,0,1,42.09-.07c3.12.79,4.45-4,1.33-4.83Z" transform="translate(-15.46 81.52)"/><path d="M368.7,165c-2.23,9.13-8.38,15-15.46,20.76-5.67,4.56-13.06,9.28-16,16.16h4.32c-3.8-8.4-1.32-18,1-26.48,2.24-8.17,6.63-17.89,16.66-17.32,3.22.19,3.21-4.82,0-5-10.81-.61-17.51,8.51-20.56,17.82-3.47,10.63-6.22,22.91-1.43,33.5.73,1.61,3.61,1.67,4.32,0,3.18-7.52,12.21-12.54,18.26-17.67,6.55-5.57,11.6-12,13.67-20.44.77-3.13-4-4.46-4.82-1.33Z" transform="translate(-15.46 81.52)"/><path d="M449.43,160.19c3.76,3.46,7.91,6.61,11.29,10.47,5.17,5.9,1.34,16.26-2.22,22.11l2.11-.86c-1.73-.35-4-.41-5.56-1.12-1.78-.79,0,1-.62-1.17a17.57,17.57,0,0,0-1.59-3.47c-1.85-3.34-4.43-6.16-6.54-9.31-1.94-2.91-3.14-6.1-5.51-8.73-1.62-1.79-4.27.87-2.65,2.65,3.11,3.45,5.14,8.21,7.91,12,2.32,3.16,4.38,6.27,5.45,10.08a1.86,1.86,0,0,0,1.31,1.31l6.81,1.36a2,2,0,0,0,2.12-.86c3.72-6.12,7.51-16.66,3.93-23.62-2.81-5.47-9.16-9.43-13.59-13.5-1.78-1.63-4.43,1-2.65,2.65Z" transform="translate(-15.46 81.52)"/><path d="M359.28,157.91c10.77,7.73,21.2,17.21,34.26,20.62,11.22,2.93,24.11,5.69,35,.18,5.27-2.67,10-6.91,14.49-10.68s9.32-8.13,12.52-13.3c2.6-4.21,3.6-8.25,1.31-12.76-2.16-4.27-5-8.28-10-9.29-1.42-.29-3.36.68-3.16,2.41.35,3.12,1.86,9-1.66,11-1.43.83-4,1-5.65,1.33-6.3,1.22-12.15,1.06-17.89-2.09-8.84-4.86-15.85-11.64-26-13.81-16.36-3.49-34.55,5.52-36.05,23.44-.27,3.21,4.73,3.19,5,0,.89-10.69,10.48-18.32,20.77-19.21,11.33-1,20.19,4.85,29.08,10.93,8.08,5.52,15.86,7.54,25.58,5.74,3.83-.71,8.1-1.15,10.5-4.56,2.68-3.81,1.84-8.5,1.36-12.82l-3.17,2.41c5.37,1.1,8.91,8.57,6.47,13.32-2.16,4.21-5.81,7.72-9.28,10.86-7.65,6.93-16.14,14.72-26.94,15.17-9.35.38-21.16-2-29.53-6.22-8.69-4.42-16.55-11.36-24.45-17-2.62-1.87-5.12,2.46-2.53,4.32Z" transform="translate(-15.46 81.52)"/></svg>